<svg width="566" height="288" viewBox="0 0 566 288" fill="none" xmlns="http://www.w3.org/2000/svg"><g filter="url(#filter0_di_1495_85353)"><path fill-rule="evenodd" clip-rule="evenodd" d="M91.796 28a8 8 0 00-7.959 7.185l-15.99 156.241c-.3 2.937-2.208 5.435-4.855 6.74-9.165 4.517-19.892 12.269-22.989 22.95a.077.077 0 00.117.085c3.251-2.152 8.898-5.89 15.835-8.597 4.895-1.91 9.485 2.344 8.95 7.572l-.718 7.01c-.482 4.715 3.219 8.814 7.959 8.814h425.629a8 8 0 007.958-7.186l19.65-192c.483-4.715-3.218-8.814-7.958-8.814H91.795z" fill="#FFF0CB"/></g><defs><filter id="filter0_di_1495_85353" x="0" y="0" width="565.426" height="288" filterUnits="userSpaceOnUse" color-interpolation-filters="sRGB"><feFlood flood-opacity="0" result="BackgroundImageFix"/><feColorMatrix in="SourceAlpha" values="0 0 0 0 0 0 0 0 0 0 0 0 0 0 0 0 0 0 127 0" result="hardAlpha"/><feOffset dy="12"/><feGaussianBlur stdDeviation="20"/><feComposite in2="hardAlpha" operator="out"/><feColorMatrix values="0 0 0 0 1 0 0 0 0 1 0 0 0 0 1 0 0 0 1 0"/><feBlend in2="BackgroundImageFix" result="effect1_dropShadow_1495_85353"/><feBlend in="SourceGraphic" in2="effect1_dropShadow_1495_85353" result="shape"/><feColorMatrix in="SourceAlpha" values="0 0 0 0 0 0 0 0 0 0 0 0 0 0 0 0 0 0 127 0" result="hardAlpha"/><feOffset dy="-4"/><feGaussianBlur stdDeviation="4"/><feComposite in2="hardAlpha" operator="arithmetic" k2="-1" k3="1"/><feColorMatrix values="0 0 0 0 0.883659 0 0 0 0 0.635314 0 0 0 0 0.0558422 0 0 0 0.4 0"/><feBlend in2="shape" result="effect2_innerShadow_1495_85353"/></filter></defs></svg>