<svg width="501" height="220" viewBox="0 0 501 220" fill="none" xmlns="http://www.w3.org/2000/svg"><g filter="url(#filter0_di_1419_49479)"><path fill-rule="evenodd" clip-rule="evenodd" d="M64.973 28a8 8 0 00-7.953 7.135l-16.972 156C39.533 195.868 43.24 200 48 200h372.193a8 8 0 007.953-7.135l11.588-106.51c.282-2.6 1.837-4.867 4.048-6.264 7.309-4.62 14.325-11.151 16.732-19.453a.077.077 0 00-.116-.085c-1.843 1.22-4.455 2.948-7.635 4.71-5.072 2.81-10.569-1.526-9.941-7.29l2.296-21.108c.515-4.733-3.192-8.865-7.953-8.865H64.973z" fill="#FFF0CB"/></g><defs><filter id="filter0_di_1419_49479" x="0" y="0" width="500.518" height="252" filterUnits="userSpaceOnUse" color-interpolation-filters="sRGB"><feFlood flood-opacity="0" result="BackgroundImageFix"/><feColorMatrix in="SourceAlpha" values="0 0 0 0 0 0 0 0 0 0 0 0 0 0 0 0 0 0 127 0" result="hardAlpha"/><feOffset dy="12"/><feGaussianBlur stdDeviation="20"/><feComposite in2="hardAlpha" operator="out"/><feColorMatrix values="0 0 0 0 1 0 0 0 0 1 0 0 0 0 1 0 0 0 1 0"/><feBlend in2="BackgroundImageFix" result="effect1_dropShadow_1419_49479"/><feBlend in="SourceGraphic" in2="effect1_dropShadow_1419_49479" result="shape"/><feColorMatrix in="SourceAlpha" values="0 0 0 0 0 0 0 0 0 0 0 0 0 0 0 0 0 0 127 0" result="hardAlpha"/><feOffset dy="-4"/><feGaussianBlur stdDeviation="4"/><feComposite in2="hardAlpha" operator="arithmetic" k2="-1" k3="1"/><feColorMatrix values="0 0 0 0 0.883659 0 0 0 0 0.635314 0 0 0 0 0.0558422 0 0 0 0.4 0"/><feBlend in2="shape" result="effect2_innerShadow_1419_49479"/></filter></defs></svg>