<svg width="539" height="223" viewBox="0 0 539 223" fill="none" xmlns="http://www.w3.org/2000/svg"><g filter="url(#filter0_di_1419_49587)"><path fill-rule="evenodd" clip-rule="evenodd" d="M66.39 28a8 8 0 00-7.944 7.063l-18.39 156c-.56 4.757 3.156 8.937 7.945 8.937h404.613a8 8 0 007.945-7.063l1.733-14.697c.537-4.556 4.791-7.68 9.373-7.451 9.193.459 19.692-.928 26.805-7.019.054-.047.021-.136-.05-.136-5.903.026-18.388.079-29.271-5.325-2.684-1.332-3.999-4.317-3.648-7.293l13.448-114.08c.561-4.756-3.155-8.936-7.945-8.936H66.391z" fill="#FFF0CB"/></g><defs><filter id="filter0_di_1419_49587" x="0" y="0" width="538.498" height="252" filterUnits="userSpaceOnUse" color-interpolation-filters="sRGB"><feFlood flood-opacity="0" result="BackgroundImageFix"/><feColorMatrix in="SourceAlpha" values="0 0 0 0 0 0 0 0 0 0 0 0 0 0 0 0 0 0 127 0" result="hardAlpha"/><feOffset dy="12"/><feGaussianBlur stdDeviation="20"/><feComposite in2="hardAlpha" operator="out"/><feColorMatrix values="0 0 0 0 1 0 0 0 0 1 0 0 0 0 1 0 0 0 1 0"/><feBlend in2="BackgroundImageFix" result="effect1_dropShadow_1419_49587"/><feBlend in="SourceGraphic" in2="effect1_dropShadow_1419_49587" result="shape"/><feColorMatrix in="SourceAlpha" values="0 0 0 0 0 0 0 0 0 0 0 0 0 0 0 0 0 0 127 0" result="hardAlpha"/><feOffset dy="-4"/><feGaussianBlur stdDeviation="4"/><feComposite in2="hardAlpha" operator="arithmetic" k2="-1" k3="1"/><feColorMatrix values="0 0 0 0 0.883659 0 0 0 0 0.635314 0 0 0 0 0.0558422 0 0 0 0.4 0"/><feBlend in2="shape" result="effect2_innerShadow_1419_49587"/></filter></defs></svg>