<svg width="700" height="395" viewBox="0 0 700 395" fill="none" xmlns="http://www.w3.org/2000/svg"><g filter="url(#filter0_di_1495_68169)"><path fill-rule="evenodd" clip-rule="evenodd" d="M316.989 29.577c-84.622-4.992-168.137-1.465-228.492 61.069-67.428 69.861-51.673 130.224-29.145 168.76 45.404 77.664 167.147 84.164 292.48 79.939 82.157-2.769 154.259-5.234 203.746-24.651 9.241-3.626 19.829-2.327 27.986 3.329 17.946 12.443 45.429 25.894 76.129 24.126.262-.015.349-.358.124-.494-18.972-11.436-40.545-24.439-52.582-44.724-4.379-7.382-2.087-16.412 2.489-23.673 10.307-16.359 15.729-37.02 15.381-63.198C623.223 68.529 461.782 38.118 316.989 29.577z" fill="#fff"/></g><defs><filter id="filter0_di_1495_68169" x="0" y="0" width="699.945" height="394.307" filterUnits="userSpaceOnUse" color-interpolation-filters="sRGB"><feFlood flood-opacity="0" result="BackgroundImageFix"/><feColorMatrix in="SourceAlpha" values="0 0 0 0 0 0 0 0 0 0 0 0 0 0 0 0 0 0 127 0" result="hardAlpha"/><feOffset dy="12"/><feGaussianBlur stdDeviation="20"/><feComposite in2="hardAlpha" operator="out"/><feColorMatrix values="0 0 0 0 0.909804 0 0 0 0 0.313726 0 0 0 0 0.470588 0 0 0 1 0"/><feBlend in2="BackgroundImageFix" result="effect1_dropShadow_1495_68169"/><feBlend in="SourceGraphic" in2="effect1_dropShadow_1495_68169" result="shape"/><feColorMatrix in="SourceAlpha" values="0 0 0 0 0 0 0 0 0 0 0 0 0 0 0 0 0 0 127 0" result="hardAlpha"/><feOffset dy="-4"/><feGaussianBlur stdDeviation="4"/><feComposite in2="hardAlpha" operator="arithmetic" k2="-1" k3="1"/><feColorMatrix values="0 0 0 0 0.909804 0 0 0 0 0.313726 0 0 0 0 0.470588 0 0 0 0.48 0"/><feBlend in2="shape" result="effect2_innerShadow_1495_68169"/></filter></defs></svg>