<svg width="698" height="371" viewBox="0 0 698 371" fill="none" xmlns="http://www.w3.org/2000/svg"><g filter="url(#filter0_di_1419_48826)"><path fill-rule="evenodd" clip-rule="evenodd" d="M322.508 29.848c-84.621-4.992-168.136-1.465-228.492 61.07-67.428 69.86-59.673 114.224-37.144 152.759 45.404 77.665 175.147 76.165 300.48 71.94 79.891-2.693 150.275-5.099 199.6-23.083 8.749-3.19 18.579-1.926 26.32 3.249 17.951 12 44.463 24.334 73.942 22.637.262-.015.349-.359.124-.494-16.408-9.89-34.761-20.953-47.209-36.885-6.284-8.043-3.606-19.043 2.322-27.351 12.116-16.977 18.552-38.909 18.174-67.359C628.782 47.779 474.027 38.719 331.671 30.386c-3.06-.18-6.115-.358-9.163-.538z" fill="#fff"/></g><defs><filter id="filter0_di_1419_48826" x=".774" y=".271" width="696.692" height="370.307" filterUnits="userSpaceOnUse" color-interpolation-filters="sRGB"><feFlood flood-opacity="0" result="BackgroundImageFix"/><feColorMatrix in="SourceAlpha" values="0 0 0 0 0 0 0 0 0 0 0 0 0 0 0 0 0 0 127 0" result="hardAlpha"/><feOffset dy="12"/><feGaussianBlur stdDeviation="20"/><feComposite in2="hardAlpha" operator="out"/><feColorMatrix values="0 0 0 0 0.909804 0 0 0 0 0.313726 0 0 0 0 0.470588 0 0 0 1 0"/><feBlend in2="BackgroundImageFix" result="effect1_dropShadow_1419_48826"/><feBlend in="SourceGraphic" in2="effect1_dropShadow_1419_48826" result="shape"/><feColorMatrix in="SourceAlpha" values="0 0 0 0 0 0 0 0 0 0 0 0 0 0 0 0 0 0 127 0" result="hardAlpha"/><feOffset dy="-4"/><feGaussianBlur stdDeviation="4"/><feComposite in2="hardAlpha" operator="arithmetic" k2="-1" k3="1"/><feColorMatrix values="0 0 0 0 0.909804 0 0 0 0 0.313726 0 0 0 0 0.470588 0 0 0 0.48 0"/><feBlend in2="shape" result="effect2_innerShadow_1419_48826"/></filter></defs></svg>