<svg width="719" height="540" viewBox="0 0 719 540" fill="none" xmlns="http://www.w3.org/2000/svg"><g filter="url(#filter0_di_1479_48628)"><path fill-rule="evenodd" clip-rule="evenodd" d="M321.509 29.848c-84.622-4.992-176.137-1.465-236.493 61.07C17.59 160.777 38.923 349.998 74 410c45.404 77.665 157.019 100.224 282.352 95.999 126.021-4.248 232.597-24.287 268.412-183.726 1.672-7.442 9.672-11.678 16.972-9.466 11.282 3.418 23.597 5.355 36.479 4.613a.265.265 0 00.122-.493c-13.242-7.982-27.751-16.728-39.4-28.18-4.695-4.616-6.431-11.31-5.688-17.853 2.875-25.337 4.376-53.424 4.376-84.563 0-138.032-162.929-147.54-305.296-155.85-3.621-.21-7.229-.421-10.82-.633z" fill="#fff"/></g><defs><filter id="filter0_di_1479_48628" x=".973" y=".271" width="717.494" height="558.215" filterUnits="userSpaceOnUse" color-interpolation-filters="sRGB"><feFlood flood-opacity="0" result="BackgroundImageFix"/><feColorMatrix in="SourceAlpha" values="0 0 0 0 0 0 0 0 0 0 0 0 0 0 0 0 0 0 127 0" result="hardAlpha"/><feOffset dy="12"/><feGaussianBlur stdDeviation="20"/><feComposite in2="hardAlpha" operator="out"/><feColorMatrix values="0 0 0 0 0.909804 0 0 0 0 0.313726 0 0 0 0 0.470588 0 0 0 1 0"/><feBlend in2="BackgroundImageFix" result="effect1_dropShadow_1479_48628"/><feBlend in="SourceGraphic" in2="effect1_dropShadow_1479_48628" result="shape"/><feColorMatrix in="SourceAlpha" values="0 0 0 0 0 0 0 0 0 0 0 0 0 0 0 0 0 0 127 0" result="hardAlpha"/><feOffset dy="-4"/><feGaussianBlur stdDeviation="4"/><feComposite in2="hardAlpha" operator="arithmetic" k2="-1" k3="1"/><feColorMatrix values="0 0 0 0 0.909804 0 0 0 0 0.313726 0 0 0 0 0.470588 0 0 0 0.48 0"/><feBlend in2="shape" result="effect2_innerShadow_1479_48628"/></filter></defs></svg>