<svg width="501" height="466" viewBox="0 0 501 466" fill="none" xmlns="http://www.w3.org/2000/svg">
<g filter="url(#filter0_di_1464_63111)">
<path fill-rule="evenodd" clip-rule="evenodd" d="M60.5156 119.49C45.7734 93.4806 67.9797 45.8115 112.911 33.7737C150.007 23.8352 247.44 30.7715 277.968 42.1156C316.365 56.384 328.324 81.7335 306.253 110.731C283.709 140.35 211.291 137.013 162.814 134.779L161.268 134.708C148.018 134.099 135.324 134.52 123.619 134.908C93.7062 135.9 70.2579 136.677 60.5156 119.49ZM63.007 379.95C64.0086 381.708 64.4025 383.757 63.851 385.704C61.6818 393.36 58.0505 396.85 53.0951 401.613L53.0913 401.617C52.693 402 52.8977 402.66 53.4485 402.704C57.8008 403.05 62.3259 401.227 66.1471 398.839C69.8971 396.495 74.9655 396.717 78.1964 399.736C81.6627 402.975 85.3623 405.706 89.2915 407.859C105.885 416.95 164.582 413.177 207.115 410.443C219.275 409.662 230.114 408.965 238.269 408.678C251.133 408.226 268.608 409.435 287.21 410.723C321.568 413.102 359.773 415.747 379.879 408.678C435.003 389.296 460.999 355.416 460.998 278.28C460.998 201.143 418.499 161.733 387.692 148.807C364.372 139.022 288.506 143.024 234.113 145.893C211.473 147.087 192.553 148.085 182.691 147.811C175.108 147.6 167.165 146.971 159.123 146.334C128.326 143.894 96.0802 141.339 77.0211 161.733C32.9981 208.839 30.5433 322.97 63.007 379.95Z" fill="white"/>
</g>
<defs>
<filter id="filter0_di_1464_63111" x="0.998047" y="0.998047" width="500" height="464.598" filterUnits="userSpaceOnUse" color-interpolation-filters="sRGB">
<feFlood flood-opacity="0" result="BackgroundImageFix"/>
<feColorMatrix in="SourceAlpha" type="matrix" values="0 0 0 0 0 0 0 0 0 0 0 0 0 0 0 0 0 0 127 0" result="hardAlpha"/>
<feOffset dy="12"/>
<feGaussianBlur stdDeviation="20"/>
<feComposite in2="hardAlpha" operator="out"/>
<feColorMatrix type="matrix" values="0 0 0 0 0.909804 0 0 0 0 0.313726 0 0 0 0 0.470588 0 0 0 1 0"/>
<feBlend mode="normal" in2="BackgroundImageFix" result="effect1_dropShadow_1464_63111"/>
<feBlend mode="normal" in="SourceGraphic" in2="effect1_dropShadow_1464_63111" result="shape"/>
<feColorMatrix in="SourceAlpha" type="matrix" values="0 0 0 0 0 0 0 0 0 0 0 0 0 0 0 0 0 0 127 0" result="hardAlpha"/>
<feOffset dy="-4"/>
<feGaussianBlur stdDeviation="4"/>
<feComposite in2="hardAlpha" operator="arithmetic" k2="-1" k3="1"/>
<feColorMatrix type="matrix" values="0 0 0 0 0.909804 0 0 0 0 0.313726 0 0 0 0 0.470588 0 0 0 0.16 0"/>
<feBlend mode="normal" in2="shape" result="effect2_innerShadow_1464_63111"/>
</filter>
</defs>
</svg>
