<svg width="663" height="216" viewBox="0 0 663 216" fill="none" xmlns="http://www.w3.org/2000/svg"><g filter="url(#filter0_di_1419_53245)"><path fill-rule="evenodd" clip-rule="evenodd" d="M79.09 28a8 8 0 00-7.906 6.778l-5.15 33.336c-.492 3.18-2.859 5.707-5.904 6.747-7.557 2.58-14.999 6.83-19.148 13.527a.077.077 0 00.089.114c2.946-.951 7.616-2.459 13.123-3.41 4.858-.839 8.67 3.543 7.917 8.415l-15.03 97.271c-.748 4.848 3.002 9.222 7.907 9.222h535.235a7.999 7.999 0 007.906-6.778l24.103-156c.749-4.848-3.001-9.222-7.906-9.222H79.09z" fill="#FFF0CB"/></g><defs><filter id="filter0_di_1419_53245" x=".97" y="0" width="661.358" height="252" filterUnits="userSpaceOnUse" color-interpolation-filters="sRGB"><feFlood flood-opacity="0" result="BackgroundImageFix"/><feColorMatrix in="SourceAlpha" values="0 0 0 0 0 0 0 0 0 0 0 0 0 0 0 0 0 0 127 0" result="hardAlpha"/><feOffset dy="12"/><feGaussianBlur stdDeviation="20"/><feComposite in2="hardAlpha" operator="out"/><feColorMatrix values="0 0 0 0 1 0 0 0 0 1 0 0 0 0 1 0 0 0 1 0"/><feBlend in2="BackgroundImageFix" result="effect1_dropShadow_1419_53245"/><feBlend in="SourceGraphic" in2="effect1_dropShadow_1419_53245" result="shape"/><feColorMatrix in="SourceAlpha" values="0 0 0 0 0 0 0 0 0 0 0 0 0 0 0 0 0 0 127 0" result="hardAlpha"/><feOffset dy="-4"/><feGaussianBlur stdDeviation="4"/><feComposite in2="hardAlpha" operator="arithmetic" k2="-1" k3="1"/><feColorMatrix values="0 0 0 0 0.883659 0 0 0 0 0.635314 0 0 0 0 0.0558422 0 0 0 0.4 0"/><feBlend in2="shape" result="effect2_innerShadow_1419_53245"/></filter></defs></svg>