<svg width="561" height="288" viewBox="0 0 561 288" fill="none" xmlns="http://www.w3.org/2000/svg"><g filter="url(#filter0_di_1495_64628)"><path fill-rule="evenodd" clip-rule="evenodd" d="M79.522 28a8 8 0 00-7.957 7.172l-1.524 14.64c-.317 3.037-2.348 5.595-5.126 6.862-9.528 4.344-21.595 12.423-24.912 23.861a.077.077 0 00.117.086c3.629-2.402 10.243-6.78 18.304-9.495 4.822-1.624 9.126 2.605 8.6 7.666l-15.449 148.38c-.491 4.72 3.211 8.828 7.957 8.828h433.259a8 8 0 007.957-7.172l19.989-192c.492-4.72-3.211-8.828-7.957-8.828H79.522z" fill="#FFF0CB"/></g><defs><filter id="filter0_di_1495_64628" x="0" y="0" width="560.781" height="288" filterUnits="userSpaceOnUse" color-interpolation-filters="sRGB"><feFlood flood-opacity="0" result="BackgroundImageFix"/><feColorMatrix in="SourceAlpha" values="0 0 0 0 0 0 0 0 0 0 0 0 0 0 0 0 0 0 127 0" result="hardAlpha"/><feOffset dy="12"/><feGaussianBlur stdDeviation="20"/><feComposite in2="hardAlpha" operator="out"/><feColorMatrix values="0 0 0 0 1 0 0 0 0 1 0 0 0 0 1 0 0 0 1 0"/><feBlend in2="BackgroundImageFix" result="effect1_dropShadow_1495_64628"/><feBlend in="SourceGraphic" in2="effect1_dropShadow_1495_64628" result="shape"/><feColorMatrix in="SourceAlpha" values="0 0 0 0 0 0 0 0 0 0 0 0 0 0 0 0 0 0 127 0" result="hardAlpha"/><feOffset dy="-4"/><feGaussianBlur stdDeviation="4"/><feComposite in2="hardAlpha" operator="arithmetic" k2="-1" k3="1"/><feColorMatrix values="0 0 0 0 0.883659 0 0 0 0 0.635314 0 0 0 0 0.0558422 0 0 0 0.4 0"/><feBlend in2="shape" result="effect2_innerShadow_1495_64628"/></filter></defs></svg>