<svg width="488" height="244" viewBox="0 0 488 244" fill="none" xmlns="http://www.w3.org/2000/svg"><g filter="url(#filter0_di_1419_53331)"><path fill-rule="evenodd" clip-rule="evenodd" d="M74.903 28a8 8 0 00-7.963 7.24L55.725 152.61c-.514 5.384-6.1 8.651-10.72 5.837a138.482 138.482 0 01-4.514-2.894.077.077 0 00-.117.085c1.684 5.807 5.623 10.747 10.34 14.773 1.849 1.579 2.937 3.913 2.705 6.334l-3.295 34.494c-.45 4.698 3.244 8.761 7.963 8.761H422.67a8 8 0 007.963-7.239l16.816-176c.449-4.698-3.244-8.761-7.963-8.761H74.903z" fill="#FFF0CB"/></g><defs><filter id="filter0_di_1419_53331" x=".371" y="0" width="487.115" height="272" filterUnits="userSpaceOnUse" color-interpolation-filters="sRGB"><feFlood flood-opacity="0" result="BackgroundImageFix"/><feColorMatrix in="SourceAlpha" values="0 0 0 0 0 0 0 0 0 0 0 0 0 0 0 0 0 0 127 0" result="hardAlpha"/><feOffset dy="12"/><feGaussianBlur stdDeviation="20"/><feComposite in2="hardAlpha" operator="out"/><feColorMatrix values="0 0 0 0 1 0 0 0 0 1 0 0 0 0 1 0 0 0 1 0"/><feBlend in2="BackgroundImageFix" result="effect1_dropShadow_1419_53331"/><feBlend in="SourceGraphic" in2="effect1_dropShadow_1419_53331" result="shape"/><feColorMatrix in="SourceAlpha" values="0 0 0 0 0 0 0 0 0 0 0 0 0 0 0 0 0 0 127 0" result="hardAlpha"/><feOffset dy="-4"/><feGaussianBlur stdDeviation="4"/><feComposite in2="hardAlpha" operator="arithmetic" k2="-1" k3="1"/><feColorMatrix values="0 0 0 0 0.883659 0 0 0 0 0.635314 0 0 0 0 0.0558422 0 0 0 0.4 0"/><feBlend in2="shape" result="effect2_innerShadow_1419_53331"/></filter></defs></svg>