<svg width="566" height="288" viewBox="0 0 566 288" fill="none" xmlns="http://www.w3.org/2000/svg"><g filter="url(#filter0_di_1495_64837)"><path fill-rule="evenodd" clip-rule="evenodd" d="M67.99 28a8 8 0 00-7.957 7.172l-19.99 192c-.49 4.72 3.212 8.828 7.958 8.828h433.258a8 8 0 007.957-7.172l4.804-46.143c.432-4.147 4.006-7.329 8.084-6.461 10.46 2.226 19.273 8.059 23.681 10.977.06.04.137-.017.117-.086-3.201-11.039-14.552-18.949-23.905-23.392-3.315-1.575-5.484-4.977-5.104-8.627l12.313-118.268c.491-4.72-3.211-8.828-7.957-8.828H67.99z" fill="#FFF0CB"/></g><defs><filter id="filter0_di_1495_64837" x="0" y="0" width="565.906" height="288" filterUnits="userSpaceOnUse" color-interpolation-filters="sRGB"><feFlood flood-opacity="0" result="BackgroundImageFix"/><feColorMatrix in="SourceAlpha" values="0 0 0 0 0 0 0 0 0 0 0 0 0 0 0 0 0 0 127 0" result="hardAlpha"/><feOffset dy="12"/><feGaussianBlur stdDeviation="20"/><feComposite in2="hardAlpha" operator="out"/><feColorMatrix values="0 0 0 0 1 0 0 0 0 1 0 0 0 0 1 0 0 0 1 0"/><feBlend in2="BackgroundImageFix" result="effect1_dropShadow_1495_64837"/><feBlend in="SourceGraphic" in2="effect1_dropShadow_1495_64837" result="shape"/><feColorMatrix in="SourceAlpha" values="0 0 0 0 0 0 0 0 0 0 0 0 0 0 0 0 0 0 127 0" result="hardAlpha"/><feOffset dy="-4"/><feGaussianBlur stdDeviation="4"/><feComposite in2="hardAlpha" operator="arithmetic" k2="-1" k3="1"/><feColorMatrix values="0 0 0 0 0.883659 0 0 0 0 0.635314 0 0 0 0 0.0558422 0 0 0 0.4 0"/><feBlend in2="shape" result="effect2_innerShadow_1495_64837"/></filter></defs></svg>