<svg width="554" height="252" viewBox="0 0 554 252" fill="none" xmlns="http://www.w3.org/2000/svg"><g filter="url(#filter0_di_1419_53417)"><path fill-rule="evenodd" clip-rule="evenodd" d="M67.642 28a8 8 0 00-7.937 7L40.064 191.002C39.462 195.778 43.186 200 48 200h433.22a8 8 0 007.937-7.001l2.356-18.712c.593-4.711 5.156-7.883 9.588-6.178 5.275 2.029 9.55 4.369 12.216 5.828.061.033.132-.026.109-.092-2.164-6.144-8.019-11.114-14.467-14.826-3.015-1.736-4.891-5.024-4.457-8.476l14.296-113.544c.601-4.777-3.123-8.999-7.938-8.999H67.642z" fill="#FFF0CB"/></g><defs><filter id="filter0_di_1419_53417" x="0" y="0" width="553.43" height="252" filterUnits="userSpaceOnUse" color-interpolation-filters="sRGB"><feFlood flood-opacity="0" result="BackgroundImageFix"/><feColorMatrix in="SourceAlpha" values="0 0 0 0 0 0 0 0 0 0 0 0 0 0 0 0 0 0 127 0" result="hardAlpha"/><feOffset dy="12"/><feGaussianBlur stdDeviation="20"/><feComposite in2="hardAlpha" operator="out"/><feColorMatrix values="0 0 0 0 1 0 0 0 0 1 0 0 0 0 1 0 0 0 1 0"/><feBlend in2="BackgroundImageFix" result="effect1_dropShadow_1419_53417"/><feBlend in="SourceGraphic" in2="effect1_dropShadow_1419_53417" result="shape"/><feColorMatrix in="SourceAlpha" values="0 0 0 0 0 0 0 0 0 0 0 0 0 0 0 0 0 0 127 0" result="hardAlpha"/><feOffset dy="-4"/><feGaussianBlur stdDeviation="4"/><feComposite in2="hardAlpha" operator="arithmetic" k2="-1" k3="1"/><feColorMatrix values="0 0 0 0 0.883659 0 0 0 0 0.635314 0 0 0 0 0.0558422 0 0 0 0.4 0"/><feBlend in2="shape" result="effect2_innerShadow_1419_53417"/></filter></defs></svg>