<svg width="93" height="36" viewBox="0 0 93 36" fill="none" xmlns="http://www.w3.org/2000/svg"><path d="M69.23 10.26c-1.223-.295-3.01-.56-4.408.522-1.734 1.343-1.764 3.71-1.81 7.293l-.01.755c-.02 1.284.063 5.752 2.736 6.74.291.108.588.25.97.261.335.058.653.079.93.096.14.009.29.018.457.032.21.018.492.041.818.041.929 0 2.307-.427 3.103-1.6.407-.6.634-1.353.106-3.57-.251-1.053-1.115-1.394-2.156-1.124-1.042.268-1.413 1.096-1.15 2.144.203.804-.816.828-1.216.744a1.066 1.066 0 01-.367-.127c-.115-.27-.546-1.818-.58-2.995h2.13c.025 0 .05 0 .076-.002 1.108-.045 3.372-.81 4.005-3.38.633-2.577-1-5.194-3.633-5.83zm.064 5.06c-.034.141-.114.465-.521.53l-2.065.004c.043-1.016.128-1.893.312-2.224.128-.018.488-.036 1.246.149.732.178 1.193.87 1.028 1.542zM92.448 2.579c-.469-.451-1.16-.658-1.844-.552-2.446.38-14.605 2.537-15.742 8.141-.672 3.312.44 4.95 2.132 6.749-1.463.69-2.182 1.108-2.69 2.28-.58 1.339-.533 4.342 1.99 7.468.384.476.969.735 1.571.755a2.2 2.2 0 001.302-.37c.918-.618 1.118-1.793.446-2.624-1.079-1.332-1.826-2.37-1.577-3.944.098-.616 1.138-1.157 2.853-.86 1.245.233 1.778.498 2.2.794-.783 2.054-1.226 4.255-2.001 6.19-.302.754-.007 1.598.715 2.062 1.06.682 2.544.269 3.002-.831 5.633-13.517 8.325-24.275 8.14-23.556a1.739 1.739 0 00-.497-1.702zM84.42 16.83c-.591-.164-1.99-.616-3.245-1.498-1.952-1.371-2.732-2.283-2.271-4.545.323-1.586 4.558-3.36 9.172-4.43-.74 2.518-1.927 5.673-3.656 10.473zm-50.648 8.545c-.082-.003.089.017 0 0zm15.151-8.008c-1.054.19-2.028 1.294-1.876 2.43.05.38.195.941.2 1.08.007.197-.16.358-.37.357-.17-.001-.585.004-.763 0a.481.481 0 01-.475-.397c-.09-.612-.086-1.936-.16-3.252-.05-.887-.185-3.268.02-4.416.058-.317.395-.733.737-.682l.015.003c.323.05.75.415.74.72-.014.408-.254.958-.277 1.218-.103 1.149.672 2.148 1.732 2.232 1.066.087 2.207-.81 2.31-1.962.144-1.602.241-4.907-2.325-5.751-.82-.27-3.307-1.088-5.12.48-1.893 1.636-1.878 4.687-1.662 8.508.158 2.804.335 4.327.909 5.39.867 1.606 2.308 1.675 3.362 1.725l.197.01c.086.004.184.01.293.013.875.028 2.43-.043 3.525-1.344 1.245-1.48 1.251-3.153 1.055-4.62-.152-1.138-1.01-1.932-2.067-1.742zm10.182.42c-1.063.28-1.477 1.149-1.222 2.24.18.77.104 1.065.086 1.288-.445.645-1.318.6-1.525.242-.08-.36-.086-1.49-.137-3.084l-.004-.132c-.046-1.435-.11-3.42.058-4.545.074-.49.587-.85 1.145-.78h.014c.123.017.214.113.214.222 0 .406-.17.943-.263 1.26-.583 1.989.625 2.544 1.717 2.592 1.095.049 2.031-.827 2.094-1.955l.028-.44c.109-1.65.312-4.722-2.215-5.432-.776-.217-3.131-.878-4.916.588-2.04 1.676-1.942 4.767-1.816 8.68l.004.132c.088 2.748.33 4.062.926 5.02.898 1.446 2.315 1.536 3.254 1.594.144.01.297.019.466.033.214.019.503.044.836.043.948 0 2.355-.444 3.168-1.662.416-.624.829-2.434.29-4.737-.256-1.094-1.138-1.447-2.202-1.167z" fill="#fff"/><path d="M33.772 25.375c-.082-.003.089.017 0 0zM26.431 5.23a1.5 1.5 0 00-1.025-1.204l.638-1.304a.47.47 0 00-.22-.63.48.48 0 00-.638.219l-.842 1.719-.453.08-.155-1.183a.477.477 0 00-.946.12l.45 3.44a.475.475 0 00.534.407.472.472 0 00.412-.528l-.172-1.32.799-.141a.563.563 0 01.675.463l.116.783a.475.475 0 00.54.398.472.472 0 00.403-.534l-.116-.784zm34.481-3.935a.481.481 0 00-.668.092L59.097 2.89l-.848-.044.14-1.373a.473.473 0 00-.426-.516.475.475 0 00-.522.421l-.393 3.832a.473.473 0 00.475.52c.242 0 .45-.182.474-.425l.156-1.52.949.049a.674.674 0 01.664.725l-.075.876a.473.473 0 00.475.512.475.475 0 00.475-.432l.075-.876a1.606 1.606 0 00-.663-1.437l.952-1.246a.467.467 0 00-.093-.66zM30.074 3.168a1.636 1.636 0 00-.584-1.128 1.68 1.68 0 00-1.22-.39l-.172.013a1.663 1.663 0 00-1.534 1.782l.09 1.124a1.673 1.673 0 001.803 1.518l.172-.013a1.67 1.67 0 001.141-.577c.29-.337.43-.765.394-1.206l-.09-1.123zm-1.029 1.718a.72.72 0 01-.49.248l-.173.013a.719.719 0 01-.776-.653l-.091-1.124a.701.701 0 01.17-.519.72.72 0 01.49-.248l.173-.014a.72.72 0 01.776.653l.09 1.125a.704.704 0 01-.169.519zM50.606.046a2.099 2.099 0 00-1.569.576c-.424.397-.677.94-.711 1.53l-.05.837a2.26 2.26 0 00.528 1.602 2.096 2.096 0 001.613.755c.623 0 1.21-.275 1.625-.766a.468.468 0 00-.06-.665.48.48 0 00-.672.06 1.167 1.167 0 01-.96.426 1.148 1.148 0 01-.815-.415 1.324 1.324 0 01-.309-.85l2.5.15a.826.826 0 00.602-.208.857.857 0 00.291-.597l.005-.082c.072-1.228-.833-2.284-2.018-2.353zm1.066 2.293l-2.393-.143c.023-.345.17-.66.414-.89a1.16 1.16 0 01.858-.318c.657.038 1.16.643 1.121 1.351zM33.775 4.26a.481.481 0 00-.664.121.935.935 0 01-.74.404.933.933 0 01-.974-.894l-.034-.89a.934.934 0 01.904-.964.944.944 0 01.665.239.481.481 0 00.673-.034.467.467 0 00-.034-.666 1.894 1.894 0 00-1.34-.48 1.883 1.883 0 00-1.82 1.941l.033.89c.02.5.234.962.605 1.302a1.893 1.893 0 001.359.498 1.907 1.907 0 001.49-.811.468.468 0 00-.123-.656zM55.207.54a1.986 1.986 0 00-1.48.466 2.051 2.051 0 00-.721 1.377l-.098.994c-.053.54.103 1.07.44 1.489a1.978 1.978 0 001.55.747 2.02 2.02 0 001.505-.682.468.468 0 00-.044-.665.48.48 0 00-.673.044 1.03 1.03 0 01-1.59-.03 1.111 1.111 0 01-.238-.81l.098-.995a1.11 1.11 0 01.39-.75 1.029 1.029 0 011.468.13.48.48 0 00.67.067.468.468 0 00.069-.663A1.98 1.98 0 0055.207.54zM37.94.533a.478.478 0 00-.528.294l-1.111 2.841-1.184-2.562a.479.479 0 00-.541-.263.473.473 0 00-.369.472l.103 3.732a.474.474 0 00.476.458h.014a.475.475 0 00.464-.484l-.04-1.415.68 1.47c.08.173.257.279.448.276a.476.476 0 00.43-.301l.646-1.65.03 1.536a.474.474 0 00.477.462h.01a.474.474 0 00.467-.48L38.335.987a.475.475 0 00-.395-.454zm4.87-.488a.474.474 0 00-.476.471v3.601c-.4.13-1.248.296-1.855.067a.911.911 0 01-.563-.534V.845a.474.474 0 00-.477-.472.474.474 0 00-.477.472v2.887c0 .05.008.101.025.15.23.684.757 1.13 1.526 1.292a3.3 3.3 0 00.674.064c.875 0 1.77-.28 1.976-.504a.47.47 0 00.124-.317v-3.9a.474.474 0 00-.477-.472zm4.49.001a.472.472 0 00-.49.458l-.075 2.551h-1.018a.84.84 0 01-.597-.241.813.813 0 01-.264-.582l.01-1.758A.474.474 0 0044.39 0a.48.48 0 00-.48.47l-.01 1.757c-.001.464.2.925.556 1.264a1.794 1.794 0 001.278.506h.972l-.024.82c-.008.26.2.478.462.486h.014a.474.474 0 00.477-.458l.127-4.314A.473.473 0 0047.3.046zm16.91 1.75c-.58-.3-1.48-.393-2.265.246a.467.467 0 00-.065.664.48.48 0 00.671.064 1.093 1.093 0 011.217-.138c.26.134.37.321.364.406a14.88 14.88 0 01-.021.234c-1.114-.224-1.864-.168-2.345.17-.305.214-.488.54-.528.94-.097.958.623 1.74 1.712 1.86.15.017.292.024.424.024.703 0 1.124-.203 1.177-.23a.47.47 0 00.255-.365c.008-.074.216-1.835.276-2.556.042-.506-.3-1.023-.872-1.319zm-.316 3.47a2.48 2.48 0 01-.838.038c-.563-.062-.913-.395-.87-.829.017-.164.076-.226.133-.266.072-.05.245-.128.627-.128.253 0 .598.034 1.067.133l-.12 1.053zm5.052-2.8c-.763-.406-2.255-.818-3 .215-.406.56-.523 1.189-.331 1.77.08.243.21.46.376.642l-.528.584a.468.468 0 00.038.666.48.48 0 00.673-.037l.642-.71c.416.121.833.164 1.115.178l-.058.543a.474.474 0 00.475.522c.24 0 .448-.18.474-.422l.373-3.485a.472.472 0 00-.249-.466zm-.914 2.368a3.91 3.91 0 01-1.027-.167.79.79 0 01-.483-.507c-.068-.205-.088-.533.2-.931.135-.187.357-.252.599-.252.31 0 .654.106.888.196l-.177 1.661z" fill="#fff"/><path fill-rule="evenodd" clip-rule="evenodd" d="M38.22 9.082c.893.165 1.554.944 1.6 1.879.049 1.01.109 3.198.18 5.747l.004.164c.057 2.133.118 4.338.18 6.173.038 1.133-.827 2.099-1.93 2.156-1.106.058-2.026-.813-2.064-1.944a273.87 273.87 0 01-.067-2.855c-.017-.871-.035-1.733-.052-2.353-.259.547-.827 1.98-1.336 3.263-.444 1.12-.843 2.125-.951 2.327-.25.467-.797 1.188-1.56 1.536-.23-1.367-.716-2.333-1.307-3.01a4.153 4.153 0 00-1.466-1.085c-.134-2.52-.225-6.154-.068-9.621.051-1.128.978-2.022 2.071-1.997 1.095.025 1.941.962 1.89 2.092-.021.462-.06 1.124-.105 1.857-.093 1.539-.205 3.392-.2 4.376.05-.106.564-1.451 1.137-2.952.737-1.928 1.572-4.114 1.648-4.261.225-.437.912-1.766 2.396-1.492zm-8.654 13.78c.02.27.042.508.062.71a2.03 2.03 0 00.847 1.483c-.148-.991-.396-1.613-.773-2.044a4.893 4.893 0 00-.136-.15zM2.432 2.898c1.523-1.042 3.544-1.023 6.011.062 4.253 1.87 6.38 6.077 7.155 9.963-.275.434-.478.807-.568 1.037-.15.387-.17.829-.152 1.182.017.359.075.692.128.904l1.011 4.622.022 1.162a3.615 3.615 0 00-1.234 1.412c-.5.997-.724 2.438-.435 4.55.009.068.03.133.062.193-.54.25-1.13.376-1.628.467a5.681 5.681 0 01-1.404.077c-1.32-.088-2.697-.287-4-1.203C4.004 24.939.745 18.87.225 13.773-.4 7.636.258 4.386 2.432 2.898zM15.99 26.173a3.42 3.42 0 00.087-.738c.003-.154.003-.34.003-.555a7.185 7.185 0 00-.09 1.293zm-3.943-1.223c.278-.041.52-.077.589-.401.112-.532.018-3.288-.06-5.61-.034-1-.065-1.919-.076-2.544-.076-4.344-2.008-8.642-5.69-10.27-.796-.353-1.384-.496-1.779-.517-.255-.015-.429.023-.524.088-.313.214-1.286 1.397-.645 7.655.51 4.992 3.201 9.383 5.251 10.82.937.656 2.098.93 2.776.805.053-.01.106-.018.158-.026z" fill="#fff"/><path fill-rule="evenodd" clip-rule="evenodd" d="M27.367 30.095c-.201.453-.282.947-.206 1.357.185 1.007 2.806 3.16 2.806 3.16s1.67-2.76 1.485-3.767a2.014 2.014 0 00-.1-.35 9.124 9.124 0 01-1.436.193c-.583.022-1.526.005-2.549-.593zm2.836-1.008a5.112 5.112 0 01-.347.026c-.358.014-.84.013-1.385-.223.14-.065.29-.11.446-.133.449-.063.895.077 1.286.33z" fill="url(#paint0_linear_1360_40560)"/><path d="M27.37 23.935l-.032-2.228.396-.268c1.7.487 2.435 1.727 2.83 3.037l.611 4.126c.107.356-.026.643-.43.738l-.6.167c-1.023.239-2.274-.208-2.996-1.44-.38-.649-.44-1.962-.583-2.436.714-.382.824-.962.804-1.696z" fill="#fff"/><path fill-rule="evenodd" clip-rule="evenodd" d="M18.919 29.511a1.942 1.942 0 00-1.13-.201c-.465.066-.87.324-1.19.679.227.036.515.07.767.07.266 0 .565-.017.895-.146a2.33 2.33 0 00.658-.402zm1.19 1.05a3.966 3.966 0 01-1.276.82 3.917 3.917 0 01-1.467.254 7.264 7.264 0 01-1.49-.183 2.297 2.297 0 00-.018.841c.204 1.116 3.087 3.5 3.087 3.5s1.837-3.057 1.633-4.172a2.789 2.789 0 00-.47-1.06z" fill="url(#paint1_linear_1360_40560)"/><path d="M18.821 24.315l-.405-2.024-.52-.225c-1.566.761-1.917 2.062-2.022 3.414l.228 4.29c-.029.366.164.627.581.652l.624.064c1.057.064 2.189-.582 2.633-1.913.233-.7.07-2.135.108-2.624-.784-.257-1.089-.91-1.227-1.634z" fill="#fff"/><path fill-rule="evenodd" clip-rule="evenodd" d="M27.356 25.172c-2.486 1.331-6.056 1.389-8.758.452l-2.104-10.642c-.115-1.261 2.297-4.658 4.89-5.433 2.607.352 5.83 2.565 6.143 4.506l.273 10.08-.444 1.037zm-4.512-2.764c1.819-.09 3.135-2.093 2.94-4.475-.196-2.382-2.099-5.26-3.917-5.17-1.82.09-2.866 3.113-2.67 5.495.195 2.382 1.828 4.24 3.647 4.15z" fill="#fff"/><path fill-rule="evenodd" clip-rule="evenodd" d="M25.635 24.694c.266-.07.522.13.502.4l-.015.207-.003.006-.036-.016.036.016-.001.002-.003.007a.77.77 0 01-.059.104 1.893 1.893 0 01-1.12.805l-.02-.076a1.814 1.814 0 001.073-.77 1.188 1.188 0 00.055-.098l.014-.193c.016-.212-.185-.376-.403-.318-.218.058-1.348.303-2.462.377a15.197 15.197 0 01-2.44-.051.317.317 0 00-.362.37l.038.186.017.019a2.066 2.066 0 00.358.3c.258.17.651.357 1.188.414l-.008.078a2.712 2.712 0 01-1.224-.427 2.157 2.157 0 01-.373-.313 1.01 1.01 0 01-.023-.027l-.002-.002.03-.025-.03.025-.006-.008-.042-.205a.395.395 0 01.448-.464c.22.028 1.319.125 2.426.051a16.03 16.03 0 002.447-.374z" fill="#2E0D6F"/><path fill-rule="evenodd" clip-rule="evenodd" d="M19.791 22.063a.858.858 0 01.852.755 804.32 804.32 0 00.227 2.045l.018.162.006.058-.039.005-.04.004-.006-.058-.018-.162a2569.294 2569.294 0 01-.226-2.045.78.78 0 00-.774-.686h-.007v-.078h.008z" fill="#2E0D6F"/><path d="M19.805 22.097c.01.072-.033.136-.096.143-.062.006-.12-.047-.13-.12-.01-.072.032-.136.094-.143.063-.006.122.047.132.12z" fill="#2E0D6F"/><path fill-rule="evenodd" clip-rule="evenodd" d="M26.01 21.66a.779.779 0 00-.618.826 694.387 694.387 0 01.192 2.043l.015.162.006.058-.04.004-.039.004-.005-.059-.015-.161a939.24 939.24 0 00-.193-2.043.857.857 0 01.68-.91l.005-.002H26l.02.076-.008.002z" fill="#2E0D6F"/><path d="M25.988 21.62c.005.073.06.127.122.12.062-.005.109-.07.104-.142-.005-.073-.06-.127-.122-.12-.063.005-.11.07-.104.142zm-7.628-7.756c.149-.024.241-.217.207-.43-.035-.215-.184-.369-.333-.345-.149.024-.242.217-.207.431.034.214.183.368.332.344zm7.11-.794c.15-.025.242-.218.208-.432-.035-.214-.184-.368-.333-.344-.149.024-.242.217-.207.431.034.214.183.368.332.344z" fill="#2E0D6F"/><path fill-rule="evenodd" clip-rule="evenodd" d="M22.971 22.389l.26 2.713-.08.008-.258-2.714.078-.007zm.151-12.849l.036.015.036.016v.002l-.003.005a3.492 3.492 0 01-.043.093c-.03.06-.07.142-.117.229-.047.086-.1.178-.155.258a.8.8 0 01-.165.188l-.023.017-.024-.018c-.348-.27-.825-.37-1.27-.335-.447.036-.85.206-1.055.463l-.014.017-.023-.003.006-.039-.006.04H20.3l-.005-.002-.018-.003a1.443 1.443 0 01-.286-.086c-.17-.07-.37-.194-.483-.409l.07-.036c.1.19.282.306.443.373a1.368 1.368 0 00.27.08c.228-.269.648-.438 1.096-.473.449-.036.936.06 1.3.332a.87.87 0 00.124-.151 2.92 2.92 0 00.15-.25 5.218 5.218 0 00.15-.298l.008-.02.002-.004v-.002h.001z" fill="#2E0D6F"/><path fill-rule="evenodd" clip-rule="evenodd" d="M21.618 13.143l-.197-3.152.079-.005.197 3.152-.079.005zm6.066 13.909c-.1.203-.14.47-.094.751.046.282.168.523.325.684.158.162.35.242.537.211.188-.03.344-.166.443-.369.1-.203.139-.47.093-.751a1.272 1.272 0 00-.325-.684c-.157-.161-.349-.241-.536-.21-.188.03-.344.165-.443.368zm-.071-.035c.107-.218.281-.376.501-.412.22-.035.435.06.606.234.17.174.298.43.346.727.048.296.007.579-.1.798-.107.219-.282.377-.501.412-.22.036-.436-.06-.606-.234a1.351 1.351 0 01-.346-.726 1.35 1.35 0 01.1-.799zm-9.636 2.097c.112.197.276.323.466.341.189.019.375-.073.522-.244.148-.17.254-.418.282-.702a1.272 1.272 0 00-.14-.744c-.111-.197-.276-.323-.465-.341-.189-.019-.375.073-.523.244-.147.17-.253.418-.281.702-.028.285.028.548.14.744zm-.068.04a1.35 1.35 0 01-.15-.791 1.35 1.35 0 01.3-.747c.16-.184.37-.292.59-.27.223.021.407.168.527.38.12.212.179.492.15.79a1.35 1.35 0 01-.301.747c-.16.184-.368.292-.59.27-.222-.021-.406-.168-.526-.38z" fill="#2E0D6F"/><defs><linearGradient id="paint0_linear_1360_40560" x1="29.457" y1="29.156" x2="29.299" y2="34.71" gradientUnits="userSpaceOnUse"><stop stop-color="#fff"/><stop offset="1" stop-color="#fff" stop-opacity="0"/></linearGradient><linearGradient id="paint1_linear_1360_40560" x1="18.231" y1="30.16" x2="18.664" y2="36.088" gradientUnits="userSpaceOnUse"><stop stop-color="#fff"/><stop offset="1" stop-color="#fff" stop-opacity="0"/></linearGradient></defs></svg>