<svg width="492" height="264" viewBox="0 0 492 264" fill="none" xmlns="http://www.w3.org/2000/svg"><g filter="url(#filter0_di_1419_51350)"><path fill-rule="evenodd" clip-rule="evenodd" d="M87.19 28a8 8 0 00-7.963 7.224l-11.93 122.429c-.286 2.927-2.17 5.429-4.798 6.75-9.05 4.548-19.454 12.216-22.496 22.713a.077.077 0 00.117.085c3.175-2.104 8.639-5.723 15.357-8.413 4.896-1.96 9.538 2.275 9.026 7.524l-1.648 16.912c-.458 4.703 3.238 8.776 7.962 8.776h355.994a8 8 0 007.962-7.224l16.372-168c.458-4.703-3.238-8.776-7.963-8.776H87.189z" fill="#FFF0CB"/></g><defs><filter id="filter0_di_1419_51350" x="0" y="0" width="491.184" height="264" filterUnits="userSpaceOnUse" color-interpolation-filters="sRGB"><feFlood flood-opacity="0" result="BackgroundImageFix"/><feColorMatrix in="SourceAlpha" values="0 0 0 0 0 0 0 0 0 0 0 0 0 0 0 0 0 0 127 0" result="hardAlpha"/><feOffset dy="12"/><feGaussianBlur stdDeviation="20"/><feComposite in2="hardAlpha" operator="out"/><feColorMatrix values="0 0 0 0 1 0 0 0 0 1 0 0 0 0 1 0 0 0 1 0"/><feBlend in2="BackgroundImageFix" result="effect1_dropShadow_1419_51350"/><feBlend in="SourceGraphic" in2="effect1_dropShadow_1419_51350" result="shape"/><feColorMatrix in="SourceAlpha" values="0 0 0 0 0 0 0 0 0 0 0 0 0 0 0 0 0 0 127 0" result="hardAlpha"/><feOffset dy="-4"/><feGaussianBlur stdDeviation="4"/><feComposite in2="hardAlpha" operator="arithmetic" k2="-1" k3="1"/><feColorMatrix values="0 0 0 0 0.883659 0 0 0 0 0.635314 0 0 0 0 0.0558422 0 0 0 0.4 0"/><feBlend in2="shape" result="effect2_innerShadow_1419_51350"/></filter></defs></svg>