<svg width="463" height="251" viewBox="0 0 463 251" fill="none" xmlns="http://www.w3.org/2000/svg"><g filter="url(#filter0_di_1419_51568)"><path fill-rule="evenodd" clip-rule="evenodd" d="M74.467 28a8 8 0 00-7.969 7.288l-1.512 16.935c-.255 2.85-2.03 5.315-4.543 6.684-8.515 4.64-17.626 11.925-20.44 21.628-.02.07.057.126.117.086 2.79-1.847 7.345-4.861 12.964-7.39 4.936-2.221 9.847 1.995 9.366 7.386l-11.672 130.67c-.418 4.681 3.27 8.712 7.968 8.712h339.787a8 8 0 007.969-7.288l15.72-176c.418-4.68-3.269-8.712-7.968-8.712H74.467z" fill="#FFF0CB"/></g><defs><filter id="filter0_di_1419_51568" x="0" y="0" width="462.254" height="272" filterUnits="userSpaceOnUse" color-interpolation-filters="sRGB"><feFlood flood-opacity="0" result="BackgroundImageFix"/><feColorMatrix in="SourceAlpha" values="0 0 0 0 0 0 0 0 0 0 0 0 0 0 0 0 0 0 127 0" result="hardAlpha"/><feOffset dy="12"/><feGaussianBlur stdDeviation="20"/><feComposite in2="hardAlpha" operator="out"/><feColorMatrix values="0 0 0 0 1 0 0 0 0 1 0 0 0 0 1 0 0 0 1 0"/><feBlend in2="BackgroundImageFix" result="effect1_dropShadow_1419_51568"/><feBlend in="SourceGraphic" in2="effect1_dropShadow_1419_51568" result="shape"/><feColorMatrix in="SourceAlpha" values="0 0 0 0 0 0 0 0 0 0 0 0 0 0 0 0 0 0 127 0" result="hardAlpha"/><feOffset dy="-4"/><feGaussianBlur stdDeviation="4"/><feComposite in2="hardAlpha" operator="arithmetic" k2="-1" k3="1"/><feColorMatrix values="0 0 0 0 0.883659 0 0 0 0 0.635314 0 0 0 0 0.0558422 0 0 0 0.4 0"/><feBlend in2="shape" result="effect2_innerShadow_1419_51568"/></filter></defs></svg>