<svg width="552" height="264" viewBox="0 0 552 264" fill="none" xmlns="http://www.w3.org/2000/svg"><g filter="url(#filter0_di_1495_76176)"><path fill-rule="evenodd" clip-rule="evenodd" d="M67.563 28a8 8 0 00-7.946 7.075l-19.562 168C39.5 207.828 43.216 212 48 212h428.467a8 8 0 007.946-7.075c.521-4.474 4.669-7.661 8.939-6.225 8.069 2.714 14.691 7.097 18.323 9.501.06.04.136-.016.116-.085-2.739-9.449-11.45-16.605-19.767-21.257-3.033-1.697-4.929-4.971-4.527-8.423l16.478-141.51c.554-4.754-3.161-8.926-7.946-8.926H67.563z" fill="#FFF0CB"/></g><defs><filter id="filter0_di_1495_76176" x="0" y="0" width="551.797" height="264" filterUnits="userSpaceOnUse" color-interpolation-filters="sRGB"><feFlood flood-opacity="0" result="BackgroundImageFix"/><feColorMatrix in="SourceAlpha" values="0 0 0 0 0 0 0 0 0 0 0 0 0 0 0 0 0 0 127 0" result="hardAlpha"/><feOffset dy="12"/><feGaussianBlur stdDeviation="20"/><feComposite in2="hardAlpha" operator="out"/><feColorMatrix values="0 0 0 0 1 0 0 0 0 1 0 0 0 0 1 0 0 0 1 0"/><feBlend in2="BackgroundImageFix" result="effect1_dropShadow_1495_76176"/><feBlend in="SourceGraphic" in2="effect1_dropShadow_1495_76176" result="shape"/><feColorMatrix in="SourceAlpha" values="0 0 0 0 0 0 0 0 0 0 0 0 0 0 0 0 0 0 127 0" result="hardAlpha"/><feOffset dy="-4"/><feGaussianBlur stdDeviation="4"/><feComposite in2="hardAlpha" operator="arithmetic" k2="-1" k3="1"/><feColorMatrix values="0 0 0 0 0.883659 0 0 0 0 0.635314 0 0 0 0 0.0558422 0 0 0 0.4 0"/><feBlend in2="shape" result="effect2_innerShadow_1495_76176"/></filter></defs></svg>