<svg width="525" height="464" viewBox="0 0 525 464" fill="none" xmlns="http://www.w3.org/2000/svg"><g filter="url(#filter0_di_1464_63067)"><path fill-rule="evenodd" clip-rule="evenodd" d="M63.52 118.491c-14.742-26.008 7.464-73.678 52.396-85.715 37.095-9.939 134.529-3.003 165.057 8.341 38.397 14.269 50.356 39.618 28.285 68.616-22.544 29.619-94.963 26.282-143.439 24.048l-1.547-.071c-13.25-.609-25.944-.188-37.648.2-29.913.992-53.361 1.769-63.104-15.419zm12.992 273.227c2.027 2.361 2.821 5.685 1.171 8.323-2.01 3.216-4.55 5.657-7.588 8.576l-.003.003c-.398.383-.194 1.044.358 1.088 4.265.339 8.697-1.406 12.469-3.724 2.996-1.841 6.828-1.981 9.836-.161a52.59 52.59 0 003.35 1.867c15.242 7.776 64.441 2.33 106.338-2.309 19.465-2.155 37.354-4.135 49.529-4.534 13.458-.441 31.741.738 51.204 1.993 35.946 2.317 75.918 4.894 96.953-1.993C457.803 381.963 485 348.954 485 273.799c0-75.154-44.464-113.551-76.696-126.145-24.398-9.534-103.772-5.635-160.68-2.839-23.688 1.163-43.483 2.135-53.8 1.868-7.6-.196-15.912-.767-24.552-1.36-34.924-2.399-75.194-5.164-95.354 14.925-49.518 49.342-41.495 180.107 2.594 231.47z" fill="#fff"/></g><defs><filter id="filter0_di_1464_63067" x="0" y="0" width="525" height="463.603" filterUnits="userSpaceOnUse" color-interpolation-filters="sRGB"><feFlood flood-opacity="0" result="BackgroundImageFix"/><feColorMatrix in="SourceAlpha" values="0 0 0 0 0 0 0 0 0 0 0 0 0 0 0 0 0 0 127 0" result="hardAlpha"/><feOffset dy="12"/><feGaussianBlur stdDeviation="20"/><feComposite in2="hardAlpha" operator="out"/><feColorMatrix values="0 0 0 0 0.909804 0 0 0 0 0.313726 0 0 0 0 0.470588 0 0 0 1 0"/><feBlend in2="BackgroundImageFix" result="effect1_dropShadow_1464_63067"/><feBlend in="SourceGraphic" in2="effect1_dropShadow_1464_63067" result="shape"/><feColorMatrix in="SourceAlpha" values="0 0 0 0 0 0 0 0 0 0 0 0 0 0 0 0 0 0 127 0" result="hardAlpha"/><feOffset dy="-4"/><feGaussianBlur stdDeviation="4"/><feComposite in2="hardAlpha" operator="arithmetic" k2="-1" k3="1"/><feColorMatrix values="0 0 0 0 0.909804 0 0 0 0 0.313726 0 0 0 0 0.470588 0 0 0 0.16 0"/><feBlend in2="shape" result="effect2_innerShadow_1464_63067"/></filter></defs></svg>