<svg width="468" height="449" viewBox="0 0 468 449" fill="none" xmlns="http://www.w3.org/2000/svg"><g filter="url(#filter0_di_1419_45715)"><path fill-rule="evenodd" clip-rule="evenodd" d="M59.517 118.491c-14.742-26.008 7.464-73.678 52.396-85.715 37.096-9.939 134.529-3.003 165.057 8.341 38.397 14.269 50.356 39.618 28.285 68.616-22.544 29.619-94.963 26.282-143.439 24.048l-1.546-.071c-13.25-.609-25.945-.188-37.649.2-29.913.992-53.361 1.769-63.104-15.419zm-.313 244.375c.903 1.702 1.248 3.652.74 5.51-2.159 7.886-5.822 11.407-10.848 16.237l-.004.004c-.398.383-.194 1.043.357 1.087 4.264.339 8.694-1.404 12.465-3.72 3.745-2.3 8.79-1.992 11.936 1.076 3.35 3.266 6.94 6.005 10.764 8.139 15.33 8.554 69.555 5.004 108.847 2.432 11.233-.736 21.246-1.391 28.781-1.661 11.883-.426 28.026.713 45.212 1.925 31.74 2.238 67.034 4.727 85.608-1.925 50.924-18.238 74.939-50.117 74.939-122.7-.001-72.582-39.261-109.665-67.722-121.828-21.542-9.207-91.628-5.442-141.877-2.742-20.915 1.124-38.394 2.063-47.504 1.805-7.006-.199-14.343-.791-21.772-1.39-28.451-2.296-58.24-4.7-75.847 14.49C33.128 203.366 30.406 308.6 59.204 362.866z" fill="#fff"/></g><defs><filter id="filter0_di_1419_45715" x="0" y="0" width="468" height="448.598" filterUnits="userSpaceOnUse" color-interpolation-filters="sRGB"><feFlood flood-opacity="0" result="BackgroundImageFix"/><feColorMatrix in="SourceAlpha" values="0 0 0 0 0 0 0 0 0 0 0 0 0 0 0 0 0 0 127 0" result="hardAlpha"/><feOffset dy="12"/><feGaussianBlur stdDeviation="20"/><feComposite in2="hardAlpha" operator="out"/><feColorMatrix values="0 0 0 0 0.909804 0 0 0 0 0.313726 0 0 0 0 0.470588 0 0 0 1 0"/><feBlend in2="BackgroundImageFix" result="effect1_dropShadow_1419_45715"/><feBlend in="SourceGraphic" in2="effect1_dropShadow_1419_45715" result="shape"/><feColorMatrix in="SourceAlpha" values="0 0 0 0 0 0 0 0 0 0 0 0 0 0 0 0 0 0 127 0" result="hardAlpha"/><feOffset dy="-4"/><feGaussianBlur stdDeviation="4"/><feComposite in2="hardAlpha" operator="arithmetic" k2="-1" k3="1"/><feColorMatrix values="0 0 0 0 0.909804 0 0 0 0 0.313726 0 0 0 0 0.470588 0 0 0 0.16 0"/><feBlend in2="shape" result="effect2_innerShadow_1419_45715"/></filter></defs></svg>