<svg width="501" height="466" viewBox="0 0 501 466" fill="none" xmlns="http://www.w3.org/2000/svg"><g filter="url(#filter0_di_1464_63111)"><path fill-rule="evenodd" clip-rule="evenodd" d="M60.516 119.49C45.773 93.48 67.98 45.812 112.91 33.774c37.096-9.939 134.529-3.003 165.057 8.342 38.397 14.268 50.356 39.618 28.285 68.615-22.544 29.619-94.962 26.282-143.439 24.048l-1.546-.071c-13.25-.609-25.944-.188-37.649.2-29.913.992-53.361 1.769-63.103-15.418zm2.491 260.46c1.002 1.758 1.396 3.807.844 5.754-2.17 7.656-5.8 11.146-10.756 15.909l-.004.004c-.398.383-.193 1.043.358 1.087 4.352.346 8.877-1.477 12.698-3.865 3.75-2.344 8.819-2.122 12.05.897 3.466 3.239 7.165 5.97 11.094 8.123 16.594 9.091 75.291 5.318 117.824 2.584 12.16-.781 22.999-1.478 31.154-1.765 12.864-.452 30.339.757 48.941 2.045 34.358 2.379 72.563 5.024 92.669-2.045 55.124-19.382 81.12-53.262 81.119-130.398 0-77.137-42.499-116.547-73.306-129.473-23.32-9.785-99.186-5.783-153.579-2.914-22.64 1.194-41.56 2.192-51.422 1.918-7.583-.211-15.526-.84-23.568-1.477-30.797-2.44-63.043-4.995-82.102 15.399C32.998 208.839 30.543 322.97 63.007 379.95z" fill="#fff"/></g><defs><filter id="filter0_di_1464_63111" x=".998" y=".998" width="500" height="464.598" filterUnits="userSpaceOnUse" color-interpolation-filters="sRGB"><feFlood flood-opacity="0" result="BackgroundImageFix"/><feColorMatrix in="SourceAlpha" values="0 0 0 0 0 0 0 0 0 0 0 0 0 0 0 0 0 0 127 0" result="hardAlpha"/><feOffset dy="12"/><feGaussianBlur stdDeviation="20"/><feComposite in2="hardAlpha" operator="out"/><feColorMatrix values="0 0 0 0 0.909804 0 0 0 0 0.313726 0 0 0 0 0.470588 0 0 0 1 0"/><feBlend in2="BackgroundImageFix" result="effect1_dropShadow_1464_63111"/><feBlend in="SourceGraphic" in2="effect1_dropShadow_1464_63111" result="shape"/><feColorMatrix in="SourceAlpha" values="0 0 0 0 0 0 0 0 0 0 0 0 0 0 0 0 0 0 127 0" result="hardAlpha"/><feOffset dy="-4"/><feGaussianBlur stdDeviation="4"/><feComposite in2="hardAlpha" operator="arithmetic" k2="-1" k3="1"/><feColorMatrix values="0 0 0 0 0.909804 0 0 0 0 0.313726 0 0 0 0 0.470588 0 0 0 0.16 0"/><feBlend in2="shape" result="effect2_innerShadow_1464_63111"/></filter></defs></svg>