<svg width="510" height="286" viewBox="0 0 510 286" fill="none" xmlns="http://www.w3.org/2000/svg"><g filter="url(#filter0_di_1464_62979)"><path fill-rule="evenodd" clip-rule="evenodd" d="M57.227 172.504c4.14-.467 8.313 1.612 10.08 5.384a90.003 90.003 0 003.718 7.093c26.072 44.778 111.174 46.446 183.35 47.812l.444.008c74.214 1.405 175.772 3.327 203.56-54.947 26.971-56.56 6.368-105.729-55.304-130.668-49.032-19.828-219.672-26.913-273.846-5.794-52.468 20.453-76.374 68.863-69.35 112.343.405 2.511-.23 5.146-2.125 6.842-5.214 4.663-10.245 6.145-16.795 8.074-.6.177-.732.952-.196 1.275 4.716 2.839 10.941 3.201 16.464 2.578z" fill="#fff"/></g><defs><filter id="filter0_di_1464_62979" x=".426" y=".562" width="509.574" height="284.705" filterUnits="userSpaceOnUse" color-interpolation-filters="sRGB"><feFlood flood-opacity="0" result="BackgroundImageFix"/><feColorMatrix in="SourceAlpha" values="0 0 0 0 0 0 0 0 0 0 0 0 0 0 0 0 0 0 127 0" result="hardAlpha"/><feOffset dy="12"/><feGaussianBlur stdDeviation="20"/><feComposite in2="hardAlpha" operator="out"/><feColorMatrix values="0 0 0 0 0.909804 0 0 0 0 0.313726 0 0 0 0 0.470588 0 0 0 1 0"/><feBlend in2="BackgroundImageFix" result="effect1_dropShadow_1464_62979"/><feBlend in="SourceGraphic" in2="effect1_dropShadow_1464_62979" result="shape"/><feColorMatrix in="SourceAlpha" values="0 0 0 0 0 0 0 0 0 0 0 0 0 0 0 0 0 0 127 0" result="hardAlpha"/><feOffset dy="-4"/><feGaussianBlur stdDeviation="4"/><feComposite in2="hardAlpha" operator="arithmetic" k2="-1" k3="1"/><feColorMatrix values="0 0 0 0 0.909804 0 0 0 0 0.313726 0 0 0 0 0.470588 0 0 0 0.16 0"/><feBlend in2="shape" result="effect2_innerShadow_1464_62979"/></filter></defs></svg>