<svg width="461" height="464" viewBox="0 0 461 464" fill="none" xmlns="http://www.w3.org/2000/svg"><g filter="url(#filter0_di_1419_45689)"><path fill-rule="evenodd" clip-rule="evenodd" d="M55.52 118.491c-14.741-26.008 7.465-73.678 52.396-85.715 37.096-9.939 134.53-3.003 165.057 8.341 38.397 14.269 50.357 39.618 28.285 68.616-22.544 29.619-94.962 26.282-143.438 24.048l-1.547-.071c-13.25-.609-25.944-.188-37.648.2-29.913.992-53.362 1.769-63.104-15.419zM70.158 390.18c1.5 2.137 2.079 4.854.967 7.217-2.182 4.641-5.213 7.553-9.028 11.22l-.004.004c-.398.383-.194 1.043.357 1.087 4.278.341 8.724-1.416 12.503-3.744 3.266-2.011 7.51-2.001 10.668.175a43.155 43.155 0 002.417 1.551c13.05 7.777 55.173 2.33 91.044-2.309 16.665-2.155 31.982-4.135 42.406-4.534 11.522-.441 27.176.738 43.839 1.993 30.777 2.317 65 4.894 83.01-1.993 49.379-18.884 72.665-51.893 72.664-127.048 0-75.154-38.069-113.551-65.665-126.145-20.889-9.533-88.848-5.635-137.571-2.839-20.281 1.163-37.229 2.136-46.063 1.868-6.506-.196-13.623-.767-21.02-1.36-29.901-2.398-64.38-5.164-81.64 14.925-41.98 48.857-35.658 177.544 1.116 229.932z" fill="#fff"/></g><defs><filter id="filter0_di_1419_45689" x="0" y="0" width="461" height="463.603" filterUnits="userSpaceOnUse" color-interpolation-filters="sRGB"><feFlood flood-opacity="0" result="BackgroundImageFix"/><feColorMatrix in="SourceAlpha" values="0 0 0 0 0 0 0 0 0 0 0 0 0 0 0 0 0 0 127 0" result="hardAlpha"/><feOffset dy="12"/><feGaussianBlur stdDeviation="20"/><feComposite in2="hardAlpha" operator="out"/><feColorMatrix values="0 0 0 0 0.909804 0 0 0 0 0.313726 0 0 0 0 0.470588 0 0 0 1 0"/><feBlend in2="BackgroundImageFix" result="effect1_dropShadow_1419_45689"/><feBlend in="SourceGraphic" in2="effect1_dropShadow_1419_45689" result="shape"/><feColorMatrix in="SourceAlpha" values="0 0 0 0 0 0 0 0 0 0 0 0 0 0 0 0 0 0 127 0" result="hardAlpha"/><feOffset dy="-4"/><feGaussianBlur stdDeviation="4"/><feComposite in2="hardAlpha" operator="arithmetic" k2="-1" k3="1"/><feColorMatrix values="0 0 0 0 0.909804 0 0 0 0 0.313726 0 0 0 0 0.470588 0 0 0 0.16 0"/><feBlend in2="shape" result="effect2_innerShadow_1419_45689"/></filter></defs></svg>