<svg width="672" height="424" viewBox="0 0 672 424" fill="none" xmlns="http://www.w3.org/2000/svg"><g filter="url(#filter0_di_1495_64103)"><path fill-rule="evenodd" clip-rule="evenodd" d="M278.547 34.34c-74.571-8.686-139.834-16.286-186.898 33.59-40.406 42.82-46.423 93.887-26.72 142.566 4.081 10.081 2.265 22.052-7.44 26.961-5.735 2.9-11.727 5.243-17.38 7.453a.171.171 0 00.022.326c11.75 2.923 23.242 2.042 33.225-.42 4.948-1.221 10.252.524 13.201 4.68 21.309 30.029 52.321 57.863 90.716 80.656 109.297 64.881 261.337 49.268 352.513-14.195 85.053-59.2 140.151-137.91 69.54-226.312-44.59-55.824-106.912-52.945-176.439-49.733-25.623 1.184-52.225 2.413-79.279.766-22.293-1.358-44.047-3.891-65.061-6.339z" fill="#fff"/></g><defs><filter id="filter0_di_1495_64103" x="0" y="0" width="671.633" height="423.826" filterUnits="userSpaceOnUse" color-interpolation-filters="sRGB"><feFlood flood-opacity="0" result="BackgroundImageFix"/><feColorMatrix in="SourceAlpha" values="0 0 0 0 0 0 0 0 0 0 0 0 0 0 0 0 0 0 127 0" result="hardAlpha"/><feOffset dy="12"/><feGaussianBlur stdDeviation="20"/><feComposite in2="hardAlpha" operator="out"/><feColorMatrix values="0 0 0 0 0.909804 0 0 0 0 0.313726 0 0 0 0 0.470588 0 0 0 1 0"/><feBlend in2="BackgroundImageFix" result="effect1_dropShadow_1495_64103"/><feBlend in="SourceGraphic" in2="effect1_dropShadow_1495_64103" result="shape"/><feColorMatrix in="SourceAlpha" values="0 0 0 0 0 0 0 0 0 0 0 0 0 0 0 0 0 0 127 0" result="hardAlpha"/><feOffset dy="-4"/><feGaussianBlur stdDeviation="4"/><feComposite in2="hardAlpha" operator="arithmetic" k2="-1" k3="1"/><feColorMatrix values="0 0 0 0 0.909804 0 0 0 0 0.313726 0 0 0 0 0.470588 0 0 0 0.48 0"/><feBlend in2="shape" result="effect2_innerShadow_1495_64103"/></filter></defs></svg>