<svg width="691" height="539" viewBox="0 0 691 539" fill="none" xmlns="http://www.w3.org/2000/svg"><g filter="url(#filter0_di_1479_48282)"><path fill-rule="evenodd" clip-rule="evenodd" d="M297.301 34.515C222.73 25.83 157.467 18.23 110.403 68.105c-26.788 28.39-40.376 78.589-41.964 134.919-.316 11.203-7.86 21.075-19.053 21.652-3.123.161-6.208.248-9.203.331a.171.171 0 00-.09.314c7.11 4.746 14.738 7.664 22.208 9.341 3.757.844 6.665 3.953 6.918 7.794 6.38 96.936 45.158 200.9 110.808 239.871 109.296 64.882 293.337 57.268 384.512-6.194 85.053-59.201 114.563-309.915 53.54-386.312-44.59-55.824-106.911-52.945-176.438-49.733-25.623 1.184-52.225 2.413-79.279.765-22.293-1.357-44.047-3.89-65.061-6.338z" fill="#fff"/></g><defs><filter id="filter0_di_1479_48282" x=".016" y=".176" width="690.402" height="579.322" filterUnits="userSpaceOnUse" color-interpolation-filters="sRGB"><feFlood flood-opacity="0" result="BackgroundImageFix"/><feColorMatrix in="SourceAlpha" values="0 0 0 0 0 0 0 0 0 0 0 0 0 0 0 0 0 0 127 0" result="hardAlpha"/><feOffset dy="12"/><feGaussianBlur stdDeviation="20"/><feComposite in2="hardAlpha" operator="out"/><feColorMatrix values="0 0 0 0 0.909804 0 0 0 0 0.313726 0 0 0 0 0.470588 0 0 0 1 0"/><feBlend in2="BackgroundImageFix" result="effect1_dropShadow_1479_48282"/><feBlend in="SourceGraphic" in2="effect1_dropShadow_1479_48282" result="shape"/><feColorMatrix in="SourceAlpha" values="0 0 0 0 0 0 0 0 0 0 0 0 0 0 0 0 0 0 127 0" result="hardAlpha"/><feOffset dy="-4"/><feGaussianBlur stdDeviation="4"/><feComposite in2="hardAlpha" operator="arithmetic" k2="-1" k3="1"/><feColorMatrix values="0 0 0 0 0.909804 0 0 0 0 0.313726 0 0 0 0 0.470588 0 0 0 0.48 0"/><feBlend in2="shape" result="effect2_innerShadow_1479_48282"/></filter></defs></svg>