<svg width="709" height="688" viewBox="0 0 709 688" fill="none" xmlns="http://www.w3.org/2000/svg"><g filter="url(#filter0_di_1495_66585)"><path fill-rule="evenodd" clip-rule="evenodd" d="M302.972 34.203c-74.572-8.26-139.834-15.49-186.898 31.95-25.53 25.733-39.76 83.657-42.475 152.511-.481 12.21-9.758 22.361-21.86 20.68-3.942-.547-7.812-1.227-11.543-1.882a.166.166 0 00-.145.283c7.74 7.563 16.977 12.434 25.994 15.515 4.18 1.429 7.23 5.167 7.357 9.583 3.805 132.316 46.135 286.33 128.296 332.719 109.297 61.711 261.336 46.861 352.512-13.501 132.961-88.025 140.152-411.172 69.54-495.254-44.59-53.097-106.911-50.358-176.438-47.303-25.623 1.126-52.225 2.295-79.279.728-22.294-1.291-44.047-3.7-65.061-6.029z" fill="#fff"/></g><defs><filter id="filter0_di_1495_66585" x="0" y=".174" width="708.074" height="687.025" filterUnits="userSpaceOnUse" color-interpolation-filters="sRGB"><feFlood flood-opacity="0" result="BackgroundImageFix"/><feColorMatrix in="SourceAlpha" values="0 0 0 0 0 0 0 0 0 0 0 0 0 0 0 0 0 0 127 0" result="hardAlpha"/><feOffset dy="12"/><feGaussianBlur stdDeviation="20"/><feComposite in2="hardAlpha" operator="out"/><feColorMatrix values="0 0 0 0 0.909804 0 0 0 0 0.313726 0 0 0 0 0.470588 0 0 0 1 0"/><feBlend in2="BackgroundImageFix" result="effect1_dropShadow_1495_66585"/><feBlend in="SourceGraphic" in2="effect1_dropShadow_1495_66585" result="shape"/><feColorMatrix in="SourceAlpha" values="0 0 0 0 0 0 0 0 0 0 0 0 0 0 0 0 0 0 127 0" result="hardAlpha"/><feOffset dy="-4"/><feGaussianBlur stdDeviation="4"/><feComposite in2="hardAlpha" operator="arithmetic" k2="-1" k3="1"/><feColorMatrix values="0 0 0 0 0.909804 0 0 0 0 0.313726 0 0 0 0 0.470588 0 0 0 0.48 0"/><feBlend in2="shape" result="effect2_innerShadow_1495_66585"/></filter></defs></svg>