<svg width="669" height="388" viewBox="0 0 669 388" fill="none" xmlns="http://www.w3.org/2000/svg"><g filter="url(#filter0_di_1419_48757)"><path fill-rule="evenodd" clip-rule="evenodd" d="M279.301 34.513c-74.571-8.685-139.834-16.285-186.898 33.59-41.186 43.647-46.642 84.55-25.55 123.478 5.315 9.808 5.126 22.332-4.557 27.872-6.908 3.952-14.43 6.893-21.432 9.631-.156.061-.14.286.022.326 14.618 3.637 28.834 1.385 40.245-2.473 5.492-1.857 11.665-.691 15.779 3.394 20.614 20.463 48.143 40.42 81.117 59.995 109.297 64.881 261.337 57.267 352.513-6.195 85.053-59.2 130.563-117.915 69.54-194.312-44.59-55.824-106.912-52.945-176.439-49.733-25.623 1.184-52.225 2.413-79.279.765-22.293-1.357-44.046-3.89-65.061-6.338z" fill="#fff"/></g><defs><filter id="filter0_di_1419_48757" x=".755" y=".174" width="667.376" height="387.322" filterUnits="userSpaceOnUse" color-interpolation-filters="sRGB"><feFlood flood-opacity="0" result="BackgroundImageFix"/><feColorMatrix in="SourceAlpha" values="0 0 0 0 0 0 0 0 0 0 0 0 0 0 0 0 0 0 127 0" result="hardAlpha"/><feOffset dy="12"/><feGaussianBlur stdDeviation="20"/><feComposite in2="hardAlpha" operator="out"/><feColorMatrix values="0 0 0 0 0.909804 0 0 0 0 0.313726 0 0 0 0 0.470588 0 0 0 1 0"/><feBlend in2="BackgroundImageFix" result="effect1_dropShadow_1419_48757"/><feBlend in="SourceGraphic" in2="effect1_dropShadow_1419_48757" result="shape"/><feColorMatrix in="SourceAlpha" values="0 0 0 0 0 0 0 0 0 0 0 0 0 0 0 0 0 0 127 0" result="hardAlpha"/><feOffset dy="-4"/><feGaussianBlur stdDeviation="4"/><feComposite in2="hardAlpha" operator="arithmetic" k2="-1" k3="1"/><feColorMatrix values="0 0 0 0 0.909804 0 0 0 0 0.313726 0 0 0 0 0.470588 0 0 0 0.48 0"/><feBlend in2="shape" result="effect2_innerShadow_1419_48757"/></filter></defs></svg>