<svg width="529" height="293" viewBox="0 0 529 293" fill="none" xmlns="http://www.w3.org/2000/svg"><g filter="url(#filter0_di_1495_61349)"><path fill-rule="evenodd" clip-rule="evenodd" d="M66.891 28a8 8 0 00-7.95 7.106l-18.89 168c-.533 4.742 3.178 8.894 7.95 8.894h229.64c3.462 0 6.491 2.244 7.834 5.436 3.882 9.226 10.633 19.767 20.614 23.523a.077.077 0 00.095-.11c-2.26-4.067-6.507-11.712-8.452-20.714-.95-4.398 2.702-8.135 7.2-8.135H461.21a8 8 0 007.95-7.106l18.891-168c.533-4.742-3.178-8.894-7.95-8.894H66.891z" fill="#FFF0CB"/></g><defs><filter id="filter0_di_1495_61349" x="0" y="0" width="528.102" height="292.964" filterUnits="userSpaceOnUse" color-interpolation-filters="sRGB"><feFlood flood-opacity="0" result="BackgroundImageFix"/><feColorMatrix in="SourceAlpha" values="0 0 0 0 0 0 0 0 0 0 0 0 0 0 0 0 0 0 127 0" result="hardAlpha"/><feOffset dy="12"/><feGaussianBlur stdDeviation="20"/><feComposite in2="hardAlpha" operator="out"/><feColorMatrix values="0 0 0 0 1 0 0 0 0 1 0 0 0 0 1 0 0 0 1 0"/><feBlend in2="BackgroundImageFix" result="effect1_dropShadow_1495_61349"/><feBlend in="SourceGraphic" in2="effect1_dropShadow_1495_61349" result="shape"/><feColorMatrix in="SourceAlpha" values="0 0 0 0 0 0 0 0 0 0 0 0 0 0 0 0 0 0 127 0" result="hardAlpha"/><feOffset dy="-4"/><feGaussianBlur stdDeviation="4"/><feComposite in2="hardAlpha" operator="arithmetic" k2="-1" k3="1"/><feColorMatrix values="0 0 0 0 0.883659 0 0 0 0 0.635314 0 0 0 0 0.0558422 0 0 0 0.4 0"/><feBlend in2="shape" result="effect2_innerShadow_1495_61349"/></filter></defs></svg>