<svg width="431" height="232" viewBox="0 0 431 232" fill="none" xmlns="http://www.w3.org/2000/svg"><g filter="url(#filter0_di_1419_54472)"><path fill-rule="evenodd" clip-rule="evenodd" d="M61.782 28a8 8 0 00-7.96 7.194l-13.78 135.999C39.564 175.907 43.264 180 48 180h303.516a8 8 0 007.959-7.193l1.437-14.18c.531-5.249 6.603-7.99 11.426-5.85 5.614 2.492 11.702 3.889 17.603 2.907a.078.078 0 00.027-.143c-5.992-3.62-19.914-12.029-25.364-25.989-.411-1.052-.524-2.194-.41-3.318l9.062-89.427c.477-4.714-3.222-8.807-7.959-8.807H61.782z" fill="#FFF0CB"/></g><defs><filter id="filter0_di_1419_54472" x="0" y="0" width="430.008" height="232" filterUnits="userSpaceOnUse" color-interpolation-filters="sRGB"><feFlood flood-opacity="0" result="BackgroundImageFix"/><feColorMatrix in="SourceAlpha" values="0 0 0 0 0 0 0 0 0 0 0 0 0 0 0 0 0 0 127 0" result="hardAlpha"/><feOffset dy="12"/><feGaussianBlur stdDeviation="20"/><feComposite in2="hardAlpha" operator="out"/><feColorMatrix values="0 0 0 0 1 0 0 0 0 1 0 0 0 0 1 0 0 0 1 0"/><feBlend in2="BackgroundImageFix" result="effect1_dropShadow_1419_54472"/><feBlend in="SourceGraphic" in2="effect1_dropShadow_1419_54472" result="shape"/><feColorMatrix in="SourceAlpha" values="0 0 0 0 0 0 0 0 0 0 0 0 0 0 0 0 0 0 127 0" result="hardAlpha"/><feOffset dy="-4"/><feGaussianBlur stdDeviation="4"/><feComposite in2="hardAlpha" operator="arithmetic" k2="-1" k3="1"/><feColorMatrix values="0 0 0 0 0.883659 0 0 0 0 0.635314 0 0 0 0 0.0558422 0 0 0 0.4 0"/><feBlend in2="shape" result="effect2_innerShadow_1419_54472"/></filter></defs></svg>