<svg width="516" height="240" viewBox="0 0 516 240" fill="none" xmlns="http://www.w3.org/2000/svg"><g filter="url(#filter0_di_1495_61383)"><path fill-rule="evenodd" clip-rule="evenodd" d="M65.422 28a8 8 0 00-7.942 7.04L40.059 179.038c-.576 4.765 3.143 8.961 7.942 8.961h385.527a8 8 0 007.942-7.039l3.393-28.047c.51-4.213 4.25-7.348 8.365-6.314 9.746 2.449 17.884 7.835 22.063 10.601.06.04.137-.017.117-.086-3.03-10.449-13.363-18.094-22.39-22.65-3.244-1.637-5.313-5.045-4.876-8.651l10.749-88.853c.576-4.765-3.143-8.961-7.942-8.961H65.422z" fill="#FFF0CB"/></g><defs><filter id="filter0_di_1495_61383" x="0" y="0" width="515.41" height="240" filterUnits="userSpaceOnUse" color-interpolation-filters="sRGB"><feFlood flood-opacity="0" result="BackgroundImageFix"/><feColorMatrix in="SourceAlpha" values="0 0 0 0 0 0 0 0 0 0 0 0 0 0 0 0 0 0 127 0" result="hardAlpha"/><feOffset dy="12"/><feGaussianBlur stdDeviation="20"/><feComposite in2="hardAlpha" operator="out"/><feColorMatrix values="0 0 0 0 1 0 0 0 0 1 0 0 0 0 1 0 0 0 1 0"/><feBlend in2="BackgroundImageFix" result="effect1_dropShadow_1495_61383"/><feBlend in="SourceGraphic" in2="effect1_dropShadow_1495_61383" result="shape"/><feColorMatrix in="SourceAlpha" values="0 0 0 0 0 0 0 0 0 0 0 0 0 0 0 0 0 0 127 0" result="hardAlpha"/><feOffset dy="-4"/><feGaussianBlur stdDeviation="4"/><feComposite in2="hardAlpha" operator="arithmetic" k2="-1" k3="1"/><feColorMatrix values="0 0 0 0 0.883659 0 0 0 0 0.635314 0 0 0 0 0.0558422 0 0 0 0.4 0"/><feBlend in2="shape" result="effect2_innerShadow_1495_61383"/></filter></defs></svg>