<svg width="460" height="240" viewBox="0 0 460 240" fill="none" xmlns="http://www.w3.org/2000/svg"><g filter="url(#filter0_di_1419_54645)"><path fill-rule="evenodd" clip-rule="evenodd" d="M63.435 28a8 8 0 00-7.954 7.147l-15.435 144c-.506 4.729 3.2 8.853 7.955 8.853H387.76a7.999 7.999 0 007.954-7.147l2.387-22.264c.531-4.955 5.432-8.207 9.922-6.044 4.896 2.358 8.865 4.985 11.389 6.656.06.04.137-.016.117-.085-2.195-7.568-8.219-13.665-14.804-18.183-2.621-1.798-4.216-4.818-3.877-7.979l10.301-96.101c.507-4.729-3.199-8.853-7.955-8.853H63.435z" fill="#FFF0CB"/></g><defs><filter id="filter0_di_1419_54645" x="0" y="0" width="459.531" height="240" filterUnits="userSpaceOnUse" color-interpolation-filters="sRGB"><feFlood flood-opacity="0" result="BackgroundImageFix"/><feColorMatrix in="SourceAlpha" values="0 0 0 0 0 0 0 0 0 0 0 0 0 0 0 0 0 0 127 0" result="hardAlpha"/><feOffset dy="12"/><feGaussianBlur stdDeviation="20"/><feComposite in2="hardAlpha" operator="out"/><feColorMatrix values="0 0 0 0 1 0 0 0 0 1 0 0 0 0 1 0 0 0 1 0"/><feBlend in2="BackgroundImageFix" result="effect1_dropShadow_1419_54645"/><feBlend in="SourceGraphic" in2="effect1_dropShadow_1419_54645" result="shape"/><feColorMatrix in="SourceAlpha" values="0 0 0 0 0 0 0 0 0 0 0 0 0 0 0 0 0 0 127 0" result="hardAlpha"/><feOffset dy="-4"/><feGaussianBlur stdDeviation="4"/><feComposite in2="hardAlpha" operator="arithmetic" k2="-1" k3="1"/><feColorMatrix values="0 0 0 0 0.883659 0 0 0 0 0.635314 0 0 0 0 0.0558422 0 0 0 0.4 0"/><feBlend in2="shape" result="effect2_innerShadow_1419_54645"/></filter></defs></svg>