<svg width="741" height="544" viewBox="0 0 741 544" fill="none" xmlns="http://www.w3.org/2000/svg">
<g filter="url(#filter0_di_1419_54688)">
<path fill-rule="evenodd" clip-rule="evenodd" d="M241.66 504.32C140.692 485.885 6.40333 362.952 47.6488 136.684C62.3561 56.0004 138.637 39.5487 246.481 31.3544C341.603 24.1268 434.422 28.5079 527.845 45.1879C584.024 55.2182 652 91.6232 652 152.841C652 158.126 656.052 162.499 661.257 163.416C673.894 165.641 689.081 170.91 700.826 182.372C700.944 182.487 700.844 182.684 700.682 182.656C689.254 180.656 676.513 178.427 664.448 180.479C655.99 181.917 651.125 190.335 650.578 198.898C628.669 542 359.351 525.808 241.66 504.32Z" fill="white"/>
</g>
<defs>
<filter id="filter0_di_1419_54688" x="0" y="0" width="740.877" height="566" filterUnits="userSpaceOnUse" color-interpolation-filters="sRGB">
<feFlood flood-opacity="0" result="BackgroundImageFix"/>
<feColorMatrix in="SourceAlpha" type="matrix" values="0 0 0 0 0 0 0 0 0 0 0 0 0 0 0 0 0 0 127 0" result="hardAlpha"/>
<feOffset dy="12"/>
<feGaussianBlur stdDeviation="20"/>
<feComposite in2="hardAlpha" operator="out"/>
<feColorMatrix type="matrix" values="0 0 0 0 0.909804 0 0 0 0 0.313726 0 0 0 0 0.470588 0 0 0 1 0"/>
<feBlend mode="normal" in2="BackgroundImageFix" result="effect1_dropShadow_1419_54688"/>
<feBlend mode="normal" in="SourceGraphic" in2="effect1_dropShadow_1419_54688" result="shape"/>
<feColorMatrix in="SourceAlpha" type="matrix" values="0 0 0 0 0 0 0 0 0 0 0 0 0 0 0 0 0 0 127 0" result="hardAlpha"/>
<feOffset dy="-4"/>
<feGaussianBlur stdDeviation="4"/>
<feComposite in2="hardAlpha" operator="arithmetic" k2="-1" k3="1"/>
<feColorMatrix type="matrix" values="0 0 0 0 0.909804 0 0 0 0 0.313726 0 0 0 0 0.470588 0 0 0 0.48 0"/>
<feBlend mode="normal" in2="shape" result="effect2_innerShadow_1419_54688"/>
</filter>
</defs>
</svg>
