<svg width="753" height="650" viewBox="0 0 753 650" fill="none" xmlns="http://www.w3.org/2000/svg">
<g filter="url(#filter0_di_1495_61502)">
<path fill-rule="evenodd" clip-rule="evenodd" d="M241.933 586.1C140.829 564.5 6.35779 420.461 47.6591 155.344C62.3864 60.8078 138.771 41.5315 246.761 31.9303C342.012 23.4618 434.956 28.5951 528.506 48.1388C584.761 59.8913 652.83 102.547 652.83 174.275C652.83 176.341 652.824 178.397 652.812 180.443C652.782 185.739 654.336 191.034 658.091 194.768C672.685 209.283 693.92 214.931 712.528 219.881C712.743 219.938 712.754 220.237 712.545 220.311C697.75 225.545 682.599 225.995 669.066 224.237C660.103 223.072 651.376 229.61 650.777 238.629C624.789 629.919 358.76 611.058 241.933 586.1Z" fill="white"/>
</g>
<defs>
<filter id="filter0_di_1495_61502" x="0" y="0" width="752.695" height="649.441" filterUnits="userSpaceOnUse" color-interpolation-filters="sRGB">
<feFlood flood-opacity="0" result="BackgroundImageFix"/>
<feColorMatrix in="SourceAlpha" type="matrix" values="0 0 0 0 0 0 0 0 0 0 0 0 0 0 0 0 0 0 127 0" result="hardAlpha"/>
<feOffset dy="12"/>
<feGaussianBlur stdDeviation="20"/>
<feComposite in2="hardAlpha" operator="out"/>
<feColorMatrix type="matrix" values="0 0 0 0 0.909804 0 0 0 0 0.313726 0 0 0 0 0.470588 0 0 0 1 0"/>
<feBlend mode="normal" in2="BackgroundImageFix" result="effect1_dropShadow_1495_61502"/>
<feBlend mode="normal" in="SourceGraphic" in2="effect1_dropShadow_1495_61502" result="shape"/>
<feColorMatrix in="SourceAlpha" type="matrix" values="0 0 0 0 0 0 0 0 0 0 0 0 0 0 0 0 0 0 127 0" result="hardAlpha"/>
<feOffset dy="-4"/>
<feGaussianBlur stdDeviation="4"/>
<feComposite in2="hardAlpha" operator="arithmetic" k2="-1" k3="1"/>
<feColorMatrix type="matrix" values="0 0 0 0 0.909804 0 0 0 0 0.313726 0 0 0 0 0.470588 0 0 0 0.48 0"/>
<feBlend mode="normal" in2="shape" result="effect2_innerShadow_1495_61502"/>
</filter>
</defs>
</svg>
