<svg width="741" height="544" viewBox="0 0 741 544" fill="none" xmlns="http://www.w3.org/2000/svg"><g filter="url(#filter0_di_1419_54688)"><path fill-rule="evenodd" clip-rule="evenodd" d="M241.66 504.32C140.692 485.885 6.403 362.952 47.649 136.684 62.356 56 138.637 39.549 246.48 31.354c95.122-7.227 187.941-2.846 281.364 13.834C584.024 55.218 652 91.623 652 152.84c0 5.285 4.052 9.658 9.257 10.575 12.637 2.225 27.824 7.494 39.569 18.956a.166.166 0 01-.144.284c-11.428-2-24.169-4.229-36.234-2.177-8.458 1.438-13.323 9.856-13.87 18.419C628.669 542 359.351 525.808 241.66 504.32z" fill="#fff"/></g><defs><filter id="filter0_di_1419_54688" x="0" y="0" width="740.877" height="566" filterUnits="userSpaceOnUse" color-interpolation-filters="sRGB"><feFlood flood-opacity="0" result="BackgroundImageFix"/><feColorMatrix in="SourceAlpha" values="0 0 0 0 0 0 0 0 0 0 0 0 0 0 0 0 0 0 127 0" result="hardAlpha"/><feOffset dy="12"/><feGaussianBlur stdDeviation="20"/><feComposite in2="hardAlpha" operator="out"/><feColorMatrix values="0 0 0 0 0.909804 0 0 0 0 0.313726 0 0 0 0 0.470588 0 0 0 1 0"/><feBlend in2="BackgroundImageFix" result="effect1_dropShadow_1419_54688"/><feBlend in="SourceGraphic" in2="effect1_dropShadow_1419_54688" result="shape"/><feColorMatrix in="SourceAlpha" values="0 0 0 0 0 0 0 0 0 0 0 0 0 0 0 0 0 0 127 0" result="hardAlpha"/><feOffset dy="-4"/><feGaussianBlur stdDeviation="4"/><feComposite in2="hardAlpha" operator="arithmetic" k2="-1" k3="1"/><feColorMatrix values="0 0 0 0 0.909804 0 0 0 0 0.313726 0 0 0 0 0.470588 0 0 0 0.48 0"/><feBlend in2="shape" result="effect2_innerShadow_1419_54688"/></filter></defs></svg>