<svg width="753" height="650" viewBox="0 0 753 650" fill="none" xmlns="http://www.w3.org/2000/svg"><g filter="url(#filter0_di_1495_61502)"><path fill-rule="evenodd" clip-rule="evenodd" d="M241.933 586.1C140.829 564.5 6.358 420.461 47.659 155.344 62.386 60.808 138.771 41.531 246.761 31.93c95.251-8.468 188.195-3.335 281.745 16.209C584.761 59.89 652.83 102.547 652.83 174.275c0 2.066-.006 4.122-.018 6.168-.03 5.296 1.524 10.591 5.279 14.325 14.594 14.515 35.829 20.163 54.437 25.113a.225.225 0 01.017.43c-14.795 5.234-29.946 5.684-43.479 3.926-8.963-1.165-17.69 5.373-18.289 14.392C624.789 629.919 358.76 611.058 241.933 586.1z" fill="#fff"/></g><defs><filter id="filter0_di_1495_61502" x="0" y="0" width="752.695" height="649.441" filterUnits="userSpaceOnUse" color-interpolation-filters="sRGB"><feFlood flood-opacity="0" result="BackgroundImageFix"/><feColorMatrix in="SourceAlpha" values="0 0 0 0 0 0 0 0 0 0 0 0 0 0 0 0 0 0 127 0" result="hardAlpha"/><feOffset dy="12"/><feGaussianBlur stdDeviation="20"/><feComposite in2="hardAlpha" operator="out"/><feColorMatrix values="0 0 0 0 0.909804 0 0 0 0 0.313726 0 0 0 0 0.470588 0 0 0 1 0"/><feBlend in2="BackgroundImageFix" result="effect1_dropShadow_1495_61502"/><feBlend in="SourceGraphic" in2="effect1_dropShadow_1495_61502" result="shape"/><feColorMatrix in="SourceAlpha" values="0 0 0 0 0 0 0 0 0 0 0 0 0 0 0 0 0 0 127 0" result="hardAlpha"/><feOffset dy="-4"/><feGaussianBlur stdDeviation="4"/><feComposite in2="hardAlpha" operator="arithmetic" k2="-1" k3="1"/><feColorMatrix values="0 0 0 0 0.909804 0 0 0 0 0.313726 0 0 0 0 0.470588 0 0 0 0.48 0"/><feBlend in2="shape" result="effect2_innerShadow_1495_61502"/></filter></defs></svg>