<svg width="502" height="286" viewBox="0 0 502 286" fill="none" xmlns="http://www.w3.org/2000/svg"><g filter="url(#filter0_di_1495_83552)"><path fill-rule="evenodd" clip-rule="evenodd" d="M77.635 28a8 8 0 00-7.968 7.276l-1.464 16.125c-.27 2.976-2.191 5.522-4.883 6.822-9.511 4.59-20.14 12.112-23.316 22.302a.082.082 0 00.122.094c3.391-2.091 9.21-5.68 16.368-8.364 4.936-1.852 9.6 2.368 9.123 7.619l-13.39 147.402c-.425 4.685 3.264 8.724 7.968 8.724h375.957a8 8 0 007.967-7.276l17.439-192c.426-4.685-3.263-8.724-7.967-8.724H77.634z" fill="#FFF0CB"/></g><defs><filter id="filter0_di_1495_83552" x="0" y="0" width="501.592" height="288" filterUnits="userSpaceOnUse" color-interpolation-filters="sRGB"><feFlood flood-opacity="0" result="BackgroundImageFix"/><feColorMatrix in="SourceAlpha" values="0 0 0 0 0 0 0 0 0 0 0 0 0 0 0 0 0 0 127 0" result="hardAlpha"/><feOffset dy="12"/><feGaussianBlur stdDeviation="20"/><feComposite in2="hardAlpha" operator="out"/><feColorMatrix values="0 0 0 0 1 0 0 0 0 1 0 0 0 0 1 0 0 0 1 0"/><feBlend in2="BackgroundImageFix" result="effect1_dropShadow_1495_83552"/><feBlend in="SourceGraphic" in2="effect1_dropShadow_1495_83552" result="shape"/><feColorMatrix in="SourceAlpha" values="0 0 0 0 0 0 0 0 0 0 0 0 0 0 0 0 0 0 127 0" result="hardAlpha"/><feOffset dy="-4"/><feGaussianBlur stdDeviation="4"/><feComposite in2="hardAlpha" operator="arithmetic" k2="-1" k3="1"/><feColorMatrix values="0 0 0 0 0.883659 0 0 0 0 0.635314 0 0 0 0 0.0558422 0 0 0 0.4 0"/><feBlend in2="shape" result="effect2_innerShadow_1495_83552"/></filter></defs></svg>