<svg width="486" height="235" viewBox="0 0 486 235" fill="none" xmlns="http://www.w3.org/2000/svg"><g filter="url(#filter0_di_1419_50030)"><path fill-rule="evenodd" clip-rule="evenodd" d="M84.086 28a8 8 0 00-7.966 7.262l-1.225 13.217c-.304 3.28-2.6 6.009-5.675 7.19-10.492 4.03-25.356 12.474-29.216 24.856a.082.082 0 00.122.094c4.52-2.788 13.356-8.236 23.926-10.658 4.688-1.074 8.571 3.037 8.127 7.826L59.81 211.262c-.434 4.69 3.257 8.738 7.967 8.738h353.138a8 8 0 007.966-7.262l16.31-176c.435-4.69-3.256-8.738-7.966-8.738H84.086z" fill="#FFF0CB"/></g><defs><filter id="filter0_di_1419_50030" x="0" y="0" width="485.225" height="272" filterUnits="userSpaceOnUse" color-interpolation-filters="sRGB"><feFlood flood-opacity="0" result="BackgroundImageFix"/><feColorMatrix in="SourceAlpha" values="0 0 0 0 0 0 0 0 0 0 0 0 0 0 0 0 0 0 127 0" result="hardAlpha"/><feOffset dy="12"/><feGaussianBlur stdDeviation="20"/><feComposite in2="hardAlpha" operator="out"/><feColorMatrix values="0 0 0 0 1 0 0 0 0 1 0 0 0 0 1 0 0 0 1 0"/><feBlend in2="BackgroundImageFix" result="effect1_dropShadow_1419_50030"/><feBlend in="SourceGraphic" in2="effect1_dropShadow_1419_50030" result="shape"/><feColorMatrix in="SourceAlpha" values="0 0 0 0 0 0 0 0 0 0 0 0 0 0 0 0 0 0 127 0" result="hardAlpha"/><feOffset dy="-4"/><feGaussianBlur stdDeviation="4"/><feComposite in2="hardAlpha" operator="arithmetic" k2="-1" k3="1"/><feColorMatrix values="0 0 0 0 0.883659 0 0 0 0 0.635314 0 0 0 0 0.0558422 0 0 0 0.4 0"/><feBlend in2="shape" result="effect2_innerShadow_1419_50030"/></filter></defs></svg>