<svg width="518" height="286" viewBox="0 0 518 286" fill="none" xmlns="http://www.w3.org/2000/svg"><g filter="url(#filter0_di_1495_83770)"><path fill-rule="evenodd" clip-rule="evenodd" d="M65.613 28a8 8 0 00-7.966 7.27L40.034 227.268c-.43 4.687 3.26 8.731 7.967 8.731h379.852a8 8 0 007.967-7.269l13.868-151.188c.419-4.563 4.609-7.869 8.95-6.402 8.038 2.716 14.633 7.08 18.255 9.478.06.04.136-.016.116-.086-2.794-9.636-11.799-16.888-20.264-21.531-3-1.646-4.912-4.835-4.599-8.243l1.286-14.028c.43-4.687-3.259-8.731-7.966-8.731H65.613z" fill="#FFF0CB"/></g><defs><filter id="filter0_di_1495_83770" x="0" y="0" width="517.012" height="288" filterUnits="userSpaceOnUse" color-interpolation-filters="sRGB"><feFlood flood-opacity="0" result="BackgroundImageFix"/><feColorMatrix in="SourceAlpha" values="0 0 0 0 0 0 0 0 0 0 0 0 0 0 0 0 0 0 127 0" result="hardAlpha"/><feOffset dy="12"/><feGaussianBlur stdDeviation="20"/><feComposite in2="hardAlpha" operator="out"/><feColorMatrix values="0 0 0 0 1 0 0 0 0 1 0 0 0 0 1 0 0 0 1 0"/><feBlend in2="BackgroundImageFix" result="effect1_dropShadow_1495_83770"/><feBlend in="SourceGraphic" in2="effect1_dropShadow_1495_83770" result="shape"/><feColorMatrix in="SourceAlpha" values="0 0 0 0 0 0 0 0 0 0 0 0 0 0 0 0 0 0 127 0" result="hardAlpha"/><feOffset dy="-4"/><feGaussianBlur stdDeviation="4"/><feComposite in2="hardAlpha" operator="arithmetic" k2="-1" k3="1"/><feColorMatrix values="0 0 0 0 0.883659 0 0 0 0 0.635314 0 0 0 0 0.0558422 0 0 0 0.4 0"/><feBlend in2="shape" result="effect2_innerShadow_1495_83770"/></filter></defs></svg>