<svg width="521" height="234" viewBox="0 0 521 234" fill="none" xmlns="http://www.w3.org/2000/svg"><g filter="url(#filter0_di_1419_50246)"><path fill-rule="evenodd" clip-rule="evenodd" d="M65.997 28a8 8 0 00-7.959 7.186l-17.996 176c-.482 4.716 3.219 8.814 7.959 8.814h391.284a8 8 0 007.959-7.186l4.129-40.386c.448-4.38 4.382-7.617 8.613-6.398 9.035 2.604 16.518 7.557 20.467 10.171.06.04.137-.017.117-.086-2.948-10.166-12.808-17.678-21.654-22.273-3.133-1.628-5.139-4.92-4.78-8.432L465.24 36.814c.482-4.716-3.219-8.814-7.959-8.814H65.997z" fill="#FFF0CB"/></g><defs><filter id="filter0_di_1419_50246" x="0" y="0" width="520.572" height="272" filterUnits="userSpaceOnUse" color-interpolation-filters="sRGB"><feFlood flood-opacity="0" result="BackgroundImageFix"/><feColorMatrix in="SourceAlpha" values="0 0 0 0 0 0 0 0 0 0 0 0 0 0 0 0 0 0 127 0" result="hardAlpha"/><feOffset dy="12"/><feGaussianBlur stdDeviation="20"/><feComposite in2="hardAlpha" operator="out"/><feColorMatrix values="0 0 0 0 1 0 0 0 0 1 0 0 0 0 1 0 0 0 1 0"/><feBlend in2="BackgroundImageFix" result="effect1_dropShadow_1419_50246"/><feBlend in="SourceGraphic" in2="effect1_dropShadow_1419_50246" result="shape"/><feColorMatrix in="SourceAlpha" values="0 0 0 0 0 0 0 0 0 0 0 0 0 0 0 0 0 0 127 0" result="hardAlpha"/><feOffset dy="-4"/><feGaussianBlur stdDeviation="4"/><feComposite in2="hardAlpha" operator="arithmetic" k2="-1" k3="1"/><feColorMatrix values="0 0 0 0 0.883659 0 0 0 0 0.635314 0 0 0 0 0.0558422 0 0 0 0.4 0"/><feBlend in2="shape" result="effect2_innerShadow_1419_50246"/></filter></defs></svg>