<svg width="411" height="235" viewBox="0 0 411 235" fill="none" xmlns="http://www.w3.org/2000/svg"><g filter="url(#filter0_di_1445_47598)"><path fill-rule="evenodd" clip-rule="evenodd" d="M111.827 182.017c-35.153 6.837-64.165-23.084-69.93-56.155-5.765-33.07-1.902-79.112 62.519-96.334 16.112-4.308 46.671 1.334 74.777 6.522 19.494 3.6 37.807 6.98 49.302 6.673 10.939-.293 22.232-2.355 33.473-4.407 17.653-3.224 35.178-6.423 50.995-2.71 50.97 11.97 52.948 65.456 37.721 102.783-.772 1.891-.885 4.01-.105 5.898 4.597 11.126 10.782 16.127 19.1 22.852.706.57.47 1.678-.423 1.835-7.756 1.363-16.278-1.683-23.238-5.635-3.846-2.185-8.794-1.447-11.859 1.743-.42.436-.842.862-1.267 1.275-17.768 17.289-53.409 16.834-81.482 16.241-6.396-.135-15.296-.812-25.792-1.611-31.711-2.412-77.991-5.932-113.791 1.03z" fill="#fff"/></g><defs><filter id="filter0_di_1445_47598" x="0" y="0" width="410.092" height="235" filterUnits="userSpaceOnUse" color-interpolation-filters="sRGB"><feFlood flood-opacity="0" result="BackgroundImageFix"/><feColorMatrix in="SourceAlpha" values="0 0 0 0 0 0 0 0 0 0 0 0 0 0 0 0 0 0 127 0" result="hardAlpha"/><feOffset dy="12"/><feGaussianBlur stdDeviation="20"/><feComposite in2="hardAlpha" operator="out"/><feColorMatrix values="0 0 0 0 0.909804 0 0 0 0 0.313726 0 0 0 0 0.470588 0 0 0 1 0"/><feBlend in2="BackgroundImageFix" result="effect1_dropShadow_1445_47598"/><feBlend in="SourceGraphic" in2="effect1_dropShadow_1445_47598" result="shape"/><feColorMatrix in="SourceAlpha" values="0 0 0 0 0 0 0 0 0 0 0 0 0 0 0 0 0 0 127 0" result="hardAlpha"/><feOffset dy="-4"/><feGaussianBlur stdDeviation="4"/><feComposite in2="hardAlpha" operator="arithmetic" k2="-1" k3="1"/><feColorMatrix values="0 0 0 0 0.909804 0 0 0 0 0.313726 0 0 0 0 0.470588 0 0 0 0.16 0"/><feBlend in2="shape" result="effect2_innerShadow_1445_47598"/></filter></defs></svg>