<svg width="548" height="312" viewBox="0 0 548 312" fill="none" xmlns="http://www.w3.org/2000/svg"><g filter="url(#filter0_di_1495_62483)"><path fill-rule="evenodd" clip-rule="evenodd" d="M79.022 28a8 8 0 00-7.967 7.277l-5.943 65.469c-.258 2.851-2.038 5.315-4.555 6.68-8.548 4.636-17.727 11.943-20.554 21.69a.077.077 0 00.117.085c2.806-1.858 7.399-4.897 13.064-7.435 4.937-2.211 9.838 2.011 9.349 7.398L51.449 251.277c-.425 4.684 3.264 8.723 7.968 8.723h420.876a8 8 0 007.968-7.277l19.605-216c.425-4.684-3.264-8.723-7.967-8.723H79.022z" fill="#FFF0CB"/></g><defs><filter id="filter0_di_1495_62483" x="0" y="0" width="547.898" height="312" filterUnits="userSpaceOnUse" color-interpolation-filters="sRGB"><feFlood flood-opacity="0" result="BackgroundImageFix"/><feColorMatrix in="SourceAlpha" values="0 0 0 0 0 0 0 0 0 0 0 0 0 0 0 0 0 0 127 0" result="hardAlpha"/><feOffset dy="12"/><feGaussianBlur stdDeviation="20"/><feComposite in2="hardAlpha" operator="out"/><feColorMatrix values="0 0 0 0 1 0 0 0 0 1 0 0 0 0 1 0 0 0 1 0"/><feBlend in2="BackgroundImageFix" result="effect1_dropShadow_1495_62483"/><feBlend in="SourceGraphic" in2="effect1_dropShadow_1495_62483" result="shape"/><feColorMatrix in="SourceAlpha" values="0 0 0 0 0 0 0 0 0 0 0 0 0 0 0 0 0 0 127 0" result="hardAlpha"/><feOffset dy="-4"/><feGaussianBlur stdDeviation="4"/><feComposite in2="hardAlpha" operator="arithmetic" k2="-1" k3="1"/><feColorMatrix values="0 0 0 0 0.883659 0 0 0 0 0.635314 0 0 0 0 0.0558422 0 0 0 0.4 0"/><feBlend in2="shape" result="effect2_innerShadow_1495_62483"/></filter></defs></svg>