<svg width="561" height="272" viewBox="0 0 561 272" fill="none" xmlns="http://www.w3.org/2000/svg"><g filter="url(#filter0_di_1419_53945)"><path fill-rule="evenodd" clip-rule="evenodd" d="M86.45 28a8 8 0 00-7.952 7.118l-6.945 62.64c-.343 3.099-2.468 5.682-5.33 6.916-9.698 4.182-22.749 12.473-26.22 24.441a.077.077 0 00.117.086c3.857-2.553 11.085-7.337 19.838-9.985 4.783-1.447 8.907 2.787 8.356 7.753l-9.33 84.149C58.46 215.857 62.17 220 66.937 220h425.615a8 8 0 007.951-7.118l19.513-176c.526-4.739-3.184-8.882-7.951-8.882H86.449z" fill="#FFF0CB"/></g><defs><filter id="filter0_di_1419_53945" x="0" y="0" width="560.064" height="272" filterUnits="userSpaceOnUse" color-interpolation-filters="sRGB"><feFlood flood-opacity="0" result="BackgroundImageFix"/><feColorMatrix in="SourceAlpha" values="0 0 0 0 0 0 0 0 0 0 0 0 0 0 0 0 0 0 127 0" result="hardAlpha"/><feOffset dy="12"/><feGaussianBlur stdDeviation="20"/><feComposite in2="hardAlpha" operator="out"/><feColorMatrix values="0 0 0 0 1 0 0 0 0 1 0 0 0 0 1 0 0 0 1 0"/><feBlend in2="BackgroundImageFix" result="effect1_dropShadow_1419_53945"/><feBlend in="SourceGraphic" in2="effect1_dropShadow_1419_53945" result="shape"/><feColorMatrix in="SourceAlpha" values="0 0 0 0 0 0 0 0 0 0 0 0 0 0 0 0 0 0 127 0" result="hardAlpha"/><feOffset dy="-4"/><feGaussianBlur stdDeviation="4"/><feComposite in2="hardAlpha" operator="arithmetic" k2="-1" k3="1"/><feColorMatrix values="0 0 0 0 0.883659 0 0 0 0 0.635314 0 0 0 0 0.0558422 0 0 0 0.4 0"/><feBlend in2="shape" result="effect2_innerShadow_1419_53945"/></filter></defs></svg>