<svg width="590" height="288" viewBox="0 0 590 288" fill="none" xmlns="http://www.w3.org/2000/svg"><g filter="url(#filter0_di_1495_62795)"><path fill-rule="evenodd" clip-rule="evenodd" d="M68.846 28a8 8 0 00-7.953 7.136L40.048 227.137C39.534 231.869 43.24 236 48 236h452.488a8 8 0 007.953-7.137l11.794-108.634c.429-3.95 3.732-7.075 7.624-6.28 9.676 1.977 17.898 8.205 21.922 11.252.051.039.121-.009.106-.07-2.882-11.4-13.36-19.465-21.674-23.823-3.234-1.696-5.37-5.095-4.976-8.726l6.049-55.718c.514-4.733-3.193-8.864-7.953-8.864H68.846z" fill="#FFF0CB"/></g><defs><filter id="filter0_di_1495_62795" x="0" y="0" width="589.891" height="288" filterUnits="userSpaceOnUse" color-interpolation-filters="sRGB"><feFlood flood-opacity="0" result="BackgroundImageFix"/><feColorMatrix in="SourceAlpha" values="0 0 0 0 0 0 0 0 0 0 0 0 0 0 0 0 0 0 127 0" result="hardAlpha"/><feOffset dy="12"/><feGaussianBlur stdDeviation="20"/><feComposite in2="hardAlpha" operator="out"/><feColorMatrix values="0 0 0 0 1 0 0 0 0 1 0 0 0 0 1 0 0 0 1 0"/><feBlend in2="BackgroundImageFix" result="effect1_dropShadow_1495_62795"/><feBlend in="SourceGraphic" in2="effect1_dropShadow_1495_62795" result="shape"/><feColorMatrix in="SourceAlpha" values="0 0 0 0 0 0 0 0 0 0 0 0 0 0 0 0 0 0 127 0" result="hardAlpha"/><feOffset dy="-4"/><feGaussianBlur stdDeviation="4"/><feComposite in2="hardAlpha" operator="arithmetic" k2="-1" k3="1"/><feColorMatrix values="0 0 0 0 0.883659 0 0 0 0 0.635314 0 0 0 0 0.0558422 0 0 0 0.4 0"/><feBlend in2="shape" result="effect2_innerShadow_1495_62795"/></filter></defs></svg>