<svg width="672" height="288" viewBox="0 0 672 288" fill="none" xmlns="http://www.w3.org/2000/svg"><g filter="url(#filter0_di_1495_78918)"><path fill-rule="evenodd" clip-rule="evenodd" d="M87.904 28a8 8 0 00-7.935 6.986L72.36 94.537c-.395 3.09-2.56 5.637-5.433 6.838-9.759 4.079-23.368 12.479-26.924 24.74a.077.077 0 00.117.086c3.914-2.591 11.3-7.48 20.228-10.101 4.809-1.412 8.888 2.894 8.252 7.865L55.438 226.986c-.61 4.782 3.115 9.014 7.936 9.014h535.295a8 8 0 007.935-6.986l24.531-192c.611-4.782-3.115-9.014-7.936-9.014H87.904z" fill="#FFF0CB"/></g><defs><filter id="filter0_di_1495_78918" x="0" y="0" width="671.201" height="288" filterUnits="userSpaceOnUse" color-interpolation-filters="sRGB"><feFlood flood-opacity="0" result="BackgroundImageFix"/><feColorMatrix in="SourceAlpha" values="0 0 0 0 0 0 0 0 0 0 0 0 0 0 0 0 0 0 127 0" result="hardAlpha"/><feOffset dy="12"/><feGaussianBlur stdDeviation="20"/><feComposite in2="hardAlpha" operator="out"/><feColorMatrix values="0 0 0 0 1 0 0 0 0 1 0 0 0 0 1 0 0 0 1 0"/><feBlend in2="BackgroundImageFix" result="effect1_dropShadow_1495_78918"/><feBlend in="SourceGraphic" in2="effect1_dropShadow_1495_78918" result="shape"/><feColorMatrix in="SourceAlpha" values="0 0 0 0 0 0 0 0 0 0 0 0 0 0 0 0 0 0 127 0" result="hardAlpha"/><feOffset dy="-4"/><feGaussianBlur stdDeviation="4"/><feComposite in2="hardAlpha" operator="arithmetic" k2="-1" k3="1"/><feColorMatrix values="0 0 0 0 0.883659 0 0 0 0 0.635314 0 0 0 0 0.0558422 0 0 0 0.4 0"/><feBlend in2="shape" result="effect2_innerShadow_1495_78918"/></filter></defs></svg>