<svg width="522" height="250" viewBox="0 0 522 250" fill="none" xmlns="http://www.w3.org/2000/svg"><g filter="url(#filter0_di_1419_50798)"><path fill-rule="evenodd" clip-rule="evenodd" d="M92.918 28a8 8 0 00-7.951 7.116L72.253 149.45c-.35 3.141-2.529 5.749-5.442 6.973-9.75 4.096-23.266 12.479-26.808 24.691a.077.077 0 00.117.086c3.974-2.63 11.527-7.63 20.639-10.22 4.751-1.351 8.78 2.869 8.235 7.778l-1.374 12.357c-.528 4.739 3.182 8.884 7.95 8.884h380.775a8 8 0 007.951-7.116l17.348-156c.527-4.739-3.183-8.884-7.951-8.884H92.918z" fill="#FFF0CB"/></g><defs><filter id="filter0_di_1419_50798" x="0" y="0" width="521.693" height="252" filterUnits="userSpaceOnUse" color-interpolation-filters="sRGB"><feFlood flood-opacity="0" result="BackgroundImageFix"/><feColorMatrix in="SourceAlpha" values="0 0 0 0 0 0 0 0 0 0 0 0 0 0 0 0 0 0 127 0" result="hardAlpha"/><feOffset dy="12"/><feGaussianBlur stdDeviation="20"/><feComposite in2="hardAlpha" operator="out"/><feColorMatrix values="0 0 0 0 1 0 0 0 0 1 0 0 0 0 1 0 0 0 1 0"/><feBlend in2="BackgroundImageFix" result="effect1_dropShadow_1419_50798"/><feBlend in="SourceGraphic" in2="effect1_dropShadow_1419_50798" result="shape"/><feColorMatrix in="SourceAlpha" values="0 0 0 0 0 0 0 0 0 0 0 0 0 0 0 0 0 0 127 0" result="hardAlpha"/><feOffset dy="-4"/><feGaussianBlur stdDeviation="4"/><feComposite in2="hardAlpha" operator="arithmetic" k2="-1" k3="1"/><feColorMatrix values="0 0 0 0 0.883659 0 0 0 0 0.635314 0 0 0 0 0.0558422 0 0 0 0.4 0"/><feBlend in2="shape" result="effect2_innerShadow_1419_50798"/></filter></defs></svg>