<svg width="582" height="264" viewBox="0 0 582 264" fill="none" xmlns="http://www.w3.org/2000/svg"><g filter="url(#filter0_di_1495_79314)"><path fill-rule="evenodd" clip-rule="evenodd" d="M68.235 28a8 8 0 00-7.943 7.043l-20.233 168C39.485 207.807 43.204 212 48 212h443.724a8 8 0 007.942-7.043l11.1-92.159c.503-4.176 4.183-7.306 8.275-6.33 9.983 2.383 18.343 7.916 22.599 10.733.06.04.136-.017.116-.086-3.074-10.6-13.663-18.315-22.782-22.846-3.272-1.627-5.368-5.05-4.932-8.678l5.858-48.634c.574-4.764-3.145-8.957-7.943-8.957H68.235z" fill="#FFF0CB"/></g><defs><filter id="filter0_di_1495_79314" x="0" y="0" width="581.762" height="264" filterUnits="userSpaceOnUse" color-interpolation-filters="sRGB"><feFlood flood-opacity="0" result="BackgroundImageFix"/><feColorMatrix in="SourceAlpha" values="0 0 0 0 0 0 0 0 0 0 0 0 0 0 0 0 0 0 127 0" result="hardAlpha"/><feOffset dy="12"/><feGaussianBlur stdDeviation="20"/><feComposite in2="hardAlpha" operator="out"/><feColorMatrix values="0 0 0 0 1 0 0 0 0 1 0 0 0 0 1 0 0 0 1 0"/><feBlend in2="BackgroundImageFix" result="effect1_dropShadow_1495_79314"/><feBlend in="SourceGraphic" in2="effect1_dropShadow_1495_79314" result="shape"/><feColorMatrix in="SourceAlpha" values="0 0 0 0 0 0 0 0 0 0 0 0 0 0 0 0 0 0 127 0" result="hardAlpha"/><feOffset dy="-4"/><feGaussianBlur stdDeviation="4"/><feComposite in2="hardAlpha" operator="arithmetic" k2="-1" k3="1"/><feColorMatrix values="0 0 0 0 0.883659 0 0 0 0 0.635314 0 0 0 0 0.0558422 0 0 0 0.4 0"/><feBlend in2="shape" result="effect2_innerShadow_1495_79314"/></filter></defs></svg>