<svg width="524" height="247" viewBox="0 0 524 247" fill="none" xmlns="http://www.w3.org/2000/svg"><g filter="url(#filter0_di_1419_50906)"><path fill-rule="evenodd" clip-rule="evenodd" d="M66.552 28a8 8 0 00-7.95 7.103l-17.597 156c-.536 4.744 3.176 8.897 7.95 8.897H435.45a8 8 0 007.95-7.103l4.505-39.939c.021-.185.275-.219.344-.047.032.08.108.127.192.11 7.416-1.457 30.228-10.955 34.992-27.382.02-.069-.057-.126-.116-.086-4.62 3.057-14.076 9.316-25.194 11.271-4.537.798-8.024-3.313-7.508-7.891l10.382-92.036c.535-4.744-3.176-8.897-7.949-8.897H66.552z" fill="#FFF0CB"/></g><defs><filter id="filter0_di_1419_50906" x=".953" y="0" width="522.482" height="252" filterUnits="userSpaceOnUse" color-interpolation-filters="sRGB"><feFlood flood-opacity="0" result="BackgroundImageFix"/><feColorMatrix in="SourceAlpha" values="0 0 0 0 0 0 0 0 0 0 0 0 0 0 0 0 0 0 127 0" result="hardAlpha"/><feOffset dy="12"/><feGaussianBlur stdDeviation="20"/><feComposite in2="hardAlpha" operator="out"/><feColorMatrix values="0 0 0 0 1 0 0 0 0 1 0 0 0 0 1 0 0 0 1 0"/><feBlend in2="BackgroundImageFix" result="effect1_dropShadow_1419_50906"/><feBlend in="SourceGraphic" in2="effect1_dropShadow_1419_50906" result="shape"/><feColorMatrix in="SourceAlpha" values="0 0 0 0 0 0 0 0 0 0 0 0 0 0 0 0 0 0 127 0" result="hardAlpha"/><feOffset dy="-4"/><feGaussianBlur stdDeviation="4"/><feComposite in2="hardAlpha" operator="arithmetic" k2="-1" k3="1"/><feColorMatrix values="0 0 0 0 0.883659 0 0 0 0 0.635314 0 0 0 0 0.0558422 0 0 0 0.4 0"/><feBlend in2="shape" result="effect2_innerShadow_1419_50906"/></filter></defs></svg>