<svg width="596" height="264" viewBox="0 0 596 264" fill="none" xmlns="http://www.w3.org/2000/svg"><g filter="url(#filter0_di_1495_72017)"><path fill-rule="evenodd" clip-rule="evenodd" d="M80.973 28a8 8 0 00-7.937 6.996l-1.828 14.462c-.383 3.024-2.463 5.535-5.257 6.754-9.668 4.22-22.51 12.466-25.948 24.323a.077.077 0 00.117.086c3.724-2.465 10.591-7.01 18.94-9.704 4.853-1.567 9.086 2.758 8.446 7.819L51.795 202.997c-.605 4.778 3.12 9.003 7.936 9.003H526.34a7.999 7.999 0 007.936-6.997l21.242-168c.604-4.778-3.12-9.003-7.937-9.003H80.973z" fill="#FFF0CB"/></g><defs><filter id="filter0_di_1495_72017" x="0" y="0" width="595.582" height="264" filterUnits="userSpaceOnUse" color-interpolation-filters="sRGB"><feFlood flood-opacity="0" result="BackgroundImageFix"/><feColorMatrix in="SourceAlpha" values="0 0 0 0 0 0 0 0 0 0 0 0 0 0 0 0 0 0 127 0" result="hardAlpha"/><feOffset dy="12"/><feGaussianBlur stdDeviation="20"/><feComposite in2="hardAlpha" operator="out"/><feColorMatrix values="0 0 0 0 1 0 0 0 0 1 0 0 0 0 1 0 0 0 1 0"/><feBlend in2="BackgroundImageFix" result="effect1_dropShadow_1495_72017"/><feBlend in="SourceGraphic" in2="effect1_dropShadow_1495_72017" result="shape"/><feColorMatrix in="SourceAlpha" values="0 0 0 0 0 0 0 0 0 0 0 0 0 0 0 0 0 0 127 0" result="hardAlpha"/><feOffset dy="-4"/><feGaussianBlur stdDeviation="4"/><feComposite in2="hardAlpha" operator="arithmetic" k2="-1" k3="1"/><feColorMatrix values="0 0 0 0 0.883659 0 0 0 0 0.635314 0 0 0 0 0.0558422 0 0 0 0.4 0"/><feBlend in2="shape" result="effect2_innerShadow_1495_72017"/></filter></defs></svg>