<svg width="555" height="252" viewBox="0 0 555 252" fill="none" xmlns="http://www.w3.org/2000/svg"><g filter="url(#filter0_di_1419_52162)"><path fill-rule="evenodd" clip-rule="evenodd" d="M67.1 28a8 8 0 00-7.94 7.028l-19.1 156c-.583 4.768 3.137 8.972 7.941 8.972h420.823a8 8 0 007.941-7.028l11.892-97.137c.563-4.598 4.93-7.777 9.263-6.137 7.117 2.694 12.913 6.502 16.226 8.68.06.04.137-.017.117-.087-2.539-8.788-10.287-15.574-18.078-20.2-2.937-1.745-4.746-4.982-4.331-8.373l4.01-32.746c.583-4.768-3.137-8.972-7.941-8.972H67.1z" fill="#FFF0CB"/></g><defs><filter id="filter0_di_1419_52162" x="0" y="0" width="554.266" height="252" filterUnits="userSpaceOnUse" color-interpolation-filters="sRGB"><feFlood flood-opacity="0" result="BackgroundImageFix"/><feColorMatrix in="SourceAlpha" values="0 0 0 0 0 0 0 0 0 0 0 0 0 0 0 0 0 0 127 0" result="hardAlpha"/><feOffset dy="12"/><feGaussianBlur stdDeviation="20"/><feComposite in2="hardAlpha" operator="out"/><feColorMatrix values="0 0 0 0 1 0 0 0 0 1 0 0 0 0 1 0 0 0 1 0"/><feBlend in2="BackgroundImageFix" result="effect1_dropShadow_1419_52162"/><feBlend in="SourceGraphic" in2="effect1_dropShadow_1419_52162" result="shape"/><feColorMatrix in="SourceAlpha" values="0 0 0 0 0 0 0 0 0 0 0 0 0 0 0 0 0 0 127 0" result="hardAlpha"/><feOffset dy="-4"/><feGaussianBlur stdDeviation="4"/><feComposite in2="hardAlpha" operator="arithmetic" k2="-1" k3="1"/><feColorMatrix values="0 0 0 0 0.883659 0 0 0 0 0.635314 0 0 0 0 0.0558422 0 0 0 0.4 0"/><feBlend in2="shape" result="effect2_innerShadow_1419_52162"/></filter></defs></svg>