<svg width="650" height="350" viewBox="0 0 650 350" fill="none" xmlns="http://www.w3.org/2000/svg"><g filter="url(#filter0_di_1419_49099)"><path fill-rule="evenodd" clip-rule="evenodd" d="M526.648 266.166C607.505 234.001 641.22 157.792 572.505 87.5c-69.409-71.001-337.921-75.692-422.93-24.388-76.022 45.88-97.764 111.122-66.456 170.56 2.788 5.293 4.2 11.431 2.11 17.036-7.84 21.035-27.395 34.674-44.374 46.517-.182.127-.089.412.133.41 23.531-.214 44.135-10.808 58.528-21.346 7.515-5.504 17.656-6.391 26.149-2.565 40.655 18.312 99.109 16.352 149.226 14.671 13.666-.458 26.713-.896 38.61-.896 20.582 0 38.457.719 54.873 1.379 53.772 2.161 91.896 3.693 158.274-22.712z" fill="#fff"/></g><defs><filter id="filter0_di_1419_49099" x=".759" y=".791" width="648.755" height="348.844" filterUnits="userSpaceOnUse" color-interpolation-filters="sRGB"><feFlood flood-opacity="0" result="BackgroundImageFix"/><feColorMatrix in="SourceAlpha" values="0 0 0 0 0 0 0 0 0 0 0 0 0 0 0 0 0 0 127 0" result="hardAlpha"/><feOffset dy="12"/><feGaussianBlur stdDeviation="20"/><feComposite in2="hardAlpha" operator="out"/><feColorMatrix values="0 0 0 0 0.909804 0 0 0 0 0.313726 0 0 0 0 0.470588 0 0 0 1 0"/><feBlend in2="BackgroundImageFix" result="effect1_dropShadow_1419_49099"/><feBlend in="SourceGraphic" in2="effect1_dropShadow_1419_49099" result="shape"/><feColorMatrix in="SourceAlpha" values="0 0 0 0 0 0 0 0 0 0 0 0 0 0 0 0 0 0 127 0" result="hardAlpha"/><feOffset dy="-4"/><feGaussianBlur stdDeviation="4"/><feComposite in2="hardAlpha" operator="arithmetic" k2="-1" k3="1"/><feColorMatrix values="0 0 0 0 0.909804 0 0 0 0 0.313726 0 0 0 0 0.470588 0 0 0 0.48 0"/><feBlend in2="shape" result="effect2_innerShadow_1419_49099"/></filter></defs></svg>