<svg width="664" height="376" viewBox="0 0 664 376" fill="none" xmlns="http://www.w3.org/2000/svg"><g filter="url(#filter0_di_1495_78605)"><path fill-rule="evenodd" clip-rule="evenodd" d="M540.33 289.375c80.857-32.165 114.573-132.374 45.857-202.666-69.408-71.001-337.921-75.692-422.93-24.388-74.424 44.916-96.827 129.354-68.36 190.512 2.652 5.695 3.779 12.2 1.287 17.966-10.616 24.562-34.752 39.55-55.704 52.562-.224.139-.132.482.131.494 28.775 1.274 54.564-10.705 72.395-22.656 8.641-5.791 19.843-6.562 29.605-2.972 26.35 9.692 58.824 9.12 91.795 8.54 22.661-.399 45.556-.802 66.861 2.119 78.92 10.824 152.42 14.956 239.063-19.511z" fill="#fff"/></g><defs><filter id="filter0_di_1495_78605" x=".354" y="0" width="662.842" height="375.949" filterUnits="userSpaceOnUse" color-interpolation-filters="sRGB"><feFlood flood-opacity="0" result="BackgroundImageFix"/><feColorMatrix in="SourceAlpha" values="0 0 0 0 0 0 0 0 0 0 0 0 0 0 0 0 0 0 127 0" result="hardAlpha"/><feOffset dy="12"/><feGaussianBlur stdDeviation="20"/><feComposite in2="hardAlpha" operator="out"/><feColorMatrix values="0 0 0 0 0.909804 0 0 0 0 0.313726 0 0 0 0 0.470588 0 0 0 1 0"/><feBlend in2="BackgroundImageFix" result="effect1_dropShadow_1495_78605"/><feBlend in="SourceGraphic" in2="effect1_dropShadow_1495_78605" result="shape"/><feColorMatrix in="SourceAlpha" values="0 0 0 0 0 0 0 0 0 0 0 0 0 0 0 0 0 0 127 0" result="hardAlpha"/><feOffset dy="-4"/><feGaussianBlur stdDeviation="4"/><feComposite in2="hardAlpha" operator="arithmetic" k2="-1" k3="1"/><feColorMatrix values="0 0 0 0 0.909804 0 0 0 0 0.313726 0 0 0 0 0.470588 0 0 0 0.48 0"/><feBlend in2="shape" result="effect2_innerShadow_1495_78605"/></filter></defs></svg>