<svg width="464" height="204" viewBox="0 0 464 204" fill="none" xmlns="http://www.w3.org/2000/svg"><g filter="url(#filter0_di_1419_61642)"><path fill-rule="evenodd" clip-rule="evenodd" d="M249.807 28.318l-5.786-.031c-5.432-.03-10.945-.075-16.506-.12-68.6-.548-144.736-1.157-171.231 22.874-20.282 18.396-21.388 39.443-4.601 57.706 2.356 2.563 3.256 6.348 1.228 9.179-2.156 3.01-4.687 5.361-7.656 8.118-.467.435-.294 1.202.332 1.325 4.662.92 9.756-1.085 13.985-3.766 3.118-1.978 7.139-2.277 10.29-.351 12.34 7.539 28.436 14.157 48.16 19.316 68.197 17.837 161.351 8.286 226.395-11.263 58.069-17.453 97.041-51.439 71.402-78.242-22.942-23.985-99.77-24.393-166.012-24.745z" fill="#fff"/></g><defs><filter id="filter0_di_1419_61642" x="0" y="0" width="463.85" height="204" filterUnits="userSpaceOnUse" color-interpolation-filters="sRGB"><feFlood flood-opacity="0" result="BackgroundImageFix"/><feColorMatrix in="SourceAlpha" values="0 0 0 0 0 0 0 0 0 0 0 0 0 0 0 0 0 0 127 0" result="hardAlpha"/><feOffset dy="12"/><feGaussianBlur stdDeviation="20"/><feComposite in2="hardAlpha" operator="out"/><feColorMatrix values="0 0 0 0 0.909804 0 0 0 0 0.313726 0 0 0 0 0.470588 0 0 0 1 0"/><feBlend in2="BackgroundImageFix" result="effect1_dropShadow_1419_61642"/><feBlend in="SourceGraphic" in2="effect1_dropShadow_1419_61642" result="shape"/><feColorMatrix in="SourceAlpha" values="0 0 0 0 0 0 0 0 0 0 0 0 0 0 0 0 0 0 127 0" result="hardAlpha"/><feOffset dy="-4"/><feGaussianBlur stdDeviation="4"/><feComposite in2="hardAlpha" operator="arithmetic" k2="-1" k3="1"/><feColorMatrix values="0 0 0 0 0.909804 0 0 0 0 0.313726 0 0 0 0 0.470588 0 0 0 0.16 0"/><feBlend in2="shape" result="effect2_innerShadow_1419_61642"/></filter></defs></svg>