<svg width="380" height="241" viewBox="0 0 380 241" fill="none" xmlns="http://www.w3.org/2000/svg"><g filter="url(#filter0_di_1445_59649)"><path fill-rule="evenodd" clip-rule="evenodd" d="M273.43 56.709c31.082 4.202 57.016 7.709 64.858 41.912 11.139 48.579-34.092 69.742-77.239 79.36-73.185 16.313-164.335 19.185-201.473-24.306-1.837-2.151-4.897-2.796-7.557-1.838-3.11 1.119-6.407 1.691-9.51 1.148-.546-.095-.688-.775-.254-1.12 2.436-1.935 4.578-3.636 6.459-5.607 2.07-2.168 2.064-5.442.716-8.12-15.464-30.723-11.992-68.088 11.03-86.54 45.634-36.577 94.66-23.341 148.755-8.737 11.089 2.994 22.391 6.045 33.92 8.736 10.338 2.414 20.569 3.797 30.295 5.112z" fill="#fff"/></g><defs><filter id="filter0_di_1445_59649" x="0" y="0" width="380" height="241" filterUnits="userSpaceOnUse" color-interpolation-filters="sRGB"><feFlood flood-opacity="0" result="BackgroundImageFix"/><feColorMatrix in="SourceAlpha" values="0 0 0 0 0 0 0 0 0 0 0 0 0 0 0 0 0 0 127 0" result="hardAlpha"/><feOffset dy="12"/><feGaussianBlur stdDeviation="20"/><feComposite in2="hardAlpha" operator="out"/><feColorMatrix values="0 0 0 0 0.909804 0 0 0 0 0.313726 0 0 0 0 0.470588 0 0 0 1 0"/><feBlend in2="BackgroundImageFix" result="effect1_dropShadow_1445_59649"/><feBlend in="SourceGraphic" in2="effect1_dropShadow_1445_59649" result="shape"/><feColorMatrix in="SourceAlpha" values="0 0 0 0 0 0 0 0 0 0 0 0 0 0 0 0 0 0 127 0" result="hardAlpha"/><feOffset dy="-4"/><feGaussianBlur stdDeviation="4"/><feComposite in2="hardAlpha" operator="arithmetic" k2="-1" k3="1"/><feColorMatrix values="0 0 0 0 0.909804 0 0 0 0 0.313726 0 0 0 0 0.470588 0 0 0 0.16 0"/><feBlend in2="shape" result="effect2_innerShadow_1445_59649"/></filter></defs></svg>