<svg width="372" height="217" viewBox="0 0 372 217" fill="none" xmlns="http://www.w3.org/2000/svg"><g filter="url(#filter0_di_1419_44080)"><path fill-rule="evenodd" clip-rule="evenodd" d="M267.205 52.43c30.253 3.575 55.496 6.559 63.129 35.663 10.841 41.338-33.183 59.347-75.179 67.53-64.24 12.518-142.698 15.735-183.998-10.895-3.073-1.981-7.05-1.913-10.246-.138-4.316 2.399-9.593 4.236-14.401 3.395-.546-.095-.689-.775-.254-1.12 3.597-2.858 6.551-5.205 8.975-8.664 1.833-2.614 1.128-6.072-.814-8.606a55.37 55.37 0 01-.445-.589c-20.316-27.237-18.596-63.73 5.943-80.926 44.416-31.124 92.135-19.861 144.788-7.434 10.793 2.547 21.793 5.144 33.015 7.434 10.062 2.053 20.02 3.23 29.487 4.35z" fill="#fff"/></g><defs><filter id="filter0_di_1419_44080" x="0" y="0" width="372" height="217" filterUnits="userSpaceOnUse" color-interpolation-filters="sRGB"><feFlood flood-opacity="0" result="BackgroundImageFix"/><feColorMatrix in="SourceAlpha" values="0 0 0 0 0 0 0 0 0 0 0 0 0 0 0 0 0 0 127 0" result="hardAlpha"/><feOffset dy="12"/><feGaussianBlur stdDeviation="20"/><feComposite in2="hardAlpha" operator="out"/><feColorMatrix values="0 0 0 0 0.909804 0 0 0 0 0.313726 0 0 0 0 0.470588 0 0 0 1 0"/><feBlend in2="BackgroundImageFix" result="effect1_dropShadow_1419_44080"/><feBlend in="SourceGraphic" in2="effect1_dropShadow_1419_44080" result="shape"/><feColorMatrix in="SourceAlpha" values="0 0 0 0 0 0 0 0 0 0 0 0 0 0 0 0 0 0 127 0" result="hardAlpha"/><feOffset dy="-4"/><feGaussianBlur stdDeviation="4"/><feComposite in2="hardAlpha" operator="arithmetic" k2="-1" k3="1"/><feColorMatrix values="0 0 0 0 0.909804 0 0 0 0 0.313726 0 0 0 0 0.470588 0 0 0 0.16 0"/><feBlend in2="shape" result="effect2_innerShadow_1419_44080"/></filter></defs></svg>