<svg width="372" height="193" viewBox="0 0 372 193" fill="none" xmlns="http://www.w3.org/2000/svg"><g filter="url(#filter0_di_1445_49228)"><path fill-rule="evenodd" clip-rule="evenodd" d="M267.205 48.15c30.253 2.95 55.496 5.41 63.129 29.416 10.841 34.096-33.183 48.95-75.179 55.7-66.174 10.636-147.437 13.131-187.627-11.039-3.312-1.992-7.576-1.729-10.852.321-4.584 2.869-10.68 5.397-16.166 4.437-.547-.095-.689-.775-.255-1.12 4.524-3.594 8.032-6.381 10.746-11.586 1.326-2.543.647-5.579-1.048-7.893C34.02 84.624 37.13 57.731 59.915 44.562c44.417-25.671 92.135-16.382 144.788-6.131 10.793 2.1 21.794 4.242 33.015 6.131 10.063 1.694 20.02 2.665 29.487 3.588z" fill="#fff"/></g><defs><filter id="filter0_di_1445_49228" x="0" y="0" width="372" height="193" filterUnits="userSpaceOnUse" color-interpolation-filters="sRGB"><feFlood flood-opacity="0" result="BackgroundImageFix"/><feColorMatrix in="SourceAlpha" values="0 0 0 0 0 0 0 0 0 0 0 0 0 0 0 0 0 0 127 0" result="hardAlpha"/><feOffset dy="12"/><feGaussianBlur stdDeviation="20"/><feComposite in2="hardAlpha" operator="out"/><feColorMatrix values="0 0 0 0 0.909804 0 0 0 0 0.313726 0 0 0 0 0.470588 0 0 0 1 0"/><feBlend in2="BackgroundImageFix" result="effect1_dropShadow_1445_49228"/><feBlend in="SourceGraphic" in2="effect1_dropShadow_1445_49228" result="shape"/><feColorMatrix in="SourceAlpha" values="0 0 0 0 0 0 0 0 0 0 0 0 0 0 0 0 0 0 127 0" result="hardAlpha"/><feOffset dy="-4"/><feGaussianBlur stdDeviation="4"/><feComposite in2="hardAlpha" operator="arithmetic" k2="-1" k3="1"/><feColorMatrix values="0 0 0 0 0.909804 0 0 0 0 0.313726 0 0 0 0 0.470588 0 0 0 0.16 0"/><feBlend in2="shape" result="effect2_innerShadow_1445_49228"/></filter></defs></svg>