<svg width="500" height="319" viewBox="0 0 500 319" fill="none" xmlns="http://www.w3.org/2000/svg">
<g filter="url(#filter0_di_1445_48807)">
<path fill-rule="evenodd" clip-rule="evenodd" d="M236.736 266.648C334.486 267.989 398.168 245.833 436.423 214.699C474.678 183.564 463.289 100.017 423.604 66.4945C366.01 17.8438 142.31 16.3124 82.3383 61.8133C48.5163 87.4742 39.4309 154.302 52.7908 197.731C53.2759 199.308 53.3284 200.993 52.7662 202.544C49.8617 210.556 45.8301 213.759 40.2555 218.188C39.8211 218.533 39.9634 219.213 40.5098 219.308C44.3521 219.981 48.4942 218.942 52.206 217.274C56.0427 215.549 60.8091 216.618 63.2078 220.073C64.7244 222.258 66.345 224.272 68.0688 226.096C104.696 264.837 175.929 265.814 236.709 266.648L236.736 266.648Z" fill="white"/>
</g>
<defs>
<filter id="filter0_di_1445_48807" x="0" y="0.808594" width="499.936" height="317.897" filterUnits="userSpaceOnUse" color-interpolation-filters="sRGB">
<feFlood flood-opacity="0" result="BackgroundImageFix"/>
<feColorMatrix in="SourceAlpha" type="matrix" values="0 0 0 0 0 0 0 0 0 0 0 0 0 0 0 0 0 0 127 0" result="hardAlpha"/>
<feOffset dy="12"/>
<feGaussianBlur stdDeviation="20"/>
<feComposite in2="hardAlpha" operator="out"/>
<feColorMatrix type="matrix" values="0 0 0 0 0.909804 0 0 0 0 0.313726 0 0 0 0 0.470588 0 0 0 1 0"/>
<feBlend mode="normal" in2="BackgroundImageFix" result="effect1_dropShadow_1445_48807"/>
<feBlend mode="normal" in="SourceGraphic" in2="effect1_dropShadow_1445_48807" result="shape"/>
<feColorMatrix in="SourceAlpha" type="matrix" values="0 0 0 0 0 0 0 0 0 0 0 0 0 0 0 0 0 0 127 0" result="hardAlpha"/>
<feOffset dy="-4"/>
<feGaussianBlur stdDeviation="4"/>
<feComposite in2="hardAlpha" operator="arithmetic" k2="-1" k3="1"/>
<feColorMatrix type="matrix" values="0 0 0 0 0.909804 0 0 0 0 0.313726 0 0 0 0 0.470588 0 0 0 0.16 0"/>
<feBlend mode="normal" in2="shape" result="effect2_innerShadow_1445_48807"/>
</filter>
</defs>
</svg>
