<svg width="440" height="227" viewBox="0 0 440 227" fill="none" xmlns="http://www.w3.org/2000/svg"><g filter="url(#filter0_di_1465_69019)"><path fill-rule="evenodd" clip-rule="evenodd" d="M236.772 28.377l-5.427-.037c-5.095-.036-10.264-.088-15.481-.141-64.338-.65-135.743-1.373-160.592 27.116-19.973 22.899-20.118 49.262-1.827 71.632 2.225 2.721 2.803 6.583.597 9.319-2.267 2.814-4.857 5.219-7.812 7.964-.554.515-.349 1.424.394 1.571 4.675.923 9.718-.637 14.196-3.065 3.219-1.744 7.205-1.726 10.177.412 11.142 8.015 25.232 15.069 42.178 20.671 63.959 21.145 151.326 9.823 212.329-13.353 54.461-20.69 91.011-60.98 66.965-92.755-21.517-28.433-93.571-28.916-155.697-29.334z" fill="#fff"/></g><defs><filter id="filter0_di_1465_69019" x="0" y="0" width="440" height="227" filterUnits="userSpaceOnUse" color-interpolation-filters="sRGB"><feFlood flood-opacity="0" result="BackgroundImageFix"/><feColorMatrix in="SourceAlpha" values="0 0 0 0 0 0 0 0 0 0 0 0 0 0 0 0 0 0 127 0" result="hardAlpha"/><feOffset dy="12"/><feGaussianBlur stdDeviation="20"/><feComposite in2="hardAlpha" operator="out"/><feColorMatrix values="0 0 0 0 0.909804 0 0 0 0 0.313726 0 0 0 0 0.470588 0 0 0 1 0"/><feBlend in2="BackgroundImageFix" result="effect1_dropShadow_1465_69019"/><feBlend in="SourceGraphic" in2="effect1_dropShadow_1465_69019" result="shape"/><feColorMatrix in="SourceAlpha" values="0 0 0 0 0 0 0 0 0 0 0 0 0 0 0 0 0 0 127 0" result="hardAlpha"/><feOffset dy="-4"/><feGaussianBlur stdDeviation="4"/><feComposite in2="hardAlpha" operator="arithmetic" k2="-1" k3="1"/><feColorMatrix values="0 0 0 0 0.909804 0 0 0 0 0.313726 0 0 0 0 0.470588 0 0 0 0.16 0"/><feBlend in2="shape" result="effect2_innerShadow_1465_69019"/></filter></defs></svg>