<svg width="548" height="264" viewBox="0 0 548 264" fill="none" xmlns="http://www.w3.org/2000/svg"><g filter="url(#filter0_di_1495_68397)"><path fill-rule="evenodd" clip-rule="evenodd" d="M78.85 28a8 8 0 00-7.948 7.09l-1.741 15.216c-.339 2.958-2.305 5.45-5 6.717-9.4 4.421-20.928 12.374-24.158 23.512a.077.077 0 00.117.086c3.426-2.268 9.512-6.296 16.964-9.024 4.89-1.79 9.353 2.508 8.761 7.683l-14.17 123.81c-.542 4.748 3.17 8.91 7.949 8.91h420.838a8 8 0 007.948-7.09l19.227-168c.543-4.748-3.17-8.91-7.949-8.91H78.85z" fill="#FFF0CB"/></g><defs><filter id="filter0_di_1495_68397" x="0" y="0" width="547.689" height="264" filterUnits="userSpaceOnUse" color-interpolation-filters="sRGB"><feFlood flood-opacity="0" result="BackgroundImageFix"/><feColorMatrix in="SourceAlpha" values="0 0 0 0 0 0 0 0 0 0 0 0 0 0 0 0 0 0 127 0" result="hardAlpha"/><feOffset dy="12"/><feGaussianBlur stdDeviation="20"/><feComposite in2="hardAlpha" operator="out"/><feColorMatrix values="0 0 0 0 1 0 0 0 0 1 0 0 0 0 1 0 0 0 1 0"/><feBlend in2="BackgroundImageFix" result="effect1_dropShadow_1495_68397"/><feBlend in="SourceGraphic" in2="effect1_dropShadow_1495_68397" result="shape"/><feColorMatrix in="SourceAlpha" values="0 0 0 0 0 0 0 0 0 0 0 0 0 0 0 0 0 0 127 0" result="hardAlpha"/><feOffset dy="-4"/><feGaussianBlur stdDeviation="4"/><feComposite in2="hardAlpha" operator="arithmetic" k2="-1" k3="1"/><feColorMatrix values="0 0 0 0 0.883659 0 0 0 0 0.635314 0 0 0 0 0.0558422 0 0 0 0.4 0"/><feBlend in2="shape" result="effect2_innerShadow_1495_68397"/></filter></defs></svg>