<svg width="492" height="227" viewBox="0 0 492 227" fill="none" xmlns="http://www.w3.org/2000/svg"><g filter="url(#filter0_di_1419_52652)"><path fill-rule="evenodd" clip-rule="evenodd" d="M76.625 28a8 8 0 00-7.954 7.147l-1.736 16.194c-.309 2.879-2.163 5.334-4.744 6.646-8.98 4.568-19.18 12.177-22.188 22.548a.077.077 0 00.117.086c3.062-2.027 8.25-5.46 14.638-8.115 4.94-2.052 9.668 2.239 9.098 7.557L51.95 191.147c-.507 4.729 3.199 8.853 7.954 8.853h366.472a7.999 7.999 0 007.954-7.147l16.722-156c.507-4.729-3.199-8.853-7.954-8.853H76.625z" fill="#FFF0CB"/></g><defs><filter id="filter0_di_1419_52652" x="0" y="0" width="491.098" height="252" filterUnits="userSpaceOnUse" color-interpolation-filters="sRGB"><feFlood flood-opacity="0" result="BackgroundImageFix"/><feColorMatrix in="SourceAlpha" values="0 0 0 0 0 0 0 0 0 0 0 0 0 0 0 0 0 0 127 0" result="hardAlpha"/><feOffset dy="12"/><feGaussianBlur stdDeviation="20"/><feComposite in2="hardAlpha" operator="out"/><feColorMatrix values="0 0 0 0 1 0 0 0 0 1 0 0 0 0 1 0 0 0 1 0"/><feBlend in2="BackgroundImageFix" result="effect1_dropShadow_1419_52652"/><feBlend in="SourceGraphic" in2="effect1_dropShadow_1419_52652" result="shape"/><feColorMatrix in="SourceAlpha" values="0 0 0 0 0 0 0 0 0 0 0 0 0 0 0 0 0 0 127 0" result="hardAlpha"/><feOffset dy="-4"/><feGaussianBlur stdDeviation="4"/><feComposite in2="hardAlpha" operator="arithmetic" k2="-1" k3="1"/><feColorMatrix values="0 0 0 0 0.883659 0 0 0 0 0.635314 0 0 0 0 0.0558422 0 0 0 0.4 0"/><feBlend in2="shape" result="effect2_innerShadow_1419_52652"/></filter></defs></svg>