<svg width="553" height="288" viewBox="0 0 553 288" fill="none" xmlns="http://www.w3.org/2000/svg"><g filter="url(#filter0_di_1495_68604)"><path fill-rule="evenodd" clip-rule="evenodd" d="M67.439 28a8 8 0 00-7.96 7.194l-19.438 192c-.477 4.713 3.223 8.806 7.96 8.806h420.861a8 8 0 007.959-7.194l2.278-22.498c.403-3.984 3.715-7.13 7.671-6.518 11.484 1.776 21.304 8.276 26.041 11.411.06.04.136-.017.116-.086-3.395-11.708-15.958-19.896-25.581-24.162-3.457-1.532-5.78-5.017-5.399-8.779l14.312-141.368c.477-4.713-3.223-8.806-7.96-8.806H67.439z" fill="#FFF0CB"/></g><defs><filter id="filter0_di_1495_68604" x="0" y="0" width="552.93" height="288" filterUnits="userSpaceOnUse" color-interpolation-filters="sRGB"><feFlood flood-opacity="0" result="BackgroundImageFix"/><feColorMatrix in="SourceAlpha" values="0 0 0 0 0 0 0 0 0 0 0 0 0 0 0 0 0 0 127 0" result="hardAlpha"/><feOffset dy="12"/><feGaussianBlur stdDeviation="20"/><feComposite in2="hardAlpha" operator="out"/><feColorMatrix values="0 0 0 0 1 0 0 0 0 1 0 0 0 0 1 0 0 0 1 0"/><feBlend in2="BackgroundImageFix" result="effect1_dropShadow_1495_68604"/><feBlend in="SourceGraphic" in2="effect1_dropShadow_1495_68604" result="shape"/><feColorMatrix in="SourceAlpha" values="0 0 0 0 0 0 0 0 0 0 0 0 0 0 0 0 0 0 127 0" result="hardAlpha"/><feOffset dy="-4"/><feGaussianBlur stdDeviation="4"/><feComposite in2="hardAlpha" operator="arithmetic" k2="-1" k3="1"/><feColorMatrix values="0 0 0 0 0.883659 0 0 0 0 0.635314 0 0 0 0 0.0558422 0 0 0 0.4 0"/><feBlend in2="shape" result="effect2_innerShadow_1495_68604"/></filter></defs></svg>