<svg width="551" height="264" viewBox="0 0 551 264" fill="none" xmlns="http://www.w3.org/2000/svg"><g filter="url(#filter0_di_1495_68803)"><path fill-rule="evenodd" clip-rule="evenodd" d="M67.227 28a8 8 0 00-7.948 7.09l-19.226 168C39.51 207.838 43.223 212 48 212h420.838a8 8 0 007.948-7.09l2.652-23.169c.476-4.161 4.11-7.31 8.194-6.38 10.187 2.319 18.739 7.98 23.061 10.84.059.04.136-.017.116-.086-3.126-10.778-14.021-18.573-23.239-23.072-3.292-1.606-5.418-5.023-5.001-8.661L496.014 36.91c.543-4.748-3.17-8.91-7.949-8.91H67.227z" fill="#FFF0CB"/></g><defs><filter id="filter0_di_1495_68803" x="0" y="0" width="550.812" height="264" filterUnits="userSpaceOnUse" color-interpolation-filters="sRGB"><feFlood flood-opacity="0" result="BackgroundImageFix"/><feColorMatrix in="SourceAlpha" values="0 0 0 0 0 0 0 0 0 0 0 0 0 0 0 0 0 0 127 0" result="hardAlpha"/><feOffset dy="12"/><feGaussianBlur stdDeviation="20"/><feComposite in2="hardAlpha" operator="out"/><feColorMatrix values="0 0 0 0 1 0 0 0 0 1 0 0 0 0 1 0 0 0 1 0"/><feBlend in2="BackgroundImageFix" result="effect1_dropShadow_1495_68803"/><feBlend in="SourceGraphic" in2="effect1_dropShadow_1495_68803" result="shape"/><feColorMatrix in="SourceAlpha" values="0 0 0 0 0 0 0 0 0 0 0 0 0 0 0 0 0 0 127 0" result="hardAlpha"/><feOffset dy="-4"/><feGaussianBlur stdDeviation="4"/><feComposite in2="hardAlpha" operator="arithmetic" k2="-1" k3="1"/><feColorMatrix values="0 0 0 0 0.883659 0 0 0 0 0.635314 0 0 0 0 0.0558422 0 0 0 0.4 0"/><feBlend in2="shape" result="effect2_innerShadow_1495_68803"/></filter></defs></svg>