<svg width="486" height="227" viewBox="0 0 486 227" fill="none" xmlns="http://www.w3.org/2000/svg"><g filter="url(#filter0_di_1419_52846)"><path fill-rule="evenodd" clip-rule="evenodd" d="M64.43 28a8 8 0 00-7.955 7.162l-16.43 156C39.547 195.886 43.25 200 48 200h359.796a8 8 0 007.956-7.162l2.303-21.861c.475-4.51 4.63-7.753 8.931-6.318 8.124 2.711 14.794 7.126 18.445 9.542.06.04.136-.016.116-.085-2.777-9.578-11.69-16.801-20.109-21.447-3.027-1.671-4.938-4.912-4.576-8.351l11.32-107.48c.498-4.724-3.206-8.838-7.956-8.838H64.431z" fill="#FFF0CB"/></g><defs><filter id="filter0_di_1419_52846" x="0" y="0" width="485.551" height="252" filterUnits="userSpaceOnUse" color-interpolation-filters="sRGB"><feFlood flood-opacity="0" result="BackgroundImageFix"/><feColorMatrix in="SourceAlpha" values="0 0 0 0 0 0 0 0 0 0 0 0 0 0 0 0 0 0 127 0" result="hardAlpha"/><feOffset dy="12"/><feGaussianBlur stdDeviation="20"/><feComposite in2="hardAlpha" operator="out"/><feColorMatrix values="0 0 0 0 1 0 0 0 0 1 0 0 0 0 1 0 0 0 1 0"/><feBlend in2="BackgroundImageFix" result="effect1_dropShadow_1419_52846"/><feBlend in="SourceGraphic" in2="effect1_dropShadow_1419_52846" result="shape"/><feColorMatrix in="SourceAlpha" values="0 0 0 0 0 0 0 0 0 0 0 0 0 0 0 0 0 0 127 0" result="hardAlpha"/><feOffset dy="-4"/><feGaussianBlur stdDeviation="4"/><feComposite in2="hardAlpha" operator="arithmetic" k2="-1" k3="1"/><feColorMatrix values="0 0 0 0 0.883659 0 0 0 0 0.635314 0 0 0 0 0.0558422 0 0 0 0.4 0"/><feBlend in2="shape" result="effect2_innerShadow_1419_52846"/></filter></defs></svg>