<svg width="1063" height="736" viewBox="0 0 1063 736" fill="none" xmlns="http://www.w3.org/2000/svg"><g filter="url(#filter0_di_1465_68532)"><path fill-rule="evenodd" clip-rule="evenodd" d="M930.73 132.071C843.096 13.463 552.64 25.283 400.219 31.734c-149.878 6.343-269.17 41.164-333.377 163.338C-26.445 372.574 123.311 683.2 517.872 683.2c252.863 0 414.447-158.944 452.86-321.734 3.049-12.92 15.475-21.977 27.809-17.066 10.318 4.106 18.258 8.886 23.198 11.865.14.082.31-.025.3-.183-1.14-14.4-13.51-25.573-27.389-33.363-9.285-5.212-15.573-14.898-15.219-25.54 1.993-60.015-13.691-117.724-48.702-165.108z" fill="#fff"/></g><defs><filter id="filter0_di_1465_68532" x="0" y="0" width="1062.04" height="735.2" filterUnits="userSpaceOnUse" color-interpolation-filters="sRGB"><feFlood flood-opacity="0" result="BackgroundImageFix"/><feColorMatrix in="SourceAlpha" values="0 0 0 0 0 0 0 0 0 0 0 0 0 0 0 0 0 0 127 0" result="hardAlpha"/><feOffset dy="12"/><feGaussianBlur stdDeviation="20"/><feComposite in2="hardAlpha" operator="out"/><feColorMatrix values="0 0 0 0 0.909804 0 0 0 0 0.313726 0 0 0 0 0.470588 0 0 0 1 0"/><feBlend in2="BackgroundImageFix" result="effect1_dropShadow_1465_68532"/><feBlend in="SourceGraphic" in2="effect1_dropShadow_1465_68532" result="shape"/><feColorMatrix in="SourceAlpha" values="0 0 0 0 0 0 0 0 0 0 0 0 0 0 0 0 0 0 127 0" result="hardAlpha"/><feOffset dy="-4"/><feGaussianBlur stdDeviation="4"/><feComposite in2="hardAlpha" operator="arithmetic" k2="-1" k3="1"/><feColorMatrix values="0 0 0 0 0.909804 0 0 0 0 0.313726 0 0 0 0 0.470588 0 0 0 0.48 0"/><feBlend in2="shape" result="effect2_innerShadow_1465_68532"/></filter></defs></svg>