<svg width="446" height="198" viewBox="0 0 446 198" fill="none" xmlns="http://www.w3.org/2000/svg"><g filter="url(#filter0_d_2_30750)"><path d="M166.55 44.568c42.522 1.06 161.984-27.018 200.365-12.282 43.072 16.536 56.66 74.775 9.23 96.807-72.538 33.694-181.728 6.486-220.687 7.253-42.529.838-80.712 7.852-101.522-18.597-31.648-40.225-2.768-65.224 21.165-73.18 25.36-8.432 48.855-1.062 91.449-.001z" fill="#fff"/></g><path d="M391.768 113.749c2.86 8.182 13.883 15.49 20.621 20.019.81.545.494 1.669-.469 1.63-11.634-.476-28.016-5.118-32.374-9.213-.347-.327-.337-.831-.042-1.17l10.255-11.793c.554-.637 1.722-.296 2.009.527z" fill="#fff"/><defs><filter id="filter0_d_2_30750" x="0" y="0" width="446" height="198" filterUnits="userSpaceOnUse" color-interpolation-filters="sRGB"><feFlood flood-opacity="0" result="BackgroundImageFix"/><feColorMatrix in="SourceAlpha" values="0 0 0 0 0 0 0 0 0 0 0 0 0 0 0 0 0 0 127 0" result="hardAlpha"/><feOffset dy="12"/><feGaussianBlur stdDeviation="20"/><feComposite in2="hardAlpha" operator="out"/><feColorMatrix values="0 0 0 0 0.909804 0 0 0 0 0.313726 0 0 0 0 0.470588 0 0 0 1 0"/><feBlend in2="BackgroundImageFix" result="effect1_dropShadow_2_30750"/><feBlend in="SourceGraphic" in2="effect1_dropShadow_2_30750" result="shape"/></filter></defs></svg>