<svg width="457" height="200" viewBox="0 0 457 200" fill="none" xmlns="http://www.w3.org/2000/svg"><g filter="url(#filter0_d_1_13)"><path d="M170.284 44.849c43.777 1.077 166.764-27.476 206.278-12.49 44.343 16.816 58.332 76.042 9.503 98.447-74.679 34.266-187.092 6.596-227.2 7.377-43.784.852-83.094 7.985-104.517-18.913-32.583-40.907-2.85-66.33 21.789-74.421 26.108-8.574 50.297-1.08 94.147 0z" fill="#fff"/></g><path d="M361.667 126.792c3.29 10.859 16.533 20.533 24.183 26.343.744.565.358 1.667-.571 1.571-12.705-1.31-26.182-13.569-30.478-19.332a.965.965 0 01-.036-1.087l4.845-7.839c.493-.796 1.786-.552 2.057.344z" fill="#fff"/><defs><filter id="filter0_d_1_13" x="0" y="0" width="456.8" height="200" filterUnits="userSpaceOnUse" color-interpolation-filters="sRGB"><feFlood flood-opacity="0" result="BackgroundImageFix"/><feColorMatrix in="SourceAlpha" values="0 0 0 0 0 0 0 0 0 0 0 0 0 0 0 0 0 0 127 0" result="hardAlpha"/><feOffset dy="12"/><feGaussianBlur stdDeviation="20"/><feComposite in2="hardAlpha" operator="out"/><feColorMatrix values="0 0 0 0 0.909804 0 0 0 0 0.313726 0 0 0 0 0.470588 0 0 0 1 0"/><feBlend in2="BackgroundImageFix" result="effect1_dropShadow_1_13"/><feBlend in="SourceGraphic" in2="effect1_dropShadow_1_13" result="shape"/></filter></defs></svg>