<svg width="379" height="180" viewBox="0 0 379 180" fill="none" xmlns="http://www.w3.org/2000/svg"><g filter="url(#filter0_d_2_76370)"><path d="M143.384 42.04c34.738.898 132.331-22.896 163.686-10.408 35.187 14.014 46.288 63.37 7.541 82.04-59.26 28.555-148.462 5.497-180.289 6.147-34.744.71-65.937 6.654-82.937-15.76-25.855-34.09-2.261-55.275 17.29-62.018 20.718-7.145 39.912-.9 74.709 0z" fill="#fff"/></g><path d="M300.78 108.209c1.727 9.171 6.913 18.403 12.189 23.639.664.658.234 1.806-.693 1.688-10.227-1.302-20.942-10.898-24.704-15.745-.325-.419-.23-1.009.188-1.336l11.374-8.888c.607-.474 1.504-.114 1.646.642z" fill="#fff"/><defs><filter id="filter0_d_2_76370" x="0" y="0" width="379" height="180" filterUnits="userSpaceOnUse" color-interpolation-filters="sRGB"><feFlood flood-opacity="0" result="BackgroundImageFix"/><feColorMatrix in="SourceAlpha" values="0 0 0 0 0 0 0 0 0 0 0 0 0 0 0 0 0 0 127 0" result="hardAlpha"/><feOffset dy="12"/><feGaussianBlur stdDeviation="20"/><feComposite in2="hardAlpha" operator="out"/><feColorMatrix values="0 0 0 0 0.909804 0 0 0 0 0.313726 0 0 0 0 0.470588 0 0 0 1 0"/><feBlend in2="BackgroundImageFix" result="effect1_dropShadow_2_76370"/><feBlend in="SourceGraphic" in2="effect1_dropShadow_2_76370" result="shape"/></filter></defs></svg>