<svg width="410" height="227" viewBox="0 0 410 227" fill="none" xmlns="http://www.w3.org/2000/svg"><g filter="url(#filter0_d_1_7)"><path d="M154.102 48.64c38.34 1.32 146.051-33.658 180.658-15.3 38.835 20.6 51.086 93.152 8.322 120.598-65.403 41.975-163.854 8.08-198.981 9.036-38.346 1.043-72.773 9.781-91.535-23.168C24.03 89.695 50.07 58.552 71.648 48.64c22.866-10.503 44.05-1.322 82.454 0z" fill="#fff"/></g><path d="M342.838 135.868c3.003 9.25 14.144 17.486 20.803 22.536.744.564.361 1.657-.566 1.546-10.978-1.321-22.527-11.805-26.304-16.828a.963.963 0 01-.039-1.087l4.021-6.503c.492-.796 1.796-.554 2.085.336z" fill="#fff"/><defs><filter id="filter0_d_1_7" x="0" y="0" width="410" height="227" filterUnits="userSpaceOnUse" color-interpolation-filters="sRGB"><feFlood flood-opacity="0" result="BackgroundImageFix"/><feColorMatrix in="SourceAlpha" values="0 0 0 0 0 0 0 0 0 0 0 0 0 0 0 0 0 0 127 0" result="hardAlpha"/><feOffset dy="12"/><feGaussianBlur stdDeviation="20"/><feComposite in2="hardAlpha" operator="out"/><feColorMatrix values="0 0 0 0 0.909804 0 0 0 0 0.313726 0 0 0 0 0.470588 0 0 0 1 0"/><feBlend in2="BackgroundImageFix" result="effect1_dropShadow_1_7"/><feBlend in="SourceGraphic" in2="effect1_dropShadow_1_7" result="shape"/></filter></defs></svg>