<svg width="711" height="675" viewBox="0 0 711 675" fill="none" xmlns="http://www.w3.org/2000/svg"><g filter="url(#filter0_di_1495_84493)"><path fill-rule="evenodd" clip-rule="evenodd" d="M272.525 614.992C171.687 602.236 40 585.576 40 265.507c0-123.711 100.147-199.6 217.384-222.051 101.037-19.35 272.879-35.64 329.598 53.115 21.686 33.934 36.616 103.767 41.275 180.846.714 11.81 9.848 21.666 21.4 19.111 7.002-1.549 13.824-3.894 20.218-6.092.155-.054.285.125.187.257-8.539 11.476-20.401 18.717-31.338 23.158-5.224 2.122-8.938 7.039-8.924 12.678.267 103.174-18.309 208.479-63.599 251.736-57.996 55.39-210.391 47.343-288.39 37.398l-5.286-.671z" fill="#fff"/></g><defs><filter id="filter0_di_1495_84493" x="0" y=".227" width="710.098" height="674.58" filterUnits="userSpaceOnUse" color-interpolation-filters="sRGB"><feFlood flood-opacity="0" result="BackgroundImageFix"/><feColorMatrix in="SourceAlpha" values="0 0 0 0 0 0 0 0 0 0 0 0 0 0 0 0 0 0 127 0" result="hardAlpha"/><feOffset dy="12"/><feGaussianBlur stdDeviation="20"/><feComposite in2="hardAlpha" operator="out"/><feColorMatrix values="0 0 0 0 0.909804 0 0 0 0 0.313726 0 0 0 0 0.470588 0 0 0 1 0"/><feBlend in2="BackgroundImageFix" result="effect1_dropShadow_1495_84493"/><feBlend in="SourceGraphic" in2="effect1_dropShadow_1495_84493" result="shape"/><feColorMatrix in="SourceAlpha" values="0 0 0 0 0 0 0 0 0 0 0 0 0 0 0 0 0 0 127 0" result="hardAlpha"/><feOffset dy="-4"/><feGaussianBlur stdDeviation="4"/><feComposite in2="hardAlpha" operator="arithmetic" k2="-1" k3="1"/><feColorMatrix values="0 0 0 0 0.909804 0 0 0 0 0.313726 0 0 0 0 0.470588 0 0 0 0.48 0"/><feBlend in2="shape" result="effect2_innerShadow_1495_84493"/></filter></defs></svg>