<svg width="680" height="381" viewBox="0 0 680 381" fill="none" xmlns="http://www.w3.org/2000/svg"><g filter="url(#filter0_di_1495_85110)"><path fill-rule="evenodd" clip-rule="evenodd" d="M44.979 168.252c-19.353 86.306 33.076 122.404 70.02 142.196 47.068 25.215 109.968 18.024 170.547 11.097 11.495-1.314 22.906-2.618 34.11-3.69 34.088-3.262 69.027-2.468 102.218-1.713 71.163 1.617 134.285 3.051 163.729-36.059 4.095-5.441 11.575-7.647 17.841-4.981 10.35 4.402 22.919 7.477 36.181 5.913.163-.019.204-.237.058-.313-13.34-6.989-28.67-15.02-36.525-29.262-2.104-3.816-2.222-8.319-1.586-12.631.839-5.692 1.355-11.793 1.532-18.33 3.878-143.55-171.367-203.786-314.376-190.745-107.95 9.844-220.032 32.746-243.75 138.518z" fill="#fff"/></g><defs><filter id="filter0_di_1495_85110" x=".82" y="0" width="678.953" height="380.096" filterUnits="userSpaceOnUse" color-interpolation-filters="sRGB"><feFlood flood-opacity="0" result="BackgroundImageFix"/><feColorMatrix in="SourceAlpha" values="0 0 0 0 0 0 0 0 0 0 0 0 0 0 0 0 0 0 127 0" result="hardAlpha"/><feOffset dy="12"/><feGaussianBlur stdDeviation="20"/><feComposite in2="hardAlpha" operator="out"/><feColorMatrix values="0 0 0 0 0.909804 0 0 0 0 0.313726 0 0 0 0 0.470588 0 0 0 1 0"/><feBlend in2="BackgroundImageFix" result="effect1_dropShadow_1495_85110"/><feBlend in="SourceGraphic" in2="effect1_dropShadow_1495_85110" result="shape"/><feColorMatrix in="SourceAlpha" values="0 0 0 0 0 0 0 0 0 0 0 0 0 0 0 0 0 0 127 0" result="hardAlpha"/><feOffset dy="-4"/><feGaussianBlur stdDeviation="4"/><feComposite in2="hardAlpha" operator="arithmetic" k2="-1" k3="1"/><feColorMatrix values="0 0 0 0 0.909804 0 0 0 0 0.313726 0 0 0 0 0.470588 0 0 0 0.48 0"/><feBlend in2="shape" result="effect2_innerShadow_1495_85110"/></filter></defs></svg>