<svg width="691" height="523" viewBox="0 0 691 523" fill="none" xmlns="http://www.w3.org/2000/svg"><g filter="url(#filter0_di_1479_51433)"><path fill-rule="evenodd" clip-rule="evenodd" d="M48 137.885c-19.352 86.306 0 215.619 51 267.619 44.483 45.355 158.431 72.996 229 72.997 3.527 0 7.3.029 11.289.06 79.29.615 244.178 1.892 271.07-211.942.628-4.995 4.581-9.037 9.507-10.076 10.151-2.144 20.982-6.32 30.254-13.958.126-.104.043-.309-.121-.294-5.693.508-11.709 1.046-17.764 1.094-11.406.091-18.79-10.381-18.425-21.782a583.43 583.43 0 00.294-18.688c0-143.602-170.773-174.748-314.376-174.745C193.5 28.172 71.718 32.113 48 137.885z" fill="#fff"/></g><defs><filter id="filter0_di_1479_51433" x=".629" y=".17" width="689.553" height="530.463" filterUnits="userSpaceOnUse" color-interpolation-filters="sRGB"><feFlood flood-opacity="0" result="BackgroundImageFix"/><feColorMatrix in="SourceAlpha" values="0 0 0 0 0 0 0 0 0 0 0 0 0 0 0 0 0 0 127 0" result="hardAlpha"/><feOffset dy="12"/><feGaussianBlur stdDeviation="20"/><feComposite in2="hardAlpha" operator="out"/><feColorMatrix values="0 0 0 0 0.909804 0 0 0 0 0.313726 0 0 0 0 0.470588 0 0 0 1 0"/><feBlend in2="BackgroundImageFix" result="effect1_dropShadow_1479_51433"/><feBlend in="SourceGraphic" in2="effect1_dropShadow_1479_51433" result="shape"/><feColorMatrix in="SourceAlpha" values="0 0 0 0 0 0 0 0 0 0 0 0 0 0 0 0 0 0 127 0" result="hardAlpha"/><feOffset dy="-4"/><feGaussianBlur stdDeviation="4"/><feComposite in2="hardAlpha" operator="arithmetic" k2="-1" k3="1"/><feColorMatrix values="0 0 0 0 0.909804 0 0 0 0 0.313726 0 0 0 0 0.470588 0 0 0 0.48 0"/><feBlend in2="shape" result="effect2_innerShadow_1479_51433"/></filter></defs></svg>