<svg width="690" height="338" viewBox="0 0 690 338" fill="none" xmlns="http://www.w3.org/2000/svg"><g filter="url(#filter0_di_1419_49280)"><path fill-rule="evenodd" clip-rule="evenodd" d="M47 137.883c-19.352 86.306 10 108.499 51 128 57.015 27.118 160.123 17.251 230.349 10.531l1.307-.125c40.687-3.893 82.588.225 121.279 4.027 69.553 6.836 128.734 12.652 151.851-30.914 2.23-4.204 6.297-7.226 11.002-7.94 11.524-1.75 24.493-5.948 35.332-14.876.126-.105.043-.31-.121-.295-5.371.48-11.029.985-16.737 1.081-12.259.207-19.545-11.623-19.175-23.878l.017-.581c3.878-143.55-170.773-174.748-314.376-174.745C192.5 28.17 70.718 32.111 47 137.883z" fill="#fff"/></g><defs><filter id="filter0_di_1419_49280" x=".903" y=".168" width="688.277" height="336.879" filterUnits="userSpaceOnUse" color-interpolation-filters="sRGB"><feFlood flood-opacity="0" result="BackgroundImageFix"/><feColorMatrix in="SourceAlpha" values="0 0 0 0 0 0 0 0 0 0 0 0 0 0 0 0 0 0 127 0" result="hardAlpha"/><feOffset dy="12"/><feGaussianBlur stdDeviation="20"/><feComposite in2="hardAlpha" operator="out"/><feColorMatrix values="0 0 0 0 0.909804 0 0 0 0 0.313726 0 0 0 0 0.470588 0 0 0 1 0"/><feBlend in2="BackgroundImageFix" result="effect1_dropShadow_1419_49280"/><feBlend in="SourceGraphic" in2="effect1_dropShadow_1419_49280" result="shape"/><feColorMatrix in="SourceAlpha" values="0 0 0 0 0 0 0 0 0 0 0 0 0 0 0 0 0 0 127 0" result="hardAlpha"/><feOffset dy="-4"/><feGaussianBlur stdDeviation="4"/><feComposite in2="hardAlpha" operator="arithmetic" k2="-1" k3="1"/><feColorMatrix values="0 0 0 0 0.909804 0 0 0 0 0.313726 0 0 0 0 0.470588 0 0 0 0.48 0"/><feBlend in2="shape" result="effect2_innerShadow_1419_49280"/></filter></defs></svg>