<svg width="644" height="320" viewBox="0 0 644 320" fill="none" xmlns="http://www.w3.org/2000/svg"><g filter="url(#filter0_di_1495_75215)"><path fill-rule="evenodd" clip-rule="evenodd" d="M580.464 189.661c-6.665-5.288-7.327-14.475-6.082-22.892.992-6.705.821-13.81-.69-21.349-11.157-55.67-61.831-93.582-205.675-112.235-72.313-9.378-225.337-9.085-278.913 27.05-63.614 42.906-67.294 128.689 0 170.138 59.107 36.405 299.33 49.713 369.975 25.04 37.93-13.248 75.17-29.921 96.822-52.94 3.615-3.844 9.285-5.133 14.204-3.224 9.815 3.81 21.387 6.274 33.542 4.84.163-.019.203-.236.058-.313-7.69-4.028-16.041-8.403-23.241-14.115z" fill="#fff"/></g><defs><filter id="filter0_di_1495_75215" x=".004" y="0" width="643.791" height="320" filterUnits="userSpaceOnUse" color-interpolation-filters="sRGB"><feFlood flood-opacity="0" result="BackgroundImageFix"/><feColorMatrix in="SourceAlpha" values="0 0 0 0 0 0 0 0 0 0 0 0 0 0 0 0 0 0 127 0" result="hardAlpha"/><feOffset dy="12"/><feGaussianBlur stdDeviation="20"/><feComposite in2="hardAlpha" operator="out"/><feColorMatrix values="0 0 0 0 0.909804 0 0 0 0 0.313726 0 0 0 0 0.470588 0 0 0 1 0"/><feBlend in2="BackgroundImageFix" result="effect1_dropShadow_1495_75215"/><feBlend in="SourceGraphic" in2="effect1_dropShadow_1495_75215" result="shape"/><feColorMatrix in="SourceAlpha" values="0 0 0 0 0 0 0 0 0 0 0 0 0 0 0 0 0 0 127 0" result="hardAlpha"/><feOffset dy="-4"/><feGaussianBlur stdDeviation="4"/><feComposite in2="hardAlpha" operator="arithmetic" k2="-1" k3="1"/><feColorMatrix values="0 0 0 0 0.909804 0 0 0 0 0.313726 0 0 0 0 0.470588 0 0 0 0.48 0"/><feBlend in2="shape" result="effect2_innerShadow_1495_75215"/></filter></defs></svg>