<svg width="646" height="306" viewBox="0 0 646 306" fill="none" xmlns="http://www.w3.org/2000/svg"><g filter="url(#filter0_di_1419_49008)"><path fill-rule="evenodd" clip-rule="evenodd" d="M579.283 186.973c-6.456-5.82-5.981-15.3-3.842-23.725 1.939-7.634 2.136-15.839.248-24.677-11.2-52.423-62.063-88.124-206.445-105.689-72.583-8.83-226.179-8.554-279.955 25.473-63.852 40.403-67.546 121.182 0 160.213 59.327 34.282 300.449 46.813 371.357 23.579 34.072-11.164 67.589-24.912 89.833-43.214 4.522-3.721 10.868-4.479 16.178-2.008 10.844 5.045 24.503 8.873 38.99 7.164a.167.167 0 00.059-.313c-8.854-4.638-18.584-9.735-26.423-16.803z" fill="#fff"/></g><defs><filter id="filter0_di_1419_49008" x=".005" y="0" width="645.79" height="306" filterUnits="userSpaceOnUse" color-interpolation-filters="sRGB"><feFlood flood-opacity="0" result="BackgroundImageFix"/><feColorMatrix in="SourceAlpha" values="0 0 0 0 0 0 0 0 0 0 0 0 0 0 0 0 0 0 127 0" result="hardAlpha"/><feOffset dy="12"/><feGaussianBlur stdDeviation="20"/><feComposite in2="hardAlpha" operator="out"/><feColorMatrix values="0 0 0 0 0.909804 0 0 0 0 0.313726 0 0 0 0 0.470588 0 0 0 1 0"/><feBlend in2="BackgroundImageFix" result="effect1_dropShadow_1419_49008"/><feBlend in="SourceGraphic" in2="effect1_dropShadow_1419_49008" result="shape"/><feColorMatrix in="SourceAlpha" values="0 0 0 0 0 0 0 0 0 0 0 0 0 0 0 0 0 0 127 0" result="hardAlpha"/><feOffset dy="-4"/><feGaussianBlur stdDeviation="4"/><feComposite in2="hardAlpha" operator="arithmetic" k2="-1" k3="1"/><feColorMatrix values="0 0 0 0 0.909804 0 0 0 0 0.313726 0 0 0 0 0.470588 0 0 0 0.48 0"/><feBlend in2="shape" result="effect2_innerShadow_1419_49008"/></filter></defs></svg>