<svg width="700" height="577" viewBox="0 0 700 577" fill="none" xmlns="http://www.w3.org/2000/svg"><g filter="url(#filter0_di_1495_76822)"><path fill-rule="evenodd" clip-rule="evenodd" d="M620.833 208.582c-3.496-3.342-4.964-8.159-5.179-12.99-.997-22.344-3.115-40.318-5.291-51.173-11.157-55.67-61.831-93.582-205.676-112.236-72.312-9.377-220.342-.255-278.912 27.051-112.108 52.266-116.604 348.265 0 434.138 55.896 41.165 301.45 39.103 369.974 9.039 93.276-40.922 117.727-168.898 120.266-262.783.175-6.473 6.389-11.069 12.806-10.204 9.476 1.279 19.958 1.048 30.298-2.285a.166.166 0 00-.003-.318c-13.04-3.865-27.835-8.251-38.283-18.239z" fill="#fff"/></g><defs><filter id="filter0_di_1495_76822" x="0" y=".613" width="699.236" height="576.053" filterUnits="userSpaceOnUse" color-interpolation-filters="sRGB"><feFlood flood-opacity="0" result="BackgroundImageFix"/><feColorMatrix in="SourceAlpha" values="0 0 0 0 0 0 0 0 0 0 0 0 0 0 0 0 0 0 127 0" result="hardAlpha"/><feOffset dy="12"/><feGaussianBlur stdDeviation="20"/><feComposite in2="hardAlpha" operator="out"/><feColorMatrix values="0 0 0 0 0.909804 0 0 0 0 0.313726 0 0 0 0 0.470588 0 0 0 1 0"/><feBlend in2="BackgroundImageFix" result="effect1_dropShadow_1495_76822"/><feBlend in="SourceGraphic" in2="effect1_dropShadow_1495_76822" result="shape"/><feColorMatrix in="SourceAlpha" values="0 0 0 0 0 0 0 0 0 0 0 0 0 0 0 0 0 0 127 0" result="hardAlpha"/><feOffset dy="-4"/><feGaussianBlur stdDeviation="4"/><feComposite in2="hardAlpha" operator="arithmetic" k2="-1" k3="1"/><feColorMatrix values="0 0 0 0 0.909804 0 0 0 0 0.313726 0 0 0 0 0.470588 0 0 0 0.48 0"/><feBlend in2="shape" result="effect2_innerShadow_1495_76822"/></filter></defs></svg>