<svg width="701" height="557" viewBox="0 0 701 557" fill="none" xmlns="http://www.w3.org/2000/svg"><g filter="url(#filter0_di_1495_73101)"><path fill-rule="evenodd" clip-rule="evenodd" d="M599.117 99.091C578.828 37.615 438.4 27.932 329.514 28.001 220.823 28.067 90.859 44.545 60.444 129c-64.1 178 37.916 318 94.916 346.5 65.343 32.672 232.213 42.903 340.915 3.464 63.03-22.869 112.614-162.842 115.116-280.71.148-6.988 5.978-12.504 12.941-13.114 11.472-1.004 24.447-4.314 35.686-12.325a.166.166 0 00-.099-.302c-12.941.249-27.541.53-40.11-4.923-6.261-2.717-9.438-9.33-10.123-16.121-1.909-18.939-5.374-36.64-10.568-52.378z" fill="#fff"/></g><defs><filter id="filter0_di_1495_73101" x="0" y="0" width="700.088" height="556.514" filterUnits="userSpaceOnUse" color-interpolation-filters="sRGB"><feFlood flood-opacity="0" result="BackgroundImageFix"/><feColorMatrix in="SourceAlpha" values="0 0 0 0 0 0 0 0 0 0 0 0 0 0 0 0 0 0 127 0" result="hardAlpha"/><feOffset dy="12"/><feGaussianBlur stdDeviation="20"/><feComposite in2="hardAlpha" operator="out"/><feColorMatrix values="0 0 0 0 0.909804 0 0 0 0 0.313726 0 0 0 0 0.470588 0 0 0 1 0"/><feBlend in2="BackgroundImageFix" result="effect1_dropShadow_1495_73101"/><feBlend in="SourceGraphic" in2="effect1_dropShadow_1495_73101" result="shape"/><feColorMatrix in="SourceAlpha" values="0 0 0 0 0 0 0 0 0 0 0 0 0 0 0 0 0 0 127 0" result="hardAlpha"/><feOffset dy="-4"/><feGaussianBlur stdDeviation="4"/><feComposite in2="hardAlpha" operator="arithmetic" k2="-1" k3="1"/><feColorMatrix values="0 0 0 0 0.909804 0 0 0 0 0.313726 0 0 0 0 0.470588 0 0 0 0.48 0"/><feBlend in2="shape" result="effect2_innerShadow_1495_73101"/></filter></defs></svg>