<svg width="694" height="313" viewBox="0 0 694 313" fill="none" xmlns="http://www.w3.org/2000/svg"><g filter="url(#filter0_di_1495_71695)"><path fill-rule="evenodd" clip-rule="evenodd" d="M581.757 99.09C541.998 48 421.039 27.933 312.154 28c-108.692.068-253.977 39.835-269.07 101-12.584 51 29.914 78 86.914 106.5 65.343 32.672 224.214 34.902 332.915-4.537 43.151-15.656 86.005-35.084 110.637-58.36 5.551-5.244 13.325-7.705 20.833-6.316 16.983 3.141 38.535 3.636 58.699-5.208.203-.089.171-.386-.047-.427-16.262-3.071-34.497-6.515-49.217-15.933-6.4-4.095-8.443-11.993-9.67-19.492-1.369-8.365-5.341-17.076-12.391-26.136z" fill="#fff"/></g><defs><filter id="filter0_di_1495_71695" x=".863" y="0" width="692.354" height="312.279" filterUnits="userSpaceOnUse" color-interpolation-filters="sRGB"><feFlood flood-opacity="0" result="BackgroundImageFix"/><feColorMatrix in="SourceAlpha" values="0 0 0 0 0 0 0 0 0 0 0 0 0 0 0 0 0 0 127 0" result="hardAlpha"/><feOffset dy="12"/><feGaussianBlur stdDeviation="20"/><feComposite in2="hardAlpha" operator="out"/><feColorMatrix values="0 0 0 0 0.909804 0 0 0 0 0.313726 0 0 0 0 0.470588 0 0 0 1 0"/><feBlend in2="BackgroundImageFix" result="effect1_dropShadow_1495_71695"/><feBlend in="SourceGraphic" in2="effect1_dropShadow_1495_71695" result="shape"/><feColorMatrix in="SourceAlpha" values="0 0 0 0 0 0 0 0 0 0 0 0 0 0 0 0 0 0 127 0" result="hardAlpha"/><feOffset dy="-4"/><feGaussianBlur stdDeviation="4"/><feComposite in2="hardAlpha" operator="arithmetic" k2="-1" k3="1"/><feColorMatrix values="0 0 0 0 0.909804 0 0 0 0 0.313726 0 0 0 0 0.470588 0 0 0 0.48 0"/><feBlend in2="shape" result="effect2_innerShadow_1495_71695"/></filter></defs></svg>