<svg width="672" height="294" viewBox="0 0 672 294" fill="none" xmlns="http://www.w3.org/2000/svg"><g filter="url(#filter0_di_1419_48916)"><path fill-rule="evenodd" clip-rule="evenodd" d="M580.079 93.496C540.381 46.426 419.604 27.937 310.882 28c-108.528.063-253.595 36.7-268.664 93.052C29.652 168.038 72.087 192.913 129 219.17c65.244 30.1 223.876 32.156 332.414-4.179 50.481-16.9 100.554-38.57 121.437-65.124 3.033-3.857 7.822-6.073 12.705-5.596 10.998 1.074 23.596.261 35.537-4.977.15-.066.125-.286-.036-.316-8.482-1.602-17.688-3.34-26.199-6.666-7.815-3.054-11.083-11.596-13.605-19.598-1.956-6.206-5.603-12.611-11.175-19.218z" fill="#fff"/></g><defs><filter id="filter0_di_1419_48916" x="0" y="0" width="671.194" height="294" filterUnits="userSpaceOnUse" color-interpolation-filters="sRGB"><feFlood flood-opacity="0" result="BackgroundImageFix"/><feColorMatrix in="SourceAlpha" values="0 0 0 0 0 0 0 0 0 0 0 0 0 0 0 0 0 0 127 0" result="hardAlpha"/><feOffset dy="12"/><feGaussianBlur stdDeviation="20"/><feComposite in2="hardAlpha" operator="out"/><feColorMatrix values="0 0 0 0 0.909804 0 0 0 0 0.313726 0 0 0 0 0.470588 0 0 0 1 0"/><feBlend in2="BackgroundImageFix" result="effect1_dropShadow_1419_48916"/><feBlend in="SourceGraphic" in2="effect1_dropShadow_1419_48916" result="shape"/><feColorMatrix in="SourceAlpha" values="0 0 0 0 0 0 0 0 0 0 0 0 0 0 0 0 0 0 127 0" result="hardAlpha"/><feOffset dy="-4"/><feGaussianBlur stdDeviation="4"/><feComposite in2="hardAlpha" operator="arithmetic" k2="-1" k3="1"/><feColorMatrix values="0 0 0 0 0.909804 0 0 0 0 0.313726 0 0 0 0 0.470588 0 0 0 0.48 0"/><feBlend in2="shape" result="effect2_innerShadow_1419_48916"/></filter></defs></svg>