<svg width="719" height="432" viewBox="0 0 719 432" fill="none" xmlns="http://www.w3.org/2000/svg"><g filter="url(#filter0_di_1495_61830)"><path fill-rule="evenodd" clip-rule="evenodd" d="M382.307 376.474C172.68 396.165 5.516 300.022 46.114 152.802 81.574 24.214 243.29 18.319 382.307 34.377l7.654.881c102.857 11.825 203.827 23.434 234.084 117.544 3.972 12.354 6.183 24.387 6.785 36.05.277 5.377 1.781 10.82 5.841 14.357 11.496 10.014 27.468 13.143 41.463 15.885a.167.167 0 01.033.317c-12.668 5.454-26.039 5.952-37.46 4.516-6.881-.866-13.658 3.26-15.809 9.853-25.331 77.669-126.341 131.775-242.591 142.694z" fill="#fff"/></g><defs><filter id="filter0_di_1495_61830" x="0" y="0" width="718.27" height="431.026" filterUnits="userSpaceOnUse" color-interpolation-filters="sRGB"><feFlood flood-opacity="0" result="BackgroundImageFix"/><feColorMatrix in="SourceAlpha" values="0 0 0 0 0 0 0 0 0 0 0 0 0 0 0 0 0 0 127 0" result="hardAlpha"/><feOffset dy="12"/><feGaussianBlur stdDeviation="20"/><feComposite in2="hardAlpha" operator="out"/><feColorMatrix values="0 0 0 0 0.909804 0 0 0 0 0.313726 0 0 0 0 0.470588 0 0 0 1 0"/><feBlend in2="BackgroundImageFix" result="effect1_dropShadow_1495_61830"/><feBlend in="SourceGraphic" in2="effect1_dropShadow_1495_61830" result="shape"/><feColorMatrix in="SourceAlpha" values="0 0 0 0 0 0 0 0 0 0 0 0 0 0 0 0 0 0 127 0" result="hardAlpha"/><feOffset dy="-4"/><feGaussianBlur stdDeviation="4"/><feComposite in2="hardAlpha" operator="arithmetic" k2="-1" k3="1"/><feColorMatrix values="0 0 0 0 0.909804 0 0 0 0 0.313726 0 0 0 0 0.470588 0 0 0 0.48 0"/><feBlend in2="shape" result="effect2_innerShadow_1495_61830"/></filter></defs></svg>