<svg width="741" height="684" viewBox="0 0 741 684" fill="none" xmlns="http://www.w3.org/2000/svg"><g filter="url(#filter0_di_1495_65241)"><path fill-rule="evenodd" clip-rule="evenodd" d="M381.734 632C-3.275 632 21.057 297.209 61.642 151.512 97.092 24.254 258.757 18.419 397.73 34.311l7.652.872c102.824 11.703 203.762 23.191 234.01 116.329 4.938 15.203 9.006 34.421 11.749 56.37.788 6.304 3.766 12.383 9.477 15.165 12.195 5.941 26.636 6.418 39.451 6.84a.167.167 0 01.084.307c-10.659 6.787-22.563 9.563-33.33 10.294-6.753.458-12.387 5.936-12.155 12.701C659.936 406.479 604.132 632 381.734 632z" fill="#fff"/></g><defs><filter id="filter0_di_1495_65241" x="0" y="0" width="740.229" height="684" filterUnits="userSpaceOnUse" color-interpolation-filters="sRGB"><feFlood flood-opacity="0" result="BackgroundImageFix"/><feColorMatrix in="SourceAlpha" values="0 0 0 0 0 0 0 0 0 0 0 0 0 0 0 0 0 0 127 0" result="hardAlpha"/><feOffset dy="12"/><feGaussianBlur stdDeviation="20"/><feComposite in2="hardAlpha" operator="out"/><feColorMatrix values="0 0 0 0 0.909804 0 0 0 0 0.313726 0 0 0 0 0.470588 0 0 0 1 0"/><feBlend in2="BackgroundImageFix" result="effect1_dropShadow_1495_65241"/><feBlend in="SourceGraphic" in2="effect1_dropShadow_1495_65241" result="shape"/><feColorMatrix in="SourceAlpha" values="0 0 0 0 0 0 0 0 0 0 0 0 0 0 0 0 0 0 127 0" result="hardAlpha"/><feOffset dy="-4"/><feGaussianBlur stdDeviation="4"/><feComposite in2="hardAlpha" operator="arithmetic" k2="-1" k3="1"/><feColorMatrix values="0 0 0 0 0.909804 0 0 0 0 0.313726 0 0 0 0 0.470588 0 0 0 0.48 0"/><feBlend in2="shape" result="effect2_innerShadow_1495_65241"/></filter></defs></svg>