<svg width="434" height="419" viewBox="0 0 434 419" fill="none" xmlns="http://www.w3.org/2000/svg"><g filter="url(#filter0_di_1497_87410)"><path fill-rule="evenodd" clip-rule="evenodd" d="M96.753 47.545C41.19 83.4 26.687 193.056 53.859 273.548a130.915 130.915 0 003.116 8.303c.709 1.707.877 3.607.303 5.364-2.748 8.411-6.34 12.728-11.02 18.352-.518.622-.286 1.568.502 1.752 3.362.786 6.94-.367 10.248-2.376 4.58-2.779 10.96-2.339 14.191 1.934 33.227 43.951 92.541 51.536 144.222 58.09 64.478 8.178 148.13-10.179 169.193-101.749 20.404-88.7 5.228-160.121-49.584-205.098-43.578-35.76-192.404-40.177-238.277-10.575z" fill="#fff"/></g><defs><filter id="filter0_di_1497_87410" x=".551" y="0" width="432.746" height="418.714" filterUnits="userSpaceOnUse" color-interpolation-filters="sRGB"><feFlood flood-opacity="0" result="BackgroundImageFix"/><feColorMatrix in="SourceAlpha" values="0 0 0 0 0 0 0 0 0 0 0 0 0 0 0 0 0 0 127 0" result="hardAlpha"/><feOffset dy="12"/><feGaussianBlur stdDeviation="20"/><feComposite in2="hardAlpha" operator="out"/><feColorMatrix values="0 0 0 0 0.909804 0 0 0 0 0.313726 0 0 0 0 0.470588 0 0 0 1 0"/><feBlend in2="BackgroundImageFix" result="effect1_dropShadow_1497_87410"/><feBlend in="SourceGraphic" in2="effect1_dropShadow_1497_87410" result="shape"/><feColorMatrix in="SourceAlpha" values="0 0 0 0 0 0 0 0 0 0 0 0 0 0 0 0 0 0 127 0" result="hardAlpha"/><feOffset dy="-4"/><feGaussianBlur stdDeviation="4"/><feComposite in2="hardAlpha" operator="arithmetic" k2="-1" k3="1"/><feColorMatrix values="0 0 0 0 0.909804 0 0 0 0 0.313726 0 0 0 0 0.470588 0 0 0 0.16 0"/><feBlend in2="shape" result="effect2_innerShadow_1497_87410"/></filter></defs></svg>