<svg width="440" height="343" viewBox="0 0 440 343" fill="none" xmlns="http://www.w3.org/2000/svg"><g filter="url(#filter0_di_1327_57494)"><path fill-rule="evenodd" clip-rule="evenodd" d="M234.684 30.099c71.217 4.881 165.02 35.905 165.03 151.159.002 24.973-11.259 42.262-28.944 55.456-4.009 2.991-4.824 8.856-.744 11.749 3.945 2.796 8.243 4.996 13.123 7.494.922.472.956 1.759.019 2.201-11.67 5.505-27.015.98-36.368-3.644-2.356-1.165-5.11-1.347-7.523-.303-15.78 6.83-33.422 12.594-51.36 18.456a2502.726 2502.726 0 00-14.137 4.65c-38.632 12.87-114.641 17.878-152.661 9.561-62.974-13.776-80.334-66.255-80.34-130.015C40.77 30.076 164.07 25.259 234.685 30.099z" fill="#fff"/></g><defs><filter id="filter0_di_1327_57494" x=".78" y=".942" width="438.934" height="342.013" filterUnits="userSpaceOnUse" color-interpolation-filters="sRGB"><feFlood flood-opacity="0" result="BackgroundImageFix"/><feColorMatrix in="SourceAlpha" values="0 0 0 0 0 0 0 0 0 0 0 0 0 0 0 0 0 0 127 0" result="hardAlpha"/><feOffset dy="12"/><feGaussianBlur stdDeviation="20"/><feComposite in2="hardAlpha" operator="out"/><feColorMatrix values="0 0 0 0 0.909804 0 0 0 0 0.313726 0 0 0 0 0.470588 0 0 0 1 0"/><feBlend in2="BackgroundImageFix" result="effect1_dropShadow_1327_57494"/><feBlend in="SourceGraphic" in2="effect1_dropShadow_1327_57494" result="shape"/><feColorMatrix in="SourceAlpha" values="0 0 0 0 0 0 0 0 0 0 0 0 0 0 0 0 0 0 127 0" result="hardAlpha"/><feOffset dy="-4"/><feGaussianBlur stdDeviation="4"/><feComposite in2="hardAlpha" operator="arithmetic" k2="-1" k3="1"/><feColorMatrix values="0 0 0 0 0.909804 0 0 0 0 0.313726 0 0 0 0 0.470588 0 0 0 0.16 0"/><feBlend in2="shape" result="effect2_innerShadow_1327_57494"/></filter></defs></svg>