<svg width="459" height="189" viewBox="0 0 459 189" fill="none" xmlns="http://www.w3.org/2000/svg"><g filter="url(#filter0_di_1327_58031)"><path fill-rule="evenodd" clip-rule="evenodd" d="M278.81 31.017c67.817 3.843 153.674 17.04 137.451 55.156-3.474 8.162-16.037 15.642-34.047 21.949-4.166 1.46-6.629 5.971-4.599 9.892 3.339 6.45 7.929 11.163 13.525 16.908.653.671.245 1.777-.691 1.791-12.821.188-25.874-9.588-32.922-16.822-2.174-2.232-5.317-3.377-8.363-2.721-19.839 4.274-42.325 7.462-65.057 9.239-55.57 4.345-131.238 5.347-168.611 1.187-58.634-6.527-85.478-29.59-71.8-61.727C61.541 23.94 211.568 27.207 278.81 31.018z" fill="#fff"/></g><defs><filter id="filter0_di_1327_58031" x=".19" y=".924" width="458.07" height="187.792" filterUnits="userSpaceOnUse" color-interpolation-filters="sRGB"><feFlood flood-opacity="0" result="BackgroundImageFix"/><feColorMatrix in="SourceAlpha" values="0 0 0 0 0 0 0 0 0 0 0 0 0 0 0 0 0 0 127 0" result="hardAlpha"/><feOffset dy="12"/><feGaussianBlur stdDeviation="20"/><feComposite in2="hardAlpha" operator="out"/><feColorMatrix values="0 0 0 0 0.909804 0 0 0 0 0.313726 0 0 0 0 0.470588 0 0 0 1 0"/><feBlend in2="BackgroundImageFix" result="effect1_dropShadow_1327_58031"/><feBlend in="SourceGraphic" in2="effect1_dropShadow_1327_58031" result="shape"/><feColorMatrix in="SourceAlpha" values="0 0 0 0 0 0 0 0 0 0 0 0 0 0 0 0 0 0 127 0" result="hardAlpha"/><feOffset dy="-4"/><feGaussianBlur stdDeviation="4"/><feComposite in2="hardAlpha" operator="arithmetic" k2="-1" k3="1"/><feColorMatrix values="0 0 0 0 0.909804 0 0 0 0 0.313726 0 0 0 0 0.470588 0 0 0 0.16 0"/><feBlend in2="shape" result="effect2_innerShadow_1327_58031"/></filter></defs></svg>