<svg width="561" height="318" viewBox="0 0 561 318" fill="none" xmlns="http://www.w3.org/2000/svg"><g filter="url(#filter0_di_1327_57635)"><path fill-rule="evenodd" clip-rule="evenodd" d="M436.422 241.861c-2.617-3.688-.464-8.527 3.724-10.234 51.485-20.983 89.878-55.345 78.252-110.584-9.591-45.571-86.163-79.437-165.672-87.991-70.316-7.565-166.317-6.361-213.974 5.13C63.984 56.211 28.713 111.46 44.411 186.045c20.482 97.32 211.096 82.634 296.649 70.56 22.334-3.152 46.235-7.828 69.072-14.561 2.723-.803 5.65-.121 7.875 1.641 7.435 5.886 18.598 12.231 29.574 12.041.842-.015 1.189-1.027.568-1.595-4.649-4.253-8.605-7.872-11.727-12.27z" fill="#fff"/></g><defs><filter id="filter0_di_1327_57635" x=".742" y=".273" width="559.745" height="317.056" filterUnits="userSpaceOnUse" color-interpolation-filters="sRGB"><feFlood flood-opacity="0" result="BackgroundImageFix"/><feColorMatrix in="SourceAlpha" values="0 0 0 0 0 0 0 0 0 0 0 0 0 0 0 0 0 0 127 0" result="hardAlpha"/><feOffset dy="12"/><feGaussianBlur stdDeviation="20"/><feComposite in2="hardAlpha" operator="out"/><feColorMatrix values="0 0 0 0 0.909804 0 0 0 0 0.313726 0 0 0 0 0.470588 0 0 0 1 0"/><feBlend in2="BackgroundImageFix" result="effect1_dropShadow_1327_57635"/><feBlend in="SourceGraphic" in2="effect1_dropShadow_1327_57635" result="shape"/><feColorMatrix in="SourceAlpha" values="0 0 0 0 0 0 0 0 0 0 0 0 0 0 0 0 0 0 127 0" result="hardAlpha"/><feOffset dy="-4"/><feGaussianBlur stdDeviation="4"/><feComposite in2="hardAlpha" operator="arithmetic" k2="-1" k3="1"/><feColorMatrix values="0 0 0 0 0.909804 0 0 0 0 0.313726 0 0 0 0 0.470588 0 0 0 0.16 0"/><feBlend in2="shape" result="effect2_innerShadow_1327_57635"/></filter></defs></svg>