<svg width="535" height="385" viewBox="0 0 535 385" fill="none" xmlns="http://www.w3.org/2000/svg"><g filter="url(#filter0_di_1327_58117)"><path fill-rule="evenodd" clip-rule="evenodd" d="M470.648 232.34c-.601-2.053-.196-4.253.916-6.082 21.07-34.648 29.259-72.729 18.47-102.414-20.179-55.523-102.807-90.166-187.581-94.1-75.278-3.492-197.711 1.597-231.959 48.373-54.23 74.066-29.852 196.982 26.745 231.776C152.98 344.16 297.608 334.497 367.781 311c33.295-11.148 62.498-32.568 84.478-58.193 3.023-3.523 8.35-3.925 12.143-1.246 6.498 4.59 14.262 8.252 21.949 8.145.985-.014 1.423-1.167.754-1.89-7.486-8.103-13.17-14.256-16.457-25.476z" fill="#fff"/></g><defs><filter id="filter0_di_1327_58117" x=".162" y=".862" width="534.623" height="383.363" filterUnits="userSpaceOnUse" color-interpolation-filters="sRGB"><feFlood flood-opacity="0" result="BackgroundImageFix"/><feColorMatrix in="SourceAlpha" values="0 0 0 0 0 0 0 0 0 0 0 0 0 0 0 0 0 0 127 0" result="hardAlpha"/><feOffset dy="12"/><feGaussianBlur stdDeviation="20"/><feComposite in2="hardAlpha" operator="out"/><feColorMatrix values="0 0 0 0 0.909804 0 0 0 0 0.313726 0 0 0 0 0.470588 0 0 0 1 0"/><feBlend in2="BackgroundImageFix" result="effect1_dropShadow_1327_58117"/><feBlend in="SourceGraphic" in2="effect1_dropShadow_1327_58117" result="shape"/><feColorMatrix in="SourceAlpha" values="0 0 0 0 0 0 0 0 0 0 0 0 0 0 0 0 0 0 127 0" result="hardAlpha"/><feOffset dy="-4"/><feGaussianBlur stdDeviation="4"/><feComposite in2="hardAlpha" operator="arithmetic" k2="-1" k3="1"/><feColorMatrix values="0 0 0 0 0.909804 0 0 0 0 0.313726 0 0 0 0 0.470588 0 0 0 0.16 0"/><feBlend in2="shape" result="effect2_innerShadow_1327_58117"/></filter></defs></svg>