<svg width="1070" height="751" viewBox="0 0 1070 751" fill="none" xmlns="http://www.w3.org/2000/svg"><g filter="url(#filter0_di_1497_88701)"><path fill-rule="evenodd" clip-rule="evenodd" d="M888.437 150.955C774.244 48.876 440.769 46.141 294.998 120.03c-123.447 62.572-195.72 171.062-189.336 288.706.641 11.807-6.612 23.065-18.433 22.782-2.841-.068-5.29-.252-7.139-.39a.083.083 0 00-.065.142c5.651 5.575 13.765 8.192 21.802 9.163 4.339.523 8.058 3.598 8.929 7.88 3.392 16.689 8.386 33.476 15.055 50.262 53.097 133.631 188.904 185.81 387.858 179.75l5.299-.161c138.533-4.201 334.247-10.136 414.038-122.273 92.004-129.301 67.754-304.528-44.569-404.936z" fill="#fff"/></g><defs><filter id="filter0_di_1497_88701" x="0" y=".898" width="1069.5" height="769.896" filterUnits="userSpaceOnUse" color-interpolation-filters="sRGB"><feFlood flood-opacity="0" result="BackgroundImageFix"/><feColorMatrix in="SourceAlpha" values="0 0 0 0 0 0 0 0 0 0 0 0 0 0 0 0 0 0 127 0" result="hardAlpha"/><feOffset dy="12"/><feGaussianBlur stdDeviation="40"/><feComposite in2="hardAlpha" operator="out"/><feColorMatrix values="0 0 0 0 0.909804 0 0 0 0 0.313726 0 0 0 0 0.470588 0 0 0 1 0"/><feBlend in2="BackgroundImageFix" result="effect1_dropShadow_1497_88701"/><feBlend in="SourceGraphic" in2="effect1_dropShadow_1497_88701" result="shape"/><feColorMatrix in="SourceAlpha" values="0 0 0 0 0 0 0 0 0 0 0 0 0 0 0 0 0 0 127 0" result="hardAlpha"/><feOffset dy="-4"/><feGaussianBlur stdDeviation="4"/><feComposite in2="hardAlpha" operator="arithmetic" k2="-1" k3="1"/><feColorMatrix values="0 0 0 0 0.909804 0 0 0 0 0.313726 0 0 0 0 0.470588 0 0 0 0.48 0"/><feBlend in2="shape" result="effect2_innerShadow_1497_88701"/></filter></defs></svg>