<svg width="1055" height="699" viewBox="0 0 1055 699" fill="none" xmlns="http://www.w3.org/2000/svg">
<g filter="url(#filter0_di_1497_89280)">
<path fill-rule="evenodd" clip-rule="evenodd" d="M875.768 172.671C754.364 59.4781 435.917 36.7256 287.711 111.086C165.702 172.303 100.401 245.263 108.566 351.114C109.447 362.54 102.968 373.773 91.5107 374.03C86.8457 374.134 82.8237 373.833 80.0912 373.628C80.0126 373.623 79.9693 373.717 80.0255 373.773C86.3338 379.996 95.6677 382.586 104.594 383.315C109.521 383.717 113.862 387.05 114.981 391.865C119.329 410.576 125.701 430.238 134.171 450.944C180.563 564.357 318.036 605.962 523.456 606.063C666.761 606.134 855.499 605.6 935.256 486.551C994.69 397.835 995.185 284.012 875.768 172.671Z" fill="white"/>
</g>
<defs>
<filter id="filter0_di_1497_89280" x="0" y="0" width="1054.44" height="698.065" filterUnits="userSpaceOnUse" color-interpolation-filters="sRGB">
<feFlood flood-opacity="0" result="BackgroundImageFix"/>
<feColorMatrix in="SourceAlpha" type="matrix" values="0 0 0 0 0 0 0 0 0 0 0 0 0 0 0 0 0 0 127 0" result="hardAlpha"/>
<feOffset dy="12"/>
<feGaussianBlur stdDeviation="40"/>
<feComposite in2="hardAlpha" operator="out"/>
<feColorMatrix type="matrix" values="0 0 0 0 0.909804 0 0 0 0 0.313726 0 0 0 0 0.470588 0 0 0 1 0"/>
<feBlend mode="normal" in2="BackgroundImageFix" result="effect1_dropShadow_1497_89280"/>
<feBlend mode="normal" in="SourceGraphic" in2="effect1_dropShadow_1497_89280" result="shape"/>
<feColorMatrix in="SourceAlpha" type="matrix" values="0 0 0 0 0 0 0 0 0 0 0 0 0 0 0 0 0 0 127 0" result="hardAlpha"/>
<feOffset dy="-4"/>
<feGaussianBlur stdDeviation="4"/>
<feComposite in2="hardAlpha" operator="arithmetic" k2="-1" k3="1"/>
<feColorMatrix type="matrix" values="0 0 0 0 0.909804 0 0 0 0 0.313726 0 0 0 0 0.470588 0 0 0 0.48 0"/>
<feBlend mode="normal" in2="shape" result="effect2_innerShadow_1497_89280"/>
</filter>
</defs>
</svg>
