<svg width="1049" height="676" viewBox="0 0 1049 676" fill="none" xmlns="http://www.w3.org/2000/svg"><g filter="url(#filter0_di_1497_89025)"><path fill-rule="evenodd" clip-rule="evenodd" d="M870.19 172.774C749.304 60.064 432.217 37.409 284.644 111.452 154.35 176.825 89.004 242.774 109.19 356.728c2.036 11.496-3.721 23.489-15.38 24.095-5.637.292-10.55-.076-13.72-.313a.084.084 0 00-.065.144c7.082 6.987 17.994 9.374 27.836 9.691 5.395.174 10.358 3.458 12.013 8.595 3.355 10.415 7.313 21.198 11.885 32.374 46.194 112.929 183.08 152.175 387.623 152.276l5.477.003c141.989.09 326.161.206 404.565-116.824 59.18-88.337 59.673-183.129-59.234-293.995z" fill="#fff"/></g><defs><filter id="filter0_di_1497_89025" x="0" y=".55" width="1048.44" height="675.048" filterUnits="userSpaceOnUse" color-interpolation-filters="sRGB"><feFlood flood-opacity="0" result="BackgroundImageFix"/><feColorMatrix in="SourceAlpha" values="0 0 0 0 0 0 0 0 0 0 0 0 0 0 0 0 0 0 127 0" result="hardAlpha"/><feOffset dy="12"/><feGaussianBlur stdDeviation="40"/><feComposite in2="hardAlpha" operator="out"/><feColorMatrix values="0 0 0 0 0.909804 0 0 0 0 0.313726 0 0 0 0 0.470588 0 0 0 1 0"/><feBlend in2="BackgroundImageFix" result="effect1_dropShadow_1497_89025"/><feBlend in="SourceGraphic" in2="effect1_dropShadow_1497_89025" result="shape"/><feColorMatrix in="SourceAlpha" values="0 0 0 0 0 0 0 0 0 0 0 0 0 0 0 0 0 0 127 0" result="hardAlpha"/><feOffset dy="-4"/><feGaussianBlur stdDeviation="4"/><feComposite in2="hardAlpha" operator="arithmetic" k2="-1" k3="1"/><feColorMatrix values="0 0 0 0 0.909804 0 0 0 0 0.313726 0 0 0 0 0.470588 0 0 0 0.48 0"/><feBlend in2="shape" result="effect2_innerShadow_1497_89025"/></filter></defs></svg>