<svg width="425" height="299" viewBox="0 0 425 299" fill="none" xmlns="http://www.w3.org/2000/svg"><g filter="url(#filter0_di_1465_70973)"><path fill-rule="evenodd" clip-rule="evenodd" d="M95.245 41.059C40.931 64.407 26.463 135.123 52.74 186.863c24.16 47.571 96.237 53.342 157.364 58.185 52.258 4.14 117.487-3.585 149.987-40.224 2.292-2.584 6.091-3.213 9.273-1.87 3.568 1.505 7.463 2.381 11.097 1.74.567-.099.715-.802.268-1.163-3.483-2.811-6.378-5.146-8.78-8.433-1.587-2.173-1.421-5.067-.224-7.477a78.945 78.945 0 003.75-8.882c20.164-57.241 5.565-103.19-47.782-131.925-42.414-22.846-187.605-25.032-232.448-5.755z" fill="#fff"/></g><defs><filter id="filter0_di_1465_70973" x="0" y="0" width="424.152" height="298.054" filterUnits="userSpaceOnUse" color-interpolation-filters="sRGB"><feFlood flood-opacity="0" result="BackgroundImageFix"/><feColorMatrix in="SourceAlpha" values="0 0 0 0 0 0 0 0 0 0 0 0 0 0 0 0 0 0 127 0" result="hardAlpha"/><feOffset dy="12"/><feGaussianBlur stdDeviation="20"/><feComposite in2="hardAlpha" operator="out"/><feColorMatrix values="0 0 0 0 0.909804 0 0 0 0 0.313726 0 0 0 0 0.470588 0 0 0 1 0"/><feBlend in2="BackgroundImageFix" result="effect1_dropShadow_1465_70973"/><feBlend in="SourceGraphic" in2="effect1_dropShadow_1465_70973" result="shape"/><feColorMatrix in="SourceAlpha" values="0 0 0 0 0 0 0 0 0 0 0 0 0 0 0 0 0 0 127 0" result="hardAlpha"/><feOffset dy="-4"/><feGaussianBlur stdDeviation="4"/><feComposite in2="hardAlpha" operator="arithmetic" k2="-1" k3="1"/><feColorMatrix values="0 0 0 0 0.909804 0 0 0 0 0.313726 0 0 0 0 0.470588 0 0 0 0.16 0"/><feBlend in2="shape" result="effect2_innerShadow_1465_70973"/></filter></defs></svg>