<svg width="474" height="230" viewBox="0 0 474 230" fill="none" xmlns="http://www.w3.org/2000/svg"><g filter="url(#filter0_di_1465_67125)"><path fill-rule="evenodd" clip-rule="evenodd" d="M279.19 171.881c-8.953.849-17.906 1.698-26.737 2.624C141.369 186.153 40.003 170.721 40 97.178c-.001-46.357 90.332-62.399 96.159-63.385.202-.034.364-.066.564-.111 3.641-.818 44.386-9.37 132.443-3.821 6.441.406 13.141.752 19.993 1.107 65.162 3.371 144.055 7.453 144.055 69.964 0 17.371-7.322 30.08-19.708 39.566-3.296 2.524-4.718 7.108-1.958 10.209 2.185 2.455 4.715 4.465 7.642 6.79.465.37.313 1.098-.273 1.2-6.24 1.092-13.219-2.028-18.211-5.326-2.598-1.716-5.877-2.239-8.771-1.09-29.47 11.703-71.114 15.652-112.745 19.6z" fill="#fff"/></g><defs><filter id="filter0_di_1465_67125" x="0" y="0" width="473.215" height="230" filterUnits="userSpaceOnUse" color-interpolation-filters="sRGB"><feFlood flood-opacity="0" result="BackgroundImageFix"/><feColorMatrix in="SourceAlpha" values="0 0 0 0 0 0 0 0 0 0 0 0 0 0 0 0 0 0 127 0" result="hardAlpha"/><feOffset dy="12"/><feGaussianBlur stdDeviation="20"/><feComposite in2="hardAlpha" operator="out"/><feColorMatrix values="0 0 0 0 0.909804 0 0 0 0 0.313726 0 0 0 0 0.470588 0 0 0 1 0"/><feBlend in2="BackgroundImageFix" result="effect1_dropShadow_1465_67125"/><feBlend in="SourceGraphic" in2="effect1_dropShadow_1465_67125" result="shape"/><feColorMatrix in="SourceAlpha" values="0 0 0 0 0 0 0 0 0 0 0 0 0 0 0 0 0 0 127 0" result="hardAlpha"/><feOffset dy="-4"/><feGaussianBlur stdDeviation="4"/><feComposite in2="hardAlpha" operator="arithmetic" k2="-1" k3="1"/><feColorMatrix values="0 0 0 0 0.909804 0 0 0 0 0.313726 0 0 0 0 0.470588 0 0 0 0.16 0"/><feBlend in2="shape" result="effect2_innerShadow_1465_67125"/></filter></defs></svg>