<svg width="497" height="246" viewBox="0 0 497 246" fill="none" xmlns="http://www.w3.org/2000/svg"><g filter="url(#filter0_di_1465_66524)"><path fill-rule="evenodd" clip-rule="evenodd" d="M293.05 34.772c-9.472-.94-18.943-1.879-28.286-2.904C147.243 18.977 40.002 36.055 40 117.443c-.002 51.312 95.603 69.061 101.735 70.147.21.037.38.072.587.121 3.817.897 46.92 10.374 140.124 4.23 6.814-.449 13.902-.833 21.152-1.225 42.923-2.323 91.478-4.951 122.011-23.302 3.103-1.865 7.049-1.708 10.13.193 5.608 3.457 13.185 6.564 19.999 5.376.647-.113.812-.92.292-1.321-5.161-3.977-9.233-7.115-12.43-12.577-1.547-2.642-.864-5.91.968-8.364 7.256-9.718 11.432-21.958 11.432-37.432 0-62.353-81.497-70.437-162.95-78.517z" fill="#fff"/></g><defs><filter id="filter0_di_1465_66524" x="0" y="0" width="496.338" height="246" filterUnits="userSpaceOnUse" color-interpolation-filters="sRGB"><feFlood flood-opacity="0" result="BackgroundImageFix"/><feColorMatrix in="SourceAlpha" values="0 0 0 0 0 0 0 0 0 0 0 0 0 0 0 0 0 0 127 0" result="hardAlpha"/><feOffset dy="12"/><feGaussianBlur stdDeviation="20"/><feComposite in2="hardAlpha" operator="out"/><feColorMatrix values="0 0 0 0 0.909804 0 0 0 0 0.313726 0 0 0 0 0.470588 0 0 0 1 0"/><feBlend in2="BackgroundImageFix" result="effect1_dropShadow_1465_66524"/><feBlend in="SourceGraphic" in2="effect1_dropShadow_1465_66524" result="shape"/><feColorMatrix in="SourceAlpha" values="0 0 0 0 0 0 0 0 0 0 0 0 0 0 0 0 0 0 127 0" result="hardAlpha"/><feOffset dy="-4"/><feGaussianBlur stdDeviation="4"/><feComposite in2="hardAlpha" operator="arithmetic" k2="-1" k3="1"/><feColorMatrix values="0 0 0 0 0.909804 0 0 0 0 0.313726 0 0 0 0 0.470588 0 0 0 0.16 0"/><feBlend in2="shape" result="effect2_innerShadow_1465_66524"/></filter></defs></svg>