<svg width="452" height="356" viewBox="0 0 452 356" fill="none" xmlns="http://www.w3.org/2000/svg"><g filter="url(#filter0_di_1465_67246)"><path fill-rule="evenodd" clip-rule="evenodd" d="M47.56 113.807c18.326-66.509 67.039-80.487 130.552-84.833 87.518-5.987 233.731 14.378 233.312 95.734-.257 50.065-9.181 81.69-23.917 102.753-1.781 2.546-2.221 5.925-.398 8.442 2.887 3.984 6.382 6.761 10.609 10.119.526.418.354 1.242-.309 1.358-5.231.916-10.921-.785-15.816-3.245-3.378-1.697-7.513-1.413-10.438.984-19.18 15.716-43.738 22.636-70.363 29.898-76.48 20.861-173.37 43.415-213.326 13.837C40.257 253.908 31.104 173.53 47.56 113.807z" fill="#fff"/></g><defs><filter id="filter0_di_1465_67246" x="0" y="0" width="451.426" height="355.062" filterUnits="userSpaceOnUse" color-interpolation-filters="sRGB"><feFlood flood-opacity="0" result="BackgroundImageFix"/><feColorMatrix in="SourceAlpha" values="0 0 0 0 0 0 0 0 0 0 0 0 0 0 0 0 0 0 127 0" result="hardAlpha"/><feOffset dy="12"/><feGaussianBlur stdDeviation="20"/><feComposite in2="hardAlpha" operator="out"/><feColorMatrix values="0 0 0 0 0.909804 0 0 0 0 0.313726 0 0 0 0 0.470588 0 0 0 1 0"/><feBlend in2="BackgroundImageFix" result="effect1_dropShadow_1465_67246"/><feBlend in="SourceGraphic" in2="effect1_dropShadow_1465_67246" result="shape"/><feColorMatrix in="SourceAlpha" values="0 0 0 0 0 0 0 0 0 0 0 0 0 0 0 0 0 0 127 0" result="hardAlpha"/><feOffset dy="-4"/><feGaussianBlur stdDeviation="4"/><feComposite in2="hardAlpha" operator="arithmetic" k2="-1" k3="1"/><feColorMatrix values="0 0 0 0 0.909804 0 0 0 0 0.313726 0 0 0 0 0.470588 0 0 0 0.16 0"/><feBlend in2="shape" result="effect2_innerShadow_1465_67246"/></filter></defs></svg>