<svg width="427" height="254" viewBox="0 0 427 254" fill="none" xmlns="http://www.w3.org/2000/svg"><g filter="url(#filter0_di_1465_67359)"><path fill-rule="evenodd" clip-rule="evenodd" d="M369.706 160.926c-1.968-2.823-1.028-6.556 1.35-9.043 9.831-10.284 15.622-22.353 15.622-36.387-.001-56.931-84.613-80.316-157.724-86.027-59.388-4.639-140.91-.026-172.134 39.389-24.502 30.93-21.275 62.884 5.001 92.927 32.016 36.607 106.515 43.387 163.315 39.066 44.23-3.365 94.613-13.911 127.182-34.116 3.069-1.904 6.999-1.68 10.087.193 4.767 2.891 10.949 5.341 16.53 4.364.576-.101.726-.817.268-1.18-3.81-3.027-6.936-5.511-9.497-9.186z" fill="#fff"/></g><defs><filter id="filter0_di_1465_67359" x=".154" y="0" width="426.523" height="254" filterUnits="userSpaceOnUse" color-interpolation-filters="sRGB"><feFlood flood-opacity="0" result="BackgroundImageFix"/><feColorMatrix in="SourceAlpha" values="0 0 0 0 0 0 0 0 0 0 0 0 0 0 0 0 0 0 127 0" result="hardAlpha"/><feOffset dy="12"/><feGaussianBlur stdDeviation="20"/><feComposite in2="hardAlpha" operator="out"/><feColorMatrix values="0 0 0 0 0.909804 0 0 0 0 0.313726 0 0 0 0 0.470588 0 0 0 1 0"/><feBlend in2="BackgroundImageFix" result="effect1_dropShadow_1465_67359"/><feBlend in="SourceGraphic" in2="effect1_dropShadow_1465_67359" result="shape"/><feColorMatrix in="SourceAlpha" values="0 0 0 0 0 0 0 0 0 0 0 0 0 0 0 0 0 0 127 0" result="hardAlpha"/><feOffset dy="-4"/><feGaussianBlur stdDeviation="4"/><feComposite in2="hardAlpha" operator="arithmetic" k2="-1" k3="1"/><feColorMatrix values="0 0 0 0 0.909804 0 0 0 0 0.313726 0 0 0 0 0.470588 0 0 0 0.16 0"/><feBlend in2="shape" result="effect2_innerShadow_1465_67359"/></filter></defs></svg>