<svg width="420" height="224" viewBox="0 0 420 224" fill="none" xmlns="http://www.w3.org/2000/svg"><g filter="url(#filter0_di_1445_49918)"><path fill-rule="evenodd" clip-rule="evenodd" d="M118.782 43.312c-45.98 16.84-77.718 39.004-78.277 78.219-.715 50.254 71.595 49.868 138.029 49.515 9.534-.051 18.948-.101 28.006-.001 2.762.03 5.571.066 8.418.101 40.473.508 88.759 1.114 122.569-10.166 2.969-.991 6.244-.293 8.794 1.523 5.08 3.617 12.803 7.435 19.647 6.237.592-.104.746-.839.275-1.213-3.205-2.546-5.939-4.718-8.269-7.495-2.687-3.202-1.102-7.779 2.279-10.237 10.059-7.315 16.839-17.061 18.878-30.022 7.002-44.51-29.163-64.53-77.564-79.226-45.901-13.937-119.659-20.354-182.785 2.765z" fill="#fff"/></g><defs><filter id="filter0_di_1445_49918" x=".5" y="0" width="419.5" height="223.368" filterUnits="userSpaceOnUse" color-interpolation-filters="sRGB"><feFlood flood-opacity="0" result="BackgroundImageFix"/><feColorMatrix in="SourceAlpha" values="0 0 0 0 0 0 0 0 0 0 0 0 0 0 0 0 0 0 127 0" result="hardAlpha"/><feOffset dy="12"/><feGaussianBlur stdDeviation="20"/><feComposite in2="hardAlpha" operator="out"/><feColorMatrix values="0 0 0 0 0.909804 0 0 0 0 0.313726 0 0 0 0 0.470588 0 0 0 1 0"/><feBlend in2="BackgroundImageFix" result="effect1_dropShadow_1445_49918"/><feBlend in="SourceGraphic" in2="effect1_dropShadow_1445_49918" result="shape"/><feColorMatrix in="SourceAlpha" values="0 0 0 0 0 0 0 0 0 0 0 0 0 0 0 0 0 0 127 0" result="hardAlpha"/><feOffset dy="-4"/><feGaussianBlur stdDeviation="4"/><feComposite in2="hardAlpha" operator="arithmetic" k2="-1" k3="1"/><feColorMatrix values="0 0 0 0 0.909804 0 0 0 0 0.313726 0 0 0 0 0.470588 0 0 0 0.16 0"/><feBlend in2="shape" result="effect2_innerShadow_1445_49918"/></filter></defs></svg>