<svg width="456" height="245" viewBox="0 0 456 245" fill="none" xmlns="http://www.w3.org/2000/svg"><g filter="url(#filter0_di_1464_63787)"><path fill-rule="evenodd" clip-rule="evenodd" d="M106.626 44.117c-50.533 19.067-67 35.822-66.62 82.938.488 60.378 80.626 61.757 154.252 63.024 10.566.182 20.998.362 31.041.713 3.063.107 6.176.221 9.333.337 47.75 1.746 105.309 3.851 142.541-11.723 2.785-1.165 5.965-.8 8.546.766 5.133 3.115 11.793 5.757 17.805 4.705.62-.108.782-.879.289-1.27-2.771-2.202-5.206-4.137-7.345-6.381-2.856-2.996-1.691-7.603 1.418-10.335 9.423-8.279 15.641-19.137 17.404-33.322 6.627-53.315-33.967-69.222-87.989-88.118-51.231-17.92-151.295-27.511-220.675-1.334z" fill="#fff"/></g><defs><filter id="filter0_di_1464_63787" x="0" y="0" width="456" height="244.327" filterUnits="userSpaceOnUse" color-interpolation-filters="sRGB"><feFlood flood-opacity="0" result="BackgroundImageFix"/><feColorMatrix in="SourceAlpha" values="0 0 0 0 0 0 0 0 0 0 0 0 0 0 0 0 0 0 127 0" result="hardAlpha"/><feOffset dy="12"/><feGaussianBlur stdDeviation="20"/><feComposite in2="hardAlpha" operator="out"/><feColorMatrix values="0 0 0 0 0.909804 0 0 0 0 0.313726 0 0 0 0 0.470588 0 0 0 1 0"/><feBlend in2="BackgroundImageFix" result="effect1_dropShadow_1464_63787"/><feBlend in="SourceGraphic" in2="effect1_dropShadow_1464_63787" result="shape"/><feColorMatrix in="SourceAlpha" values="0 0 0 0 0 0 0 0 0 0 0 0 0 0 0 0 0 0 127 0" result="hardAlpha"/><feOffset dy="-4"/><feGaussianBlur stdDeviation="4"/><feComposite in2="hardAlpha" operator="arithmetic" k2="-1" k3="1"/><feColorMatrix values="0 0 0 0 0.909804 0 0 0 0 0.313726 0 0 0 0 0.470588 0 0 0 0.16 0"/><feBlend in2="shape" result="effect2_innerShadow_1464_63787"/></filter></defs></svg>