<svg width="420" height="237" viewBox="0 0 420 237" fill="none" xmlns="http://www.w3.org/2000/svg"><g filter="url(#filter0_di_1464_65498)"><path fill-rule="evenodd" clip-rule="evenodd" d="M109.544 39.956c-45.928 16.82-68.981 47.611-69.539 86.783-.802 56.314 90.2 57.294 161.729 58.065 1.381.015 2.756.029 4.122.045 42.766.473 96.671-1.376 132.855-16.727 2.859-1.213 6.137-.779 8.762.88 4.973 3.141 11.641 5.943 17.635 4.894.591-.103.745-.838.275-1.211-2.829-2.248-5.291-4.204-7.432-6.542-2.783-3.041-1.484-7.611 1.723-10.201 9.897-7.995 16.564-18.131 18.582-30.959 6.994-44.46-29.13-64.458-77.478-79.138-45.85-13.922-128.177-28.983-191.234-5.889z" fill="#fff"/></g><defs><filter id="filter0_di_1464_65498" x="0" y="0" width="419.123" height="236.912" filterUnits="userSpaceOnUse" color-interpolation-filters="sRGB"><feFlood flood-opacity="0" result="BackgroundImageFix"/><feColorMatrix in="SourceAlpha" values="0 0 0 0 0 0 0 0 0 0 0 0 0 0 0 0 0 0 127 0" result="hardAlpha"/><feOffset dy="12"/><feGaussianBlur stdDeviation="20"/><feComposite in2="hardAlpha" operator="out"/><feColorMatrix values="0 0 0 0 0.909804 0 0 0 0 0.313726 0 0 0 0 0.470588 0 0 0 1 0"/><feBlend in2="BackgroundImageFix" result="effect1_dropShadow_1464_65498"/><feBlend in="SourceGraphic" in2="effect1_dropShadow_1464_65498" result="shape"/><feColorMatrix in="SourceAlpha" values="0 0 0 0 0 0 0 0 0 0 0 0 0 0 0 0 0 0 127 0" result="hardAlpha"/><feOffset dy="-4"/><feGaussianBlur stdDeviation="4"/><feComposite in2="hardAlpha" operator="arithmetic" k2="-1" k3="1"/><feColorMatrix values="0 0 0 0 0.909804 0 0 0 0 0.313726 0 0 0 0 0.470588 0 0 0 0.16 0"/><feBlend in2="shape" result="effect2_innerShadow_1464_65498"/></filter></defs></svg>