<svg width="386" height="210" viewBox="0 0 386 210" fill="none" xmlns="http://www.w3.org/2000/svg"><g filter="url(#filter0_di_1445_59867)"><path fill-rule="evenodd" clip-rule="evenodd" d="M112.274 43.542c-41.62 15.996-70.528 36.526-71.694 71.837-1.495 45.25 63.518 43.585 123.247 42.056 8.572-.219 17.035-.436 25.177-.511 2.482-.023 5.007-.042 7.566-.062 38.226-.295 84.207-.649 114.925-13.111 3.414-1.385 7.416-.56 10.362 1.652 4.703 3.533 11.682 7.154 17.889 6.004.584-.108.741-.83.289-1.216-3.851-3.291-6.968-5.955-9.488-10.117-1.838-3.035-.578-6.808 1.991-9.256 6.445-6.143 10.835-13.755 12.491-23.193 7.048-40.194-25.124-57.556-68.387-69.903-41.028-11.71-107.226-16.142-164.368 5.82z" fill="#fff"/></g><defs><filter id="filter0_di_1445_59867" x=".555" y="0" width="385.445" height="210" filterUnits="userSpaceOnUse" color-interpolation-filters="sRGB"><feFlood flood-opacity="0" result="BackgroundImageFix"/><feColorMatrix in="SourceAlpha" values="0 0 0 0 0 0 0 0 0 0 0 0 0 0 0 0 0 0 127 0" result="hardAlpha"/><feOffset dy="12"/><feGaussianBlur stdDeviation="20"/><feComposite in2="hardAlpha" operator="out"/><feColorMatrix values="0 0 0 0 0.909804 0 0 0 0 0.313726 0 0 0 0 0.470588 0 0 0 1 0"/><feBlend in2="BackgroundImageFix" result="effect1_dropShadow_1445_59867"/><feBlend in="SourceGraphic" in2="effect1_dropShadow_1445_59867" result="shape"/><feColorMatrix in="SourceAlpha" values="0 0 0 0 0 0 0 0 0 0 0 0 0 0 0 0 0 0 127 0" result="hardAlpha"/><feOffset dy="-4"/><feGaussianBlur stdDeviation="4"/><feComposite in2="hardAlpha" operator="arithmetic" k2="-1" k3="1"/><feColorMatrix values="0 0 0 0 0.909804 0 0 0 0 0.313726 0 0 0 0 0.470588 0 0 0 0.16 0"/><feBlend in2="shape" result="effect2_innerShadow_1445_59867"/></filter></defs></svg>