<svg width="446" height="240" viewBox="0 0 446 240" fill="none" xmlns="http://www.w3.org/2000/svg"><g filter="url(#filter0_di_1464_64471)"><path fill-rule="evenodd" clip-rule="evenodd" d="M104.679 43.645c-49.055 18.51-65.04 34.774-64.67 80.512.472 58.612 78.266 59.951 149.738 61.181 10.257.176 20.384.351 30.133.692 2.973.104 5.996.214 9.06.326 46.297 1.694 102.092 3.734 138.238-11.324 2.787-1.161 5.967-.795 8.553.763 4.966 2.991 11.372 5.506 17.16 4.493.602-.106.759-.854.28-1.234-2.626-2.086-4.941-3.926-6.982-6.039-2.875-2.978-1.71-7.585 1.389-10.329 9.058-8.019 15.034-18.516 16.735-32.206 6.433-51.754-32.974-67.197-85.415-85.54-49.733-17.395-146.869-26.706-214.219-1.295z" fill="#fff"/></g><defs><filter id="filter0_di_1464_64471" x=".002" y="0" width="445" height="239.52" filterUnits="userSpaceOnUse" color-interpolation-filters="sRGB"><feFlood flood-opacity="0" result="BackgroundImageFix"/><feColorMatrix in="SourceAlpha" values="0 0 0 0 0 0 0 0 0 0 0 0 0 0 0 0 0 0 127 0" result="hardAlpha"/><feOffset dy="12"/><feGaussianBlur stdDeviation="20"/><feComposite in2="hardAlpha" operator="out"/><feColorMatrix values="0 0 0 0 0.909804 0 0 0 0 0.313726 0 0 0 0 0.470588 0 0 0 1 0"/><feBlend in2="BackgroundImageFix" result="effect1_dropShadow_1464_64471"/><feBlend in="SourceGraphic" in2="effect1_dropShadow_1464_64471" result="shape"/><feColorMatrix in="SourceAlpha" values="0 0 0 0 0 0 0 0 0 0 0 0 0 0 0 0 0 0 127 0" result="hardAlpha"/><feOffset dy="-4"/><feGaussianBlur stdDeviation="4"/><feComposite in2="hardAlpha" operator="arithmetic" k2="-1" k3="1"/><feColorMatrix values="0 0 0 0 0.909804 0 0 0 0 0.313726 0 0 0 0 0.470588 0 0 0 0.16 0"/><feBlend in2="shape" result="effect2_innerShadow_1464_64471"/></filter></defs></svg>