<svg width="67" height="67" viewBox="0 0 67 67" fill="none" xmlns="http://www.w3.org/2000/svg">
<path d="M8.40377 3.23917C8.95211 1.68891 10.4085 0.66502 12.0528 0.650635C16.7638 0.609422 26.6075 0.548407 33.5741 0.677647C43.0202 0.852886 56.3556 1.5482 62.717 1.90184C64.7887 2.017 66.4106 3.69408 66.4514 5.76855C66.573 11.944 66.7483 24.643 66.3693 33.6386C65.9657 43.2171 64.591 56.7281 63.9085 63.0623C63.6908 65.0828 61.9906 66.5996 59.9585 66.5996C54.0643 66.5996 42.0833 66.5996 33.5741 66.5996C24.9331 66.5996 12.7123 66.5996 6.92052 66.5996C5.00546 66.5996 3.37117 65.2457 3.05368 63.3571C2.01028 57.1507 -0.0121989 43.3469 0.778798 33.6386C1.62241 23.2845 6.366 9.00043 8.40377 3.23917Z" fill="#CC9FFF"/>
</svg>
